<svg xmlns="http://www.w3.org/2000/svg" viewBox="0 0 121.8 58.32"><defs><style>.cls-1{fill:#a00e0e;stroke-width:3px;}.cls-1,.cls-2,.cls-3{stroke:#084560;stroke-miterlimit:10;}.cls-2{fill:#fff;}.cls-3{fill:#08222e;}</style></defs><title>Asset 25</title><g id="Layer_2" data-name="Layer 2"><g id="Layer_1-2" data-name="Layer 1"><path class="cls-1" d="M111.36,6A12.44,12.44,0,0,0,100,2.93,30.87,30.87,0,0,1,87.15,3,54.35,54.35,0,0,0,67,2.06C51.79,4.51,40.86,12.38,34.54,26.41c-1.59,3.54-2.6,7.35-4,11.51-4.21.13-12.87-21.55-14.95-24.44-2.23-3.07-5.89-3.24-8.48-.55L3.57,16.59C1.1,19.14,1.21,22,2,25.37,4.44,35.54,8,56.73,60.1,56.73c6.37,0,20.09.66,20.07-1.71-.12-4.15-6.36-3.21-9.78-4.43-.14-1.1,13.12-8,14.29-8.74C88.29,39.63,91.59,40,94.46,43a4.39,4.39,0,0,0,4.73,1.48,50.76,50.76,0,0,1,7.27-1.3c1.34-.17,2.21-.54,2.23-2s-1-2.1-2.24-2c-2,.12-3.94.53-5.92.7-.84.08-2.13.15-2.46-.31a3.65,3.65,0,0,1-.2-2.7c.35-1.33,1.09-2.55,1.57-3.85a7.62,7.62,0,0,1,6.94-5.37,14.42,14.42,0,0,0,9.39-4.66v3.52c.12,1.22.14,2.23,2.32,2.2s2.21-1,2.21-2.2V20.07c0-3.76,0-6.12-2.3-8.33C115.89,9.71,113.55,7.94,111.36,6Z"/><ellipse class="cls-2" cx="102.3" cy="16.5" rx="8.5" ry="7.5"/><circle class="cls-3" cx="103.3" cy="17.5" r="4.5"/></g></g></svg>