<svg xmlns="http://www.w3.org/2000/svg" viewBox="0 0 106.71 108.22"><defs><style>.cls-1{fill:#e8b210;stroke-width:3px;}.cls-1,.cls-2{stroke:#084560;}.cls-1,.cls-2,.cls-3{stroke-miterlimit:10;}.cls-2{fill:#fff;}.cls-3{fill:#08222e;stroke:#000;}</style></defs><title>Asset 29</title><g id="Layer_2" data-name="Layer 2"><g id="Layer_1-2" data-name="Layer 1"><path class="cls-1" d="M98.12,7.57c-3.37-.17-4-4.64-7.26-4.85A20.28,20.28,0,0,0,83,3.5C79.81,1.33,75.72-1.34,81.69,9c-1.3,7-5.62,26.64-10.21,26.72s-7.6-8.3-11.5-8.21l-3.89.08c-4.58,0-7.6-8.11-16.86-8.38-5.8-.18-10.38,10-23.27,11.15C12.5,30.66,7.18,32,6.64,40c0,0-7.59,7.1-4,23.51.9-8.17,1.34-15,4-19.49-.2,4.46,1.2,8.79,0,13.41s-5,12.51-5,12.51-.83,1.64,1.26,7.31S9.18,96.91,9.18,96.91c.21,2.46.56,3.76,2.29,4.88-.44,1.64-1.9,4.93,3.29,4.93h5c3.52,0,2.37-3-3.3-5.79.17-2.08-1.13-4.24-2-4.68C12.42,91,9.74,80.87,9.74,80.87s-1-8.82,2.34-11.77S19.33,63.4,22,53.63c.08-.69,4.58,3.46,13.57,6s15.9-.17,16.9.26,3.17,5.71,3.17,10.82-1.82,8.47-1.82,10.46a19.27,19.27,0,0,0,1.47,5.45s.87,9.51-.26,14.87c-.78,3.37-2.07,5.08,3.12,5.09s12.28,1.13,3-5a6,6,0,0,0-.7-5.45c-.17-4.67.35-9.26,1.21-11.16s.26-7.35.44-10.11,2.68-12.71,5.44-16.26,15-14,17.13-24.21S89,13.85,95.1,13.94c3.63,0,4.23,2.08,5.79,2s4.32-2.67,4.32-4.06S104.87,7.66,98.12,7.57Z"/><ellipse class="cls-2" cx="89.5" cy="9.39" rx="5.5" ry="5"/><circle class="cls-3" cx="92" cy="10.39" r="3"/></g></g></svg>