<svg xmlns="http://www.w3.org/2000/svg" viewBox="0 0 148.41 113.83"><defs><style>.cls-1{fill:#a00e0e;stroke-width:3px;}.cls-1,.cls-2,.cls-3{stroke:#084560;stroke-miterlimit:10;}.cls-2{fill:#fff;}.cls-3{fill:#08222e;}</style></defs><title>Asset 8</title><g id="Layer_2" data-name="Layer 2"><g id="Layer_1-2" data-name="Layer 1"><path class="cls-1" d="M143.46,22.64c-5.83-3.32-3.64-6.31-6.07-8a8.56,8.56,0,0,0-3.8-1.78s1.09-5.18-4.75-5.1c0,0-7.74-13.75-22.84-.47a5,5,0,0,1,3.28,0C110.63,8,98.19,9.89,93,19.34c3.47-1.54,3.86-.45,3.86,1.25,0,5.88-6.87,13.83-20.07,14.58-5.84.34-9.88-2.84-23.55-2.84S30.69,43.85,26.42,60.74,20,80,15.74,80,7.39,74.53,7.58,69.1,8.7,58.47,11.53,56.53s.17-7-4.28-4.44S1.42,61.7,1.5,69.23,4.74,86.94,15.33,86.94s14.89-11,14.89-11-1,12,2.51,30.17c-.33,2.42-1.3,6.23,5.33,6.15s8.42-.41,8.25-4.12-2.26-4.13-4-4.13-4.29.48-4-2.84S41.25,76,58,67c8.42,3.14,13.77,8.09,30.59,3.23.9-.17,2.67,4.93,2.67,11.24s7,13.59,8.37,20.87c.48,3.07-3.16,10,3.15,10s9.87.89,9.71-3.4-1.3-5.42-3.88-5.5-5.1-1.37-4.53-6.87-1.06-19.49,3-25c.73-1,12.21.24,18.77-11.08a23.19,23.19,0,0,1-.89,7.68s12.69-10.1,8.49-24.74c-.57-1.22,1.13-1.3,2-.17,0-3.72-3.07-8.41-3.07-8.41s0-2.18,2.18-.4,9.38,6.14,10.35-4.94C146.29,29.19,149.28,26,143.46,22.64Z"/><ellipse class="cls-2" cx="122.5" cy="22.94" rx="10.5" ry="9.5"/><circle class="cls-3" cx="123" cy="22.44" r="5"/></g></g></svg>