<svg xmlns="http://www.w3.org/2000/svg" viewBox="0 0 89.94 123.19"><defs><style>.cls-1{fill:#e8b210;stroke-width:3px;}.cls-1,.cls-2,.cls-3{stroke:#084560;stroke-miterlimit:10;}.cls-2{fill:#fff;}.cls-3{fill:#08222e;}</style></defs><title>Asset 9</title><g id="Layer_2" data-name="Layer 2"><g id="Layer_1-2" data-name="Layer 1"><path class="cls-1" d="M82.83,5.71c-3-1.71-1.87-4-6.7-4.21s-5.76,3.75-5.61,6.08,5,28.34,6.08,33.79-1.56,7-3.59,7c-6.27-.06-9.17-10.43-20.24-11.67C45.94,35.93,35.11,38,29,47.34c-1.74,2.39-3.72,7.16-5.54,7.12,0,0-27.81-2.27-18.78,4.12C1.11,61.2-.18,66,4.65,64.73c-1.87,3.75-.93,9,4.52,5.77.47,6.07,3.89,13.7,15-6.54C26,61,29.68,74.63,38.29,74.55c2.86,0,3.27,1.22,3.43,2.55.11,1.05,1.28,5.8,3.5,7.78v33.17H43a2.05,2.05,0,0,0-1.83,2A1.58,1.58,0,0,0,43,121.66H54.1A1.58,1.58,0,0,0,55.93,120a2.05,2.05,0,0,0-1.83-2H48.83V84.84c2-2.39,2.72-8.61,4.87-8.74,2.65-.16,18.07-2,19.94-15.19C74,59,76.51,56,79.07,54.2c3.46-2.47,6.12-6.75,4.38-13.45-2-7.83-6.7-27.09-6.7-27.09s-.15-3.43,2.65-3.43,8.87,0,9-1.25S85.78,7.43,82.83,5.71Z"/><circle class="cls-2" cx="76.5" cy="6.62" r="5.5"/><circle class="cls-3" cx="77" cy="7.12" r="3"/></g></g></svg>