<svg xmlns="http://www.w3.org/2000/svg" viewBox="0 0 148.81 80.4"><defs><style>.cls-1{fill:#a00e0e;}.cls-1,.cls-2,.cls-3{stroke:#084560;stroke-miterlimit:10;}.cls-1,.cls-2{stroke-width:3px;}.cls-2{fill:#fff;}.cls-3{fill:#08222e;}</style></defs><title>Asset 24</title><g id="Layer_2" data-name="Layer 2"><g id="Layer_1-2" data-name="Layer 1"><path class="cls-1" d="M140.27,32.79c-5.51-3.42-3-19.41-16.82-23.35-4.88-17.21-7.86-1.09-7.86-1.09-12.85-7.07-22.88-6.74-34.38-1.7-6.9,3-28.47-.64-35.7.21a33.77,33.77,0,0,0-18.45,7.21,15.11,15.11,0,0,0-2.19,2.19c-2.11.92-7.76,3.67-11.23,8C8.59,23.92.73,29,1.56,29.86S6,26.24,12.14,25.93a4.73,4.73,0,0,0-.76,4,4,4,0,0,0,5.83,2c3.49-1.79,2.62-4.71,2.47-5a4.69,4.69,0,0,0-2.83-2.53c2.6-1.85,3.77-2.7,5.33-3.2C18.26,33.08,26.58,50,34.89,50.06,26,56.76,44,78.66,44,78.66a71.16,71.16,0,0,0,10.25,0c-17.63-16.57-7.86-23.13-4.67-26.42,11.9,6.06,23.1,2.84,26.48,2.84s4,1.49,3.21,3.19c-6.37,14.44.69,20.39.69,20.39s5.94-.21,9.13,0c-7-7.65-4-12.52-4-12.52,5.74-13.39,23.27-22.8,26.14-23.37,8.5-3.4,22.26,0,24.65,0,5.43,0,12.1-8.5,11.46-10S143.45,33.64,140.27,32.79ZM17.71,27.34c.61.72.14,1.85-1.36,2.7s-2.67.18-2.86-1,1.18-2.82,1.18-2.82S17,26.5,17.71,27.34Z"/><ellipse class="cls-2" cx="120" cy="26.9" rx="12" ry="11"/><circle class="cls-3" cx="123.5" cy="30.4" r="3.5"/></g></g></svg>