<svg xmlns="http://www.w3.org/2000/svg" viewBox="0 0 132.96 73.16"><defs><style>.cls-1{fill:#db6923;stroke-width:3px;}.cls-1,.cls-2,.cls-3{stroke:#084560;stroke-miterlimit:10;}.cls-2{fill:#fff;}.cls-3{fill:#08222e;}</style></defs><title>Asset 22</title><g id="Layer_2" data-name="Layer 2"><g id="Layer_1-2" data-name="Layer 1"><path class="cls-1" d="M129.59,21.89c-.66-.11-5.54,16.86-6.64,16.86s.82-6.76-.37-7.33c-1-.49-3.89,4.87-5,4.1-.82-.56-9.44-9-10.87-11.54s.55-2.86,1.54-2.75,5.06.66,5.28-5.5c.22-3.74-1.1-2.53-2.64-1.76s-6.6,5.28-7.48,5-7-16.84-15-17.38S71.61,6.6,66.32,9.24,41.13,6.38,31.45,6.71,9.77,19.71,13,36.2C13,36.2,8.84,47.93,2.37,53,5.62,55.77,14,40.25,15.17,40.51s3.64,8.76,7,11.05c1.25.94-4.2,5.88,0,13.21.81,2.15.94,2.69,0,3.09s-2.7,3.78-.81,3.78H40c1.27.09,2.26-3.65-3.46-4.31-1.65-.22-2.31-2.86-3.19-4.84A4.13,4.13,0,0,1,35,57c2.09-1.1,5.82,4.84,9,8.7-.66,2.3-2.64,6,0,6s15.84,0,15.84,0a1.52,1.52,0,0,0,.55-2.33c-1.1-1.43-5.28-1.65-6-4.07s-4.06-5.94-2.52-9.13,2.41-5.36,4.08-5.39,6.59-.11,7.69-.22,2.1-.55,2.32,1.87,1.21,8.36,3.3,11.77c.66,2.31,0,3-.88,4.18s-2.31,3.33.33,3.32,16.5,0,16.5,0,2-2.33,0-3.65-4.51-1.76-4.62-4.51S82.17,56,82.83,57s.65,6.49,3.18,7.58a5.42,5.42,0,0,1,3.06,5c0,1.32-.33,2.12,2.31,2s14.09,0,14.09,0,1.86-1.68,0-3-5.73-2.75-6.83-5-8.77-13.53-6.79-14.19,3.76,3.41,12.49,3.08c2.47.22,8.64,2.31,11.16,4.84s6.61,3.19,9.13-.44,6.93-14.42,6.83-24.87S130.25,22,129.59,21.89Z"/><circle class="cls-2" cx="100.37" cy="37.14" r="13.5"/><ellipse class="cls-3" cx="101.87" cy="31.14" rx="5" ry="4.5"/></g></g></svg>