<svg xmlns="http://www.w3.org/2000/svg" viewBox="0 0 136.39 58.1"><defs><style>.cls-1{fill:#a54330;stroke-width:3px;}.cls-1,.cls-2,.cls-3{stroke:#084560;stroke-miterlimit:10;}.cls-2{fill:#fff;}.cls-3{fill:#08222e;}</style></defs><title>Asset 12</title><g id="Layer_2" data-name="Layer 2"><g id="Layer_1-2" data-name="Layer 1"><path class="cls-1" d="M88.28,15C86.69,10.29,79.19,1.5,77,1.5S74,15.9,69.05,17.14C64.28,18.33,41,23.86,41,23.86s-3.83-3.12-5-2.9c-1,.19-1.46,4.56-4.47,4.79s-7,.05-7,.05c-7-14-21.63-14.72-21.63-14.72,7.52,11.19,14.76,18.57,4.49,34.11,7.11,0,16.2-10.8,16.86-13.17,2.52-.66,5.42-.64,7,1.19,1.18,1.38,1.22,2,2.14,2.28s1.94-2,3.52-2,9.24,2.43,11.2,3,4,7.5,6.45,7.77,8.17-4.61,9.48-4.61,11.07,1.45,21.87,1.05c1.84,2,4.21,6-.6,13.44-.93,1.45-.66,3.82,2.37,1.45s8.62-5.7,14.28-16c5.79-.53,35.93-7.87,35.93-13.27S104.74,14.51,88.28,15Z"/><ellipse class="cls-2" cx="108.74" cy="27.5" rx="10.5" ry="8.5"/><circle class="cls-3" cx="110.74" cy="27.5" r="3.5"/></g></g></svg>