<svg xmlns="http://www.w3.org/2000/svg" viewBox="0 0 122.27 60.06"><defs><style>.cls-1{fill:#db6923;stroke-width:3px;}.cls-1,.cls-2,.cls-3{stroke:#084560;stroke-miterlimit:10;}.cls-2{fill:#fff;}.cls-3{fill:#08222e;}</style></defs><title>Asset 16</title><g id="Layer_2" data-name="Layer 2"><g id="Layer_1-2" data-name="Layer 1"><path class="cls-1" d="M116.55,7.22A4.21,4.21,0,0,0,113.18,14l-6.09,10.45a11.16,11.16,0,0,0-2.11.15V15.33a4.41,4.41,0,0,0,2.35-3.89,4.22,4.22,0,1,0-5.79,3.89v10c-4.15,1.24-9.83,4-18.17,9.67,1-1.73,4.19-8-5.47-9.34a28.57,28.57,0,0,0-56.79,4.43,26.78,26.78,0,0,0,.15,2.85h0s-13,5.47-2.54,11.26c-4.53,2.27-13.23,8.57-13.23,8.57s-10.2,5.94,2,5.78H83.62c0,.12,7.93.16,15-10.19C106.44,36.89,117,35.88,117,31.09c0-3.56-3.13-5.45-6.39-6.23L116,15.61a4.75,4.75,0,0,0,.53.05,4.22,4.22,0,0,0,0-8.44Z"/><circle class="cls-2" cx="103.52" cy="33.5" r="5.5"/><circle class="cls-3" cx="104.52" cy="32.5" r="2.5"/></g></g></svg>