<svg xmlns="http://www.w3.org/2000/svg" viewBox="0 0 86.3 85.15"><defs><style>.cls-1{fill:#375560;stroke-width:3px;}.cls-1,.cls-2,.cls-3{stroke:#084560;stroke-miterlimit:10;}.cls-2{fill:#fff;}.cls-3{fill:#08222e;}</style></defs><title>Asset 17</title><g id="Layer_2" data-name="Layer 2"><g id="Layer_1-2" data-name="Layer 1"><path class="cls-1" d="M83.33,50c-2.49.41-3.64-4.71-8.23-4.54,0,0-4.06-7.84-4.8.7-2.72.62-7.42,3.34-12.25,2.85s-16.83-8.29-27.72-4.21c-1.26.35-2.58,0,0-2.44,5.65-5.31,13.75-6.1,13.74-20.08C44.05,6.06,28.35,1.5,20.93,1.5,13.24,1.5,1.48,4.2,1.5,14.89c0,9.31,5.91,11.36,5.91,11.36s-.34-8.79,6-8.79,6.68,4.46,6.44,5.94C18.7,31.81,8.92,41.71,9.42,50.75a18.61,18.61,0,0,0,5.69,13C17.38,65.79,17.32,76,17.34,77c.09,4.1,2.1,6.19,6.06,6.31s8.14.33,8.17-1.11-6.31-2.36-7.92-3.59-1-1.51.74-2.43a25,25,0,0,0,5.2-4.38c3.09,1.37,13,3.35,22.64-.37,1.24,3,7,10.59,8.29,11.59s8.54,1,8-1.12-3.33-1.31-4.69-4.4-4-9.85,6.74-18.26a11.52,11.52,0,0,1,5.91-2.07c2.52-.14,4-.12,6.1-2.47S85.93,49.63,83.33,50Z"/><ellipse class="cls-2" cx="73.71" cy="52.5" rx="6.5" ry="5.5"/><ellipse class="cls-3" cx="75.71" cy="51.5" rx="2.5" ry="3.5"/></g></g></svg>