<svg xmlns="http://www.w3.org/2000/svg" viewBox="0 0 79.06 81.85"><defs><style>.cls-1{fill:#375560;stroke-width:3px;}.cls-1,.cls-2,.cls-3{stroke:#084560;stroke-miterlimit:10;}.cls-2{fill:#fff;}.cls-3{fill:#08222e;}</style></defs><title>Asset 11</title><g id="Layer_2" data-name="Layer 2"><g id="Layer_1-2" data-name="Layer 1"><path class="cls-1" d="M8.51,61c6.83,8.11,12.42,5.06,13.61,6.69s1.92,3.11.17,5.18c-5,2.21-.77,4.74,4.27,1.92-2.52,4.59,1.92,3.7,3.74,3A110.56,110.56,0,0,0,48.82,67.75v8.8H46.45a1.81,1.81,0,0,0-2,1.86,1.92,1.92,0,0,0,2,1.94H58.63a1.92,1.92,0,0,0,2-1.94,1.81,1.81,0,0,0-2-1.86h-6V66.23c-.08,0-.08,0-.08,0,21.23-.81,24.06-14.82,24.09-22.3,0-7.7-2.21-22.95-3.44-28.08s4.37-4.64,4.37-5.38-4.11-4.28-5.15-5.15S69.66.76,65.64,1.63C56.76,4.09,59.31,11.14,61,16.06c3.93,9.63,4.21,14.06,2.64,14.1l-.35-.11C53.22,16.36,40.47,18.13,37.78,19s-2.05,1.76-3.88-1.92C19.64-5.5,19.91,5,18.56,7.92c-2.07-3.7-5.13.85-6.66,6.81-2.07-5.48-8,4.44-7.11,13.62-7.55-5.92-.3,19.74,3.72,24.87C6.16,51.89,4.06,55,8.51,61Z"/><ellipse class="cls-2" cx="67" cy="11.35" rx="6" ry="6.5"/><circle class="cls-3" cx="68" cy="11.85" r="3"/></g></g></svg>