<svg xmlns="http://www.w3.org/2000/svg" viewBox="0 0 124.78 70.74"><defs><style>.cls-1{fill:#375560;stroke-width:3px;}.cls-1,.cls-2,.cls-3{stroke:#084560;stroke-miterlimit:10;}.cls-2{fill:#fff;}.cls-3{fill:#08222e;}</style></defs><title>Asset 7</title><g id="Layer_2" data-name="Layer 2"><g id="Layer_1-2" data-name="Layer 1"><path class="cls-1" d="M112.87,1.51c-12.16.64-8.3,16.3-19.2,17.48,0-.93,0-1.86,0-2.81A1.32,1.32,0,0,0,92.5,14.8c-4.17-.09-10.4-1.2-17-2.37-7.76-1.38-15.79-2.8-21.62-2.8a21.38,21.38,0,0,0-4.23.35C38.53,12.18,30,24,21.76,35.36,15.15,44.49,8.92,53.11,2.48,54.64a1.37,1.37,0,0,0-1,1.41,1.33,1.33,0,0,0,1.08,1.31l6.69,1L2.74,69H13.85l4-9.18c2.88.48,5.48.94,7.84,1.34l5.69,1-2.66,7.12H39.76V63.39s5.78.54,8.67.54c1.44,0,2.89,0,4.45-.14a50.85,50.85,0,0,0,8-1.12V69h10l-1.5-9a38.15,38.15,0,0,0,10.38-6.53,37.39,37.39,0,0,0,3.51-3.61c5.67,8,5.42,19.36,5.42,19.36h11.53S92.45,48.3,88.11,42.73A46.86,46.86,0,0,0,92.2,31.15c9.14-3.46,18-13.48,22-15,4.12-1.57,9.11-.42,9.11-6C123.28,3.35,116.52,1.32,112.87,1.51Z"/><circle class="cls-2" cx="112.5" cy="9.24" r="5.5"/><circle class="cls-3" cx="111" cy="9.74" r="2"/></g></g></svg>