<svg xmlns="http://www.w3.org/2000/svg" viewBox="0 0 79.26 86.84"><defs><style>.cls-1{fill:#e8b210;stroke-width:3px;}.cls-1,.cls-2{stroke:#084560;}.cls-1,.cls-2,.cls-3{stroke-miterlimit:10;}.cls-2{fill:#fff;}.cls-3{fill:#08222e;stroke:#000;}</style></defs><title>Asset 21</title><g id="Layer_2" data-name="Layer 2"><g id="Layer_1-2" data-name="Layer 1"><path class="cls-1" d="M69,10.19a14.22,14.22,0,0,0-27.32,5.53,14,14,0,0,0,.23,2.41L14.79,57.32a1.81,1.81,0,0,0-.25.3c0,.05,0,.11-.07.15L1.79,76.11a1.63,1.63,0,0,0,.37,2.24,1.6,1.6,0,0,0,1,.31H22.72A1.61,1.61,0,0,0,24,78l3.24-4.67a30.22,30.22,0,0,0,9.44,3.4l3.94.46c.51,0,1,.06,1.54.06.86,0,1.72,0,2.57-.11l3.8,7.33a1.42,1.42,0,0,0,1.32.9h8.7a1.43,1.43,0,1,0,0-2.86h-7.5l-3-5.84a30.24,30.24,0,0,0,24.2-29.59A29.92,29.92,0,0,0,64.61,27,14.28,14.28,0,0,0,69,21.25l8.58-5.18a.43.43,0,0,0,.2-.35.42.42,0,0,0-.2-.35Z"/><circle class="cls-2" cx="56.5" cy="17.34" r="8.5"/><circle class="cls-3" cx="57" cy="15.84" r="4"/></g></g></svg>