<svg xmlns="http://www.w3.org/2000/svg" viewBox="0 0 117.21 75.87"><defs><style>.cls-1{fill:#375560;stroke-width:3px;}.cls-1,.cls-2,.cls-3{stroke:#084560;stroke-miterlimit:10;}.cls-2{fill:#fff;}.cls-3{fill:#08222e;}</style></defs><title>Asset 23</title><g id="Layer_2" data-name="Layer 2"><g id="Layer_1-2" data-name="Layer 1"><path class="cls-1" d="M94.55,11.21c1,.4,1.55-3.44,4.12-4.55,5.64-2.45,10.59,1.28,13.48-.2a5.71,5.71,0,0,0,2.92-4.12c.13-.86.7-1.54.63.5s.23,7.59-9.39,7.55c-3.8-.17-4.61.44-4.88,1.59-.49,2.1,1.32,3.15,2.52,3.65a6.05,6.05,0,0,1,4.14,5.7c.25,1.36,4.21,7.79,5.21,9s2.65,3.16.43,4.82a4.34,4.34,0,0,1-2,.85s-1.78,2.9-6.51-.7c-2.27.11-8.21-.65-11.68-2.7C93,32.36,90,31.72,83.16,39c-1.33,1.42-1.92,3.94-4.24,6.75s-4.77,2.53-5.22,3.46c-1.53,3.14-.65,6.75-1,8.25-.45,1.79-2.86,4.93-2.11,8s1.48,7.23,4.76,8.91l-8.6,0S64,69.36,65,65.1s-.57-14.63-1.45-15.87S57.79,48,49.45,47.38s-14-5.8-19-5.51c-1.33.08-4.05.91-7.68,6.82C21,52,17.72,52.93,17.4,56.08s-1.31,13.52,4.35,18c-5.63.1-8.29,0-8.29,0a34.5,34.5,0,0,1-1-12.23c.73-6.6-1.66-9.64-1.27-12.35s3.24-4.8,2.69-9.56S7,29,6.67,21.77A119,119,0,0,0,6,39.3C7.08,42.76,11,43.65,5.32,56c.08-3.27-4-5-3.82-9.27s2.3-5.12,2.37-7.4-.12-16.92-.12-16.92S4.06,16.15,8,13c3.76-3,9.26-4.48,18-4.32s11.92,4.57,17.61,3.89c5.38-.64,11.24-2.07,18.07-3.34S82.43,6.53,94.55,11.21Z"/><circle class="cls-2" cx="98.88" cy="22.27" r="8.5"/><ellipse class="cls-3" cx="95.38" cy="20.27" rx="3" ry="3.5"/></g></g></svg>