<svg xmlns="http://www.w3.org/2000/svg" viewBox="0 0 147.33 103.17"><defs><style>.cls-1{fill:#046384;stroke-width:3px;}.cls-1,.cls-2{stroke:#084560;}.cls-1,.cls-2,.cls-3{stroke-miterlimit:10;}.cls-2{fill:#fff;}.cls-3{fill:#08222e;stroke:#000;}</style></defs><title>Asset 26</title><g id="Layer_2" data-name="Layer 2"><g id="Layer_1-2" data-name="Layer 1"><path class="cls-1" d="M128.56,60c4.25-12.42-4.36-45.45-14.94-49.37S96.29,6.31,96.29,6.31s-28.6-15.44-35.39,9c0,0-18.54.69-34.14,18.15C11.35,36.85,1.33,54,1.5,58.22c1.37-.23,6.61-2.87,6.61-2.87,2.76-8.4,8.09-10,9.87-9.86l.45-.32C11.25,57.86,6,75.92,5.63,101.39H25.42a12.51,12.51,0,0,0-3-7.16c2.32-8.45,5.38-18.74,7.05-18.29s-1.27,25.72-1.27,25.73H48a12.44,12.44,0,0,0-3-7.4c.33-16,5.49-24.41,20.91-22,3.8.58-7.18,29.4-7.18,29.41H81.17S81,95.29,76,92.53c.1-3.09,1-12.07,3.49-12.25s10.57,21.38,10.57,21.39H108.5s-.18-8.72-8.17-10.18a73.59,73.59,0,0,1-2.84-8c-2-6.21-7.41-25.72-7.41-25.72a3.18,3.18,0,0,1,2.07-3.5c3.69-1.65,4.25-1.74,5.13,0s2.06,3.17,4,2.3,2.83-.33,3.92,1.09,8.18,8.83,8.18,8.83l.5.42a1.7,1.7,0,0,1,0,2.3c-1.2,1.74-1.85,2.4-3,2.51s-3.6-.66-2.4-1.85.44-2.18-.87-3.49-2.84-2.51-4,.21-6.11,13.63,6.32,13.19c4.9-.25,9-2.78,12.48-7.36,5.58,2.83,13,5,19.88,2.22-7.34-1.59-12.4-3-17.06-6.73A53.21,53.21,0,0,0,128.56,60Z"/><circle class="cls-2" cx="89" cy="32.17" r="16"/><ellipse class="cls-3" cx="86" cy="34.17" rx="7" ry="8"/></g></g></svg>