<svg xmlns="http://www.w3.org/2000/svg" viewBox="0 0 104.58 63.88"><defs><style>.cls-1{fill:#375560;stroke-width:3px;}.cls-1,.cls-2,.cls-3{stroke:#084560;stroke-miterlimit:10;}.cls-2{fill:#fff;}.cls-3{fill:#08222e;}</style></defs><title>Asset 13</title><g id="Layer_2" data-name="Layer 2"><g id="Layer_1-2" data-name="Layer 1"><path class="cls-1" d="M91.2,6.14c-1.77,0-2.08-1-2.62-2a5.32,5.32,0,0,0-5-2.68c-2.44.06-4.92,1-5.78,4.9-.78,4.44-18.35,8.36-28.53,9.5S30.4,18.1,14.82,35A20.25,20.25,0,0,0,3.94,38.86c-8.76,7.42,8.41,23.52,14.89,23.52H56.71s2.86-4.06-5.25-6c5.25-1,13.3-2.17,17.91-5.83,1.36-1,5.17,8,2.31,8.91s-2.55,2.93-.31,2.93H95s3.54-1.92-.54-3c-3.82-1-8.49.08-12.65-5.13s-7-8.31-5.42-10.1A103.74,103.74,0,0,0,90.58,24.37C94.15,17.31,104,14.19,103,10.77S99.46,6.22,91.2,6.14Z"/><circle class="cls-2" cx="86" cy="12.88" r="8"/><circle class="cls-3" cx="89" cy="12.88" r="3"/></g></g></svg>