<svg xmlns="http://www.w3.org/2000/svg" viewBox="0 0 178.49 60.28"><defs><style>.cls-1{fill:#046384;stroke-width:3px;}.cls-1,.cls-2{stroke:#084560;}.cls-1,.cls-2,.cls-3{stroke-miterlimit:10;}.cls-2{fill:#fff;}.cls-3{fill:#08222e;stroke:#000;}</style></defs><title>Asset 30</title><g id="Layer_2" data-name="Layer 2"><g id="Layer_1-2" data-name="Layer 1"><path class="cls-1" d="M120.15,54.94c-2.28-.2-2.6-1.73-1.08-2.06,7.6-.76,12.7-4.67,14.33-6.73,8.69-1.63,10.86-5.33,14.44-8,3.59-.86,11.62-.43,13.41-.86a62.56,62.56,0,0,0,7.55-2.83c1.95-.87,5.1-.54,6.41-1.2s2.28-1.37,1.52-2.24c-.95-1.08-6.52-.08-8.47.47-3.26,1.08-8.47-.72-12.81-.83s-9.34.65-9.78-.54,1.42-3.37,3.69-4.89A28,28,0,0,0,167,15.64c2.83-1.2,5.87-3.08,5.32-4.57-.87-2.38-5.42-.86-6.94.66-2,2.17-6.3,4.89-8.47,4.89s-7,2.06-8.91,2.27c-5.32-1.41-5.75.55-8.57,2.5s-4.89,2.39-5,4.13c-2.28-.33-7.38,1.08-9.77,3.15-8.58,2.06-12.27,4.88-12.27,4.88a151.33,151.33,0,0,0-35.94-1C55.55,34.47,44,39.63,32.21,40s-19-9.94-19.13-19.51C12.94,8.9,22,2.47,20.25,1.63,17.3,0,1.9,14.18,1.57,25.35-.49,55.65,41.11,55.05,43.5,54.83c.33,1.52,2.27,3.9,11.51,4s6.51-3,5.65-4.49c13.68,6.19,33.55,3,38.21,1.3a10.83,10.83,0,0,0,11.95,2.06c3.47,1.85,10.07.43,15.85.44S127.12,55.57,120.15,54.94Z"/><circle class="cls-2" cx="143.5" cy="24.19" r="5.5"/><circle class="cls-3" cx="145" cy="25.69" r="3"/></g></g></svg>