<svg xmlns="http://www.w3.org/2000/svg" viewBox="0 0 119.12 96.06"><defs><style>.cls-1{fill:#046384;stroke-width:3px;}.cls-1,.cls-2,.cls-3{stroke:#084560;stroke-miterlimit:10;}.cls-2{fill:#fff;}.cls-3{fill:#08222e;}</style></defs><title>Asset 19</title><g id="Layer_2" data-name="Layer 2"><g id="Layer_1-2" data-name="Layer 1"><path class="cls-1" d="M116.37,32.6c.14-2.78-.4-2.86-1.93-4.94.26-2.73-1.29-3.48-2.13-3.62s-1.54-2.84-.71-3.32,3.75-2.4-.71-6.59a10.05,10.05,0,0,1-3.06-6.59c0-2.57-.76-3.13-2.29-3.75S96.37-.72,92.49,3.3,83.12,15.69,82.23,16.08C78.57,17.67,72.35,17.7,68.62,20s-7,11.5-13.45,13-11.66-5.67-21.06-1.3-19.12,22-19.44,28-1.46,8.26-4.7,9.72S5.11,72.3,3.82,77.81.25,88,2.36,91.25s2.75,3.26,5,3.26H21.31a2.38,2.38,0,0,0,1.81-3.73c-1-1.53-5.62-2.85-2.5-6.11s10.45-8.52,12.15-11.18,2.08-2.29,3.61.56,5.42,9.72,6,17.91c.07,1.74-.48,2.55,2.43,2.55H58.74s2.85-2.69,1.18-4.63S56,87,56.1,83.28s-1.39-6.66,1-6.73,6.32-.77,7.57-1.81,2.22-1.32,2.57,2.16S68.67,84,67,85.15s-4.16,3.42-2.78,6.39,1.67,3,3.89,3h9.24s1.25.71,2.77-3.38,5.21-15.83,4.52-23.47c-.21-2.78,1.66-1.6,1.8-.35s.63,7.29.63,7.29a13.24,13.24,0,0,0,1.87,6.18c1.74,2.43,4.17,6.25,2,7.71s-2.5,2.22-2.5,3.47-.42,2.55,2.15,2.55h15.48s1.46-.19,2.92-3,2.71-3.61,1.53-12-1-15-5.14-21.81c-1.11-1.8-1.25-10.76-1.25-12.63s2-1.53,3.12-1.32,2.71.07,5.63-3.06S119.63,34.61,116.37,32.6Z"/><circle class="cls-2" cx="96.62" cy="24.51" r="11"/><circle class="cls-3" cx="100.12" cy="25.01" r="4.5"/></g></g></svg>