<svg xmlns="http://www.w3.org/2000/svg" viewBox="0 0 103.62 61.95"><defs><style>.cls-1{fill:#a00e0e;stroke-width:3px;}.cls-1,.cls-2,.cls-3{stroke:#084560;stroke-miterlimit:10;}.cls-2{fill:#fff;}.cls-3{fill:#08222e;}</style></defs><title>Asset 14</title><g id="Layer_2" data-name="Layer 2"><g id="Layer_1-2" data-name="Layer 1"><path class="cls-1" d="M76.11,9.77S66.32-9.4,62,10.64C56,13.73,46.2,9,34.56,9.82c-4,.28-33.05-.37-33.06,25.38,0,16.46,11,24.92,18,25.22,1.63.07,7.94,0,8.35,0,2.16-.1,4.5-.2,4.53-1.34.06-2.39-9.17-3.36-9.89-3.88s-.72-3.68,3.5-2.54c7.31,2.06,19.85.72,22.73-.1s4.78,3.43,6.42,5.7a5.35,5.35,0,0,0,4.23,2.16H70.31C72.47,60.4,71.75,58,67,57s-2.1-3.43,0-5.51c1.94-1.92,6.86-7,10.51-7.63,24.21-4.11,23.88-19,23.57-21.32C107.62,16.33,81.26,10.08,76.11,9.77Z"/><circle class="cls-2" cx="79" cy="24.4" r="9"/><ellipse class="cls-3" cx="81" cy="23.9" rx="3" ry="4.5"/></g></g></svg>