<svg xmlns="http://www.w3.org/2000/svg" viewBox="0 0 144.81 59.27"><defs><style>.cls-1{fill:#0993aa;stroke-width:3px;}.cls-1,.cls-2{stroke:#084560;}.cls-1,.cls-2,.cls-3{stroke-miterlimit:10;}.cls-2{fill:#fff;}.cls-3{fill:#08222e;stroke:#000;}</style></defs><title>Asset 28</title><g id="Layer_2" data-name="Layer 2"><g id="Layer_1-2" data-name="Layer 1"><path class="cls-1" d="M11,28.85c-.32-4.58,15.81-7.42,26.24-7.74s16,2.21,16,3.79-12.65,3.16-12.81,7.27,1.9,4.43,6,4.75,17.29,1.57,17.45-1.27-13.5-1.26-13.5-2.84,16-2.7,16.13-9c5.22,2.85,24.21,16.6,40,16.6,9.81.17,9.87-1.59,9.87-3s-1.81-3.63-10.67-3.48-14.09-3.63-13.77-5.06,8.06,0,13.28,0c15.42,0,38.1-6.62,38.1-19.27,0-4.57-7.9-7.93-18.18-8.08-10.59-.15-10.75,6.65-10.59,10s.47,6-1.27,6.16S99.82,1.51,65.21,1.5C24,1.5,1.34,11.62,1.5,28.22s80.63,28,80.63,28C68.53,50.36,11.3,33.43,11,28.85Z"/><ellipse class="cls-2" cx="125.65" cy="11" rx="7.5" ry="6"/><circle class="cls-3" cx="125.15" cy="12" r="3"/></g></g></svg>