<svg xmlns="http://www.w3.org/2000/svg" viewBox="0 0 91.68 125.96"><defs><style>.cls-1{fill:#e8b210;stroke-width:3px;}.cls-1,.cls-2,.cls-3{stroke:#084560;stroke-miterlimit:10;}.cls-2{fill:#fff;}.cls-3{fill:#08222e;}</style></defs><title>Asset 6</title><g id="Layer_2" data-name="Layer 2"><g id="Layer_1-2" data-name="Layer 1"><path class="cls-1" d="M80.47,71.16c-6-.51-4,5.84-10.37,5.19C58.53,75.16,54,68.37,38.56,68c-8.18-.22-15.72,5.28-18.36,4.79-3.73-.69-11-3.58-10.58-13s6-15.18,14.17-18,25-9.57,25-23.34-10.18-17-13-17-3.08,2.66.2,3.79,8.18,6.39,8.18,11.58S43.55,30.64,24,36,1.5,52.8,1.5,60.18,5.63,79.34,18,79.94c2.2-.2,2.7,1.82,2.2,3.39s-.8,9.41.6,13,0,3.59-2.8,5-13.77,7-13.77,7-2.39,2.19-.59,4.59,8,12.17,13.17,9.58c2.39-1.4-2.2-5.39-6.59-8.58-1-1-2-2.4,1.6-2.8s19.55-2.59,19.75-14.37c.07-2.26.4-1.79,2.4-.8s8.38,2.8,7.58,6-1,10.58-1,13.37c-1.4.8-2.4,4.59,3.59,6.39s13.77,3.46,13.57,1.23-7.59-3.22-11.38-5c-2.19-1-1.59-2.4.41-6.39s6.18-14,2.39-16.76c-1.6-.8-.4-2.2,2.79-1.6s4.39.8,2.8,3.19-2.6,5.59-1.2,10.39,4.19,14.16,4.19,14.16a3.55,3.55,0,0,0,3,3.11c2.8.48,8.39,1.28,8.19-1.71s-4.59-2.19-6.19-2-2.6-2.19-2.2-5.78.4-14.17,3-13.57.2,5,12.17,16.76c3.8,4.59,6.59,4.58,10.38,4.39s5-2.8-2.19-4c-4.19-.4-3.6-.2-5.59-4.59s-6-7.79-6-10.58,3.59-6.59,3.39-13c0-2.59,1.8-2.79,3.8-1.39s7.45.59,9.61-2.4.76-5-1.23-8C86.46,75.15,88.2,71.82,80.47,71.16Z"/><circle class="cls-2" cx="80.66" cy="80" r="5"/><circle class="cls-3" cx="78.66" cy="80" r="2"/></g></g></svg>