<svg xmlns="http://www.w3.org/2000/svg" viewBox="0 0 149.68 51.91"><defs><style>.cls-1{fill:#a54330;stroke-width:3px;}.cls-1,.cls-2{stroke:#084560;}.cls-1,.cls-2,.cls-3{stroke-miterlimit:10;}.cls-2{fill:#fff;}.cls-3{fill:#08222e;stroke:#000;}</style></defs><title>Asset 27</title><g id="Layer_2" data-name="Layer 2"><g id="Layer_1-2" data-name="Layer 1"><path class="cls-1" d="M139.75,5.17a16.19,16.19,0,0,0-6.7-3,19.63,19.63,0,0,0-15,2.53,110.16,110.16,0,0,1-9.83,5.37A10.64,10.64,0,0,1,97.47,9.4a66.72,66.72,0,0,0-9-5.1A31.26,31.26,0,0,0,70.21,2a39.12,39.12,0,0,0-17.35,7.5A23.84,23.84,0,0,0,45,19.21,23.34,23.34,0,0,0,43.53,32.6c0,.19,0,1.07-1.34.47-4.25-1.85-12.94-3.91-23.2-2.15-5.4.94-14.65,4-16.46,11.85,0,0,3.69-3.33,10.35-1.44,7.58,2.15,8.77,6.27,22.6,5.59,8-.39,12-3,13.09-6.34.86-2.1,16.27,9.4,19.44,9.65,0,0,11.52,1,11-1.75-.82-4.61-8.24-5-11.71-6.46s12.21-6.29,14.59-6.83c2.18-.49,13.34-2.46,17,1.77,2.47,2.81,5,6.51,13.86,11.42,1.63.9,7.42.77,7.44-1.42.06-1.42-2.47-2.42-3.88-2.45-1.24,0-2.2-.52-5.29-4.43-1.08-1.37-2.5-5.41-.27-6.09,8.86-2.93,10.94-4.83,12.85-7.63,2.36-3.46,5.74-5.44,9.39-7.3,2.92-1.49,8-1.26,9.9-1.31,2.14-.05,2.14-.57,2.23-2,0-.37,1.89-1.72,2.33-2.1.87-.74.9-1.1.1-1.91C147,11.1,141.74,6.79,139.75,5.17Z"/><ellipse class="cls-2" cx="127.53" cy="12.26" rx="7.5" ry="6.5"/><ellipse class="cls-3" cx="127.03" cy="8.26" rx="3" ry="2.5"/></g></g></svg>