<svg xmlns="http://www.w3.org/2000/svg" viewBox="0 0 113.46 66.44"><defs><style>.cls-1{fill:#0993aa;stroke:#084560;stroke-miterlimit:10;stroke-width:3px;}</style></defs><title>Asset 20</title><g id="Layer_2" data-name="Layer 2"><g id="Layer_1-2" data-name="Layer 1"><path class="cls-1" d="M28.3,15.85a27.54,27.54,0,0,1,9.22-1.43c.84,0,1.74,0,2.68.08C46.35,14.84,51,18.75,54,22.35a2.91,2.91,0,0,0,4.77.06c3.17-3.61,8-7.58,14.2-7.91.94-.05,1.84-.08,2.68-.08a27.59,27.59,0,0,1,9.22,1.43c.83.26,1.61.49,2.47.68,1.37.31,1.52-1.09.07-2.7a39,39,0,0,0-29-12.33A39.07,39.07,0,0,0,30.24,13.05,10.78,10.78,0,0,0,28,15.94Z"/><path class="cls-1" d="M109.7,18.29c-5.24,2.15-13.34,2.12-18.82,2-6.85-.19-7.32-3-17.64-2.44-6.83.37-12,5.87-14.66,9.55-1.28,1.76-2.92,1.73-4.16-.06-2.54-3.68-7.42-9.12-14.2-9.49-10.33-.56-10.79,2.26-17.65,2.44-5.47.15-13.57.18-18.82-2C1.74,17.47.9,18,2,19.84c2.08,3.68,6.77,9.41,17,13.37,0,0,.39.12,1.08.27s.19,1.76-.46,3.83A19,19,0,0,0,37.7,62a18.79,18.79,0,0,0,7.36-1.49c2-.85,3.09-2.51,2.67-3.27s.06-2.93,1.09-4.84l5.87-10.94c1-1.91,2.69-1.92,3.72,0L64.5,52.76c1,1.92,1.58,4,1.24,4.72s.82,2.29,2.83,3.12A19,19,0,0,0,94.79,43a19.07,19.07,0,0,0-.87-5.69c-.65-2.07-1.07-3.69-.46-3.82s1.08-.27,1.08-.27c10.19-4,14.88-9.69,16.95-13.37C112.56,18,111.71,17.47,109.7,18.29ZM39,44.75a3.18,3.18,0,1,1,3.17-3.17A3.17,3.17,0,0,1,39,44.75Zm33.65,0a3.18,3.18,0,1,1,3.17-3.17A3.17,3.17,0,0,1,72.64,44.75Z"/><path class="cls-1" d="M57.52,46c-.52-1-1.35-1-1.86,0l-3.85,7.17a4,4,0,0,0,0,3.45l4.26,7.6c.53,1,1.35.93,1.83,0l3.63-7.31a4.29,4.29,0,0,0-.06-3.49Z"/></g></g></svg>