<svg xmlns="http://www.w3.org/2000/svg" viewBox="0 0 56.92 82.14"><defs><style>.cls-1{fill:#a54330;stroke-width:3px;}.cls-1,.cls-2,.cls-3{stroke:#084560;stroke-miterlimit:10;}.cls-2{fill:#fff;}.cls-3{fill:#08222e;}</style></defs><title>Asset 18</title><g id="Layer_2" data-name="Layer 2"><g id="Layer_1-2" data-name="Layer 1"><path class="cls-1" d="M48.87,3.83c-1.12-1.57-4.55-2.33-7-2.33-7.09,0-16.58,9.88-19,44.69C20.61,75.56,6.56,76.32,6.56,76.32a62.24,62.24,0,0,0,20.62,4.31H28.6c5.82,0,24.22-.16,24.22-1.84,0-1.89-5.69-2.62-8.6-2.87,5.52-4.08,9.59-11.29,10.19-23.47.76-14.24-10.78-29.68-10.88-39.93.12-4.69,11.9-5.33,11.89-6.08C55.42,6,50.29,5.83,48.87,3.83Z"/><circle class="cls-2" cx="40.56" cy="7.64" r="4.5"/><circle class="cls-3" cx="40.56" cy="6.64" r="1.5"/></g></g></svg>