<svg xmlns="http://www.w3.org/2000/svg" viewBox="0 0 62.13 99.3"><defs><style>.cls-1{fill:#046384;stroke-width:3px;}.cls-1,.cls-2,.cls-3{stroke:#084560;stroke-miterlimit:10;}.cls-2{fill:#fff;}.cls-3{fill:#08222e;}</style></defs><title>Asset 10</title><g id="Layer_2" data-name="Layer 2"><g id="Layer_1-2" data-name="Layer 1"><path class="cls-1" d="M7.08,54.67C7,56,1.57,57.44,1.67,58.31s5.17,1.14,5.6,2-1.52,3.53-1.12,3.82,7.49-2.32,8.49-1.32-2.16,4.49-2.34,11.56c-.21,8.29,6.8,23.79,22.15,23.38s17.77-8.64,18-16.31c.15-4.75-2.72-8.76-8.79-8.83a9.69,9.69,0,0,0-9,5.64c-.41.95-.89,2.17.27,2.17s2.68-4.52,6.73-4.62c3.05-.07,4.75,3.47,4.82,5.71s-.95,8.83-8.77,8.83S27,83.6,26.7,77.2c-.13-2.92.48-8.76,10.27-13.59S53.8,57,53.91,47.16,38.78,30.44,36.33,28.73s-.8-4.42-.26-5.59,1.13-1.31,1.22-.69c.37,3.46,4.74,5.16,8.15,5.22a19.16,19.16,0,0,1,8.9,2.08c2.87,1.43,4.84.8,5.8,0s.48-2.35-1.33-3.52S48.26,17.6,48.27,12.7c0-6.14-5.86-6.56-7-7-.94-.35-.51-3.88-1.49-4.1s-2.58,1.83-3.58,1.82c-1.19,0-1.57-2.07-2.42-1.92s-2,2.74-2.95,2.91-2.68-1.88-3.56-1.54S26.87,6.66,26,7.34s-3.41.15-4,.84.61,3.23.12,4.29c-.89,2-3.14,1.78-3,2.73s4,1.53,4.1,4S17,23.4,17,33c0,7.27,6.76,9.59,6.74,13,0,.91-1.38,2.38-3.67,2.32s-2.81-5.8-3.76-6-3.09,2.52-5,2.78-5.77-2.35-6.65-1.55,3.5,4.08,3.11,5.21c-.45,1.29-6,1.91-6.27,2.93S7.12,53.67,7.08,54.67Z"/><ellipse class="cls-2" cx="39.5" cy="14.71" rx="7.5" ry="8"/><circle class="cls-3" cx="41.5" cy="16.21" r="3.5"/></g></g></svg>