<svg xmlns="http://www.w3.org/2000/svg" viewBox="0 0 112.03 77.75"><defs><style>.cls-1{fill:#db6923;}.cls-1,.cls-2,.cls-3{stroke:#084560;stroke-miterlimit:10;stroke-width:3px;}.cls-2{fill:#fff;}.cls-3{fill:#08222e;}</style></defs><title>Asset 15</title><g id="Layer_2" data-name="Layer 2"><g id="Layer_1-2" data-name="Layer 1"><path class="cls-1" d="M93.23,32.07a357,357,0,0,0-48.36,5.19c-18.67,3.22-22.68-2-24.49-7.79-2-6.57.08-9.88.08-9.88,12.09-2,13.14-9.66,12.84-14a6.69,6.69,0,0,1-4.59,2.57c-1.1,0-4.47-3.4-9.91,2.12.3-3-1.14-5-4.82-6.05s-6.66,4-12.4-1c-1.21,16,11.48,16.46,11.48,16.46C7.89,48,29.41,62.49,29.78,64.22s-5.81,3.46-4.7,5.2,8.66,1.36,13.11.49c21.64,5.69,26.33,6.8,52.19,6.19,20.81-.5,20.58-18.81,20-25.25C109.13,38.18,106,31.7,93.23,32.07Z"/><ellipse class="cls-2" cx="84.37" cy="56.63" rx="15.5" ry="14"/><circle class="cls-3" cx="91.37" cy="61.13" r="4.5"/></g></g></svg>