<svg id="Layer_1" data-name="Layer 1" xmlns="http://www.w3.org/2000/svg" xmlns:xlink="http://www.w3.org/1999/xlink" viewBox="0 0 751 1335"><defs><style>.cls-1{stroke:#000;fill:url(#linear-gradient);}.cls-1,.cls-13,.cls-15{stroke-miterlimit:10;}.cls-2{fill:#1d4d5e;}.cls-3{fill:#3f7c8c;}.cls-4{fill:#6fadbc;}.cls-5{fill:#9edbe5;}.cls-6{fill:#3f97a0;}.cls-7{fill:#15494c;}.cls-8{fill:#0b3030;}.cls-9{fill:#2c6275;}.cls-10{fill:#153a44;}.cls-11{fill:#0d2930;}.cls-12{fill:#62aebf;}.cls-13{fill:#08222e;}.cls-13,.cls-15{stroke:#306e84;}.cls-14{fill:#306e84;}.cls-15{fill:none;}.cls-16{fill:#7ab2c1;}</style><linearGradient id="linear-gradient" x1="379.54" y1="1410.81" x2="375.46" y2="660.82" gradientUnits="userSpaceOnUse"><stop offset="0" stop-color="#fff"/><stop offset="0.05" stop-color="#e5e7e9"/><stop offset="0.15" stop-color="#b1babd"/><stop offset="0.25" stop-color="#849197"/><stop offset="0.36" stop-color="#5e6f77"/><stop offset="0.47" stop-color="#3f535c"/><stop offset="0.59" stop-color="#273d48"/><stop offset="0.71" stop-color="#152e39"/><stop offset="0.84" stop-color="#0b2531"/><stop offset="1" stop-color="#08222e"/></linearGradient></defs><title>hotdog-bkgrd</title><rect class="cls-1" x="0.5" y="0.5" width="750" height="1334"/><path class="cls-2" d="M322.75,940.47a1.5,1.5,0,0,0,0-3,1.5,1.5,0,0,0,0,3Z" transform="translate(1 0)"/><path class="cls-2" d="M386.69,874.89a1.5,1.5,0,0,0,0-3,1.5,1.5,0,0,0,0,3Z" transform="translate(1 0)"/><path class="cls-2" d="M488.33,888a1.5,1.5,0,0,0,0-3,1.5,1.5,0,0,0,0,3Z" transform="translate(1 0)"/><path class="cls-2" d="M488.33,889.65a1.5,1.5,0,0,0,0-3,1.5,1.5,0,0,0,0,3Z" transform="translate(1 0)"/><path class="cls-2" d="M508,853.58a1.5,1.5,0,0,0,0-3,1.5,1.5,0,0,0,0,3Z" transform="translate(1 0)"/><path class="cls-2" d="M590,814.24a1.5,1.5,0,0,0,0-3,1.5,1.5,0,0,0,0,3Z" transform="translate(1 0)"/><path class="cls-2" d="M609.64,748.66a1.5,1.5,0,0,0,0-3,1.5,1.5,0,0,0,0,3Z" transform="translate(1 0)"/><path class="cls-2" d="M696.52,756.86a1.5,1.5,0,0,0,0-3,1.5,1.5,0,0,0,0,3Z" transform="translate(1 0)"/><path class="cls-2" d="M686.69,691.29a1.5,1.5,0,0,0,0-3,1.5,1.5,0,0,0,0,3Z" transform="translate(1 0)"/><path class="cls-2" d="M286.69,584.73a1.5,1.5,0,0,0,0-3,1.5,1.5,0,0,0,0,3Z" transform="translate(1 0)"/><path class="cls-2" d="M396.52,592.93a1.5,1.5,0,0,0,0-3,1.5,1.5,0,0,0,0,3Z" transform="translate(1 0)"/><path class="cls-2" d="M386.69,535.55a1.5,1.5,0,0,0,0-3,1.5,1.5,0,0,0,0,3Z" transform="translate(1 0)"/><path class="cls-2" d="M381.77,361.78a1.5,1.5,0,0,0,0-3,1.5,1.5,0,0,0,0,3Z" transform="translate(1 0)"/><path class="cls-2" d="M473.57,397.84a1.5,1.5,0,0,0,0-3,1.5,1.5,0,0,0,0,3Z" transform="translate(1 0)"/><path class="cls-2" d="M524.39,445.39a1.5,1.5,0,0,0,0-3,1.5,1.5,0,0,0,0,3Z" transform="translate(1 0)"/><path class="cls-2" d="M553.9,378.17a1.5,1.5,0,0,0,0-3,1.5,1.5,0,0,0,0,3Z" transform="translate(1 0)"/><path class="cls-2" d="M532.59,368.34a1.5,1.5,0,0,0,0-3,1.5,1.5,0,0,0,0,3Z" transform="translate(1 0)"/><path class="cls-2" d="M532.59,338.83a1.5,1.5,0,0,0,0-3,1.5,1.5,0,0,0,0,3Z" transform="translate(1 0)"/><path class="cls-2" d="M562.1,256.86a1.5,1.5,0,0,0,0-3,1.5,1.5,0,0,0,0,3Z" transform="translate(1 0)"/><path class="cls-2" d="M385.05,722.43a1.5,1.5,0,0,0,0-3,1.5,1.5,0,0,0,0,3Z" transform="translate(1 0)"/><path class="cls-2" d="M145.7,224.07a1.5,1.5,0,0,0,0-3,1.5,1.5,0,0,0,0,3Z" transform="translate(1 0)"/><path class="cls-2" d="M57.18,99.48a1.5,1.5,0,0,0,0-3,1.5,1.5,0,0,0,0,3Z" transform="translate(1 0)"/><path class="cls-2" d="M258.82,45.39a1.5,1.5,0,0,0,0-3,1.5,1.5,0,0,0,0,3Z" transform="translate(1 0)"/><path class="cls-2" d="M301.44,30.63a1.5,1.5,0,0,0,0-3,1.5,1.5,0,0,0,0,3Z" transform="translate(1 0)"/><path class="cls-2" d="M498.16,125.71a1.5,1.5,0,0,0,0-3,1.5,1.5,0,0,0,0,3Z" transform="translate(1 0)"/><path class="cls-2" d="M486.69,306a1.5,1.5,0,0,0,0-3,1.5,1.5,0,0,0,0,3Z" transform="translate(1 0)"/><path class="cls-2" d="M709.64,35.55a1.5,1.5,0,0,0,0-3,1.5,1.5,0,0,0,0,3Z" transform="translate(1 0)"/><path class="cls-2" d="M673.57,27.35a1.5,1.5,0,0,0,0-3,1.5,1.5,0,0,0,0,3Z" transform="translate(1 0)"/><path class="cls-2" d="M221.11,666.7a1.5,1.5,0,0,0,0-3,1.5,1.5,0,0,0,0,3Z" transform="translate(1 0)"/><path class="cls-2" d="M114.56,692.93a1.5,1.5,0,0,0,0-3,1.5,1.5,0,0,0,0,3Z" transform="translate(1 0)"/><path class="cls-2" d="M75.21,535.55a1.5,1.5,0,0,0,0-3,1.5,1.5,0,0,0,0,3Z" transform="translate(1 0)"/><path class="cls-2" d="M45.7,891.29a1.5,1.5,0,0,0,0-3,1.5,1.5,0,0,0,0,3Z" transform="translate(1 0)"/><path class="cls-2" d="M345.7,520.8a1.5,1.5,0,0,0,0-3,1.5,1.5,0,0,0,0,3Z" transform="translate(1 0)"/><path class="cls-2" d="M516.2,545.39a1.5,1.5,0,0,0,0-3,1.5,1.5,0,0,0,0,3Z" transform="translate(1 0)"/><path class="cls-2" d="M463.74,440.47a1.5,1.5,0,0,0,0-3,1.5,1.5,0,0,0,0,3Z" transform="translate(1 0)"/><path class="cls-2" d="M634.23,348.66a1.5,1.5,0,0,0,0-3,1.5,1.5,0,0,0,0,3Z" transform="translate(1 0)"/><path class="cls-2" d="M634.23,151.94a1.5,1.5,0,0,0,0-3,1.5,1.5,0,0,0,0,3Z" transform="translate(1 0)"/><path class="cls-3" d="M371.93,619.16a1.5,1.5,0,0,0,0-3,1.5,1.5,0,0,0,0,3Z" transform="translate(1 0)"/><path class="cls-3" d="M522.75,625.71a1.5,1.5,0,0,0,0-3,1.5,1.5,0,0,0,0,3Z" transform="translate(1 0)"/><path class="cls-3" d="M631,745.39a1.5,1.5,0,0,0,0-3,1.5,1.5,0,0,0,0,3Z" transform="translate(1 0)"/><path class="cls-3" d="M668.66,302.76a1.5,1.5,0,0,0,0-3,1.5,1.5,0,0,0,0,3Z" transform="translate(1 0)"/><path class="cls-3" d="M104.72,66.7a1.5,1.5,0,0,0,0-3,1.5,1.5,0,0,0,0,3Z" transform="translate(1 0)"/><path class="cls-3" d="M27.67,48.66a1.5,1.5,0,0,0,0-3,1.5,1.5,0,0,0,0,3Z" transform="translate(1 0)"/><path class="cls-3" d="M68.66,511a1.5,1.5,0,0,0,0-3,1.5,1.5,0,0,0,0,3Z" transform="translate(1 0)"/><path class="cls-3" d="M40.79,712.6a1.5,1.5,0,0,0,0-3,1.5,1.5,0,0,0,0,3Z" transform="translate(1 0)"/><path class="cls-3" d="M358.82,624.07a1.5,1.5,0,0,0,0-3,1.5,1.5,0,0,0,0,3Z" transform="translate(1 0)"/><path class="cls-3" d="M481.77,358.5a1.5,1.5,0,0,0,0-3,1.5,1.5,0,0,0,0,3Z" transform="translate(1 0)"/><path class="cls-3" d="M388.33,696.2a1.5,1.5,0,0,0,0-3,1.5,1.5,0,0,0,0,3Z" transform="translate(1 0)"/><path class="cls-3" d="M453.9,286.37a1.5,1.5,0,0,0,0-3,1.5,1.5,0,0,0,0,3Z" transform="translate(1 0)"/><path class="cls-3" d="M252.26,817.52a1.5,1.5,0,0,0,0-3,1.5,1.5,0,0,0,0,3Z" transform="translate(1 0)"/><path class="cls-3" d="M647.34,912.6a1.5,1.5,0,0,0,0-3,1.5,1.5,0,0,0,0,3Z" transform="translate(1 0)"/><path class="cls-3" d="M570.3,206a1.5,1.5,0,0,0,0-3,1.5,1.5,0,0,0,0,3Z" transform="translate(1 0)"/><path class="cls-3" d="M576.85,24.07a1.5,1.5,0,0,0,0-3,1.5,1.5,0,0,0,0,3Z" transform="translate(1 0)"/><path class="cls-4" d="M273.06,411.06l1-1a1.53,1.53,0,0,0,0-2.12,1.51,1.51,0,0,0-2.12,0l-1,1a1.53,1.53,0,0,0,0,2.12,1.51,1.51,0,0,0,2.12,0Z" transform="translate(1 0)"/><path class="cls-4" d="M271.67,410.83a1.5,1.5,0,0,0,0-3,1.5,1.5,0,0,0,0,3Z" transform="translate(1 0)"/><path class="cls-4" d="M273,410.17a1.5,1.5,0,0,0,0-3,1.5,1.5,0,0,0,0,3Z" transform="translate(1 0)"/><path class="cls-4" d="M273,410.83a1.5,1.5,0,0,0,0-3,1.5,1.5,0,0,0,0,3Z" transform="translate(1 0)"/><path class="cls-4" d="M272.33,410.5a1.5,1.5,0,0,0,0-3,1.5,1.5,0,0,0,0,3Z" transform="translate(1 0)"/><path class="cls-4" d="M272.67,411.17a1.5,1.5,0,0,0,0-3,1.5,1.5,0,0,0,0,3Z" transform="translate(1 0)"/><path class="cls-4" d="M382,508.5a1.5,1.5,0,0,0,0-3,1.5,1.5,0,0,0,0,3Z" transform="translate(1 0)"/><path class="cls-4" d="M384,506l-2-.06,1.45,1.11c-.07-.25-.08,0,0-.28,0,.21.1-.28.1-.27l-2.21.9a1.23,1.23,0,0,1,.25.14c-.17-.12,0,0,.07.1s-.08-.16,0,0-.09-.33.05.1a1.53,1.53,0,0,0,1.44,1.1,1.51,1.51,0,0,0,1.45-1.1,3.75,3.75,0,0,0-.33-2.42c-.66-1.38-2.82-.67-2.8.75l0,1.39a1.5,1.5,0,0,0,3,0l0-1.39-2.79.76c-.09-.18,0,.21,0,.06s0,.29,0,.05h2.89a3.68,3.68,0,0,0-1.75-2.17,1.53,1.53,0,0,0-2.21.89,3.55,3.55,0,0,0-.06,2.14,1.53,1.53,0,0,0,1.45,1.1l2,.06a1.51,1.51,0,0,0,1.5-1.5A1.53,1.53,0,0,0,384,506Z" transform="translate(1 0)"/><path class="cls-4" d="M384,507.83a1.5,1.5,0,0,0,0-3,1.5,1.5,0,0,0,0,3Z" transform="translate(1 0)"/><path class="cls-4" d="M383.33,507.5a1.5,1.5,0,0,0,0-3,1.5,1.5,0,0,0,0,3Z" transform="translate(1 0)"/><path class="cls-4" d="M371,370.5a1.5,1.5,0,0,0,0-3,1.5,1.5,0,0,0,0,3Z" transform="translate(1 0)"/><path class="cls-4" d="M371,371.17a1.5,1.5,0,0,0,0-3,1.5,1.5,0,0,0,0,3Z" transform="translate(1 0)"/><path class="cls-4" d="M372.41,370.75l.35-.32a1.51,1.51,0,0,0,0-2.12,1.53,1.53,0,0,0-2.12,0l-.35.32a1.5,1.5,0,0,0,2.12,2.12Z" transform="translate(1 0)"/><path class="cls-4" d="M371.33,370.5a1.5,1.5,0,0,0,0-3,1.5,1.5,0,0,0,0,3Z" transform="translate(1 0)"/><path class="cls-5" d="M371.33,370.17a1.5,1.5,0,0,0,0-3,1.5,1.5,0,0,0,0,3Z" transform="translate(1 0)"/><path class="cls-5" d="M370.67,370.83a1.5,1.5,0,0,0,0-3,1.5,1.5,0,0,0,0,3Z" transform="translate(1 0)"/><path class="cls-5" d="M371.33,371.5a1.5,1.5,0,0,0,0-3,1.5,1.5,0,0,0,0,3Z" transform="translate(1 0)"/><path class="cls-5" d="M371.67,370.83a1.5,1.5,0,0,0,0-3,1.5,1.5,0,0,0,0,3Z" transform="translate(1 0)"/><path class="cls-5" d="M372.33,371.17a1.5,1.5,0,0,0,0-3,1.5,1.5,0,0,0,0,3Z" transform="translate(1 0)"/><path class="cls-5" d="M372.67,370.17a1.5,1.5,0,0,0,0-3,1.5,1.5,0,0,0,0,3Z" transform="translate(1 0)"/><path class="cls-5" d="M564,513.5a1.5,1.5,0,0,0,0-3,1.5,1.5,0,0,0,0,3Z" transform="translate(1 0)"/><path class="cls-5" d="M673.06,151.06l1.24-1.24a1.5,1.5,0,0,0-2.12-2.12l-1.24,1.24a1.5,1.5,0,0,0,2.12,2.12l1.24-1.24a1.5,1.5,0,0,0-2.12-2.12l-1.24,1.24a1.5,1.5,0,0,0,2.12,2.12Z" transform="translate(1 0)"/><path class="cls-5" d="M102,237.5a1.5,1.5,0,0,0,0-3,1.5,1.5,0,0,0,0,3Z" transform="translate(1 0)"/><path class="cls-5" d="M104.35,236.35l.63-.69a1.55,1.55,0,0,0,0-2.13,1.52,1.52,0,0,0-2.12,0l-.63.7a1.54,1.54,0,0,0,0,2.12,1.5,1.5,0,0,0,2.12,0Z" transform="translate(1 0)"/><path class="cls-5" d="M102,235.83a1.5,1.5,0,0,0,0-3,1.5,1.5,0,0,0,0,3Z" transform="translate(1 0)"/><path class="cls-5" d="M102.67,235.83a1.5,1.5,0,0,0,0-3,1.5,1.5,0,0,0,0,3Z" transform="translate(1 0)"/><path class="cls-5" d="M101.67,236.83a1.5,1.5,0,0,0,0-3,1.5,1.5,0,0,0,0,3Z" transform="translate(1 0)"/><path class="cls-5" d="M103.33,237.5a1.5,1.5,0,0,0,0-3,1.5,1.5,0,0,0,0,3Z" transform="translate(1 0)"/><path class="cls-5" d="M103.33,235.5a1.5,1.5,0,0,0,0-3,1.5,1.5,0,0,0,0,3Z" transform="translate(1 0)"/><path class="cls-5" d="M103.67,236.83a1.5,1.5,0,0,0,0-3,1.5,1.5,0,0,0,0,3Z" transform="translate(1 0)"/><path class="cls-5" d="M297.68,146.93a1.72,1.72,0,0,0-.58,3.29,1.8,1.8,0,0,0,2.12-.63,1.94,1.94,0,0,0,.19-2.26,2.37,2.37,0,0,0-1.57-1.1,1.83,1.83,0,0,0-2.06,1,2,2,0,0,0,.33,2.47,2.27,2.27,0,0,0,2.16.35l-1.69-2.2a.89.89,0,0,1,.71-.4c-.29,0,.3.09,0,0,.21.1.24.11.1,0a.78.78,0,0,1,.28.29.89.89,0,0,1,0,.75.76.76,0,0,1-.4.45c.13-.07.09-.06-.13,0s-.3,0-.13,0l-.18,0c.32.07-.14-.09-.22-.18.11.11.08.08-.08-.11-.1-.55-.14-.69-.14-.42a1.51,1.51,0,0,0,1.5,1.5,1.53,1.53,0,0,0,1.5-1.5c0-2.46-3.87-3.17-4.56-.73s3,4,4.28,1.78c.61-1-.43-2.67-1.7-2.2-.36.13.21,0,.31.06l.74,1.3c0-.29,0,.09-.15.2l-1.06.44a.67.67,0,0,1-.54-.44v-.8a.78.78,0,0,1,.58-.53h.8l.22.1.54.54a2.52,2.52,0,0,1,.13.47l-.21.76,0-.05-.54.53.05,0-.76.21h.07a1.5,1.5,0,0,0,0-3Z" transform="translate(1 0)"/><path class="cls-5" d="M172.6,790.08a1.5,1.5,0,0,0,0-3,1.5,1.5,0,0,0,0,3Z" transform="translate(1 0)"/><path class="cls-5" d="M196.6,841.08a1.5,1.5,0,0,0,0-3,1.5,1.5,0,0,0,0,3Z" transform="translate(1 0)"/><path class="cls-5" d="M463.59,856.08a1.5,1.5,0,0,0,0-3,1.5,1.5,0,0,0,0,3Z" transform="translate(1 0)"/><path class="cls-5" d="M679.58,772.09a1.5,1.5,0,0,0,0-3,1.5,1.5,0,0,0,0,3Z" transform="translate(1 0)"/><path class="cls-5" d="M421.59,412.1a1.5,1.5,0,0,0,0-3,1.5,1.5,0,0,0,0,3Z" transform="translate(1 0)"/><path class="cls-5" d="M472.59,406.1a1.5,1.5,0,0,0,0-3,1.5,1.5,0,0,0,0,3Z" transform="translate(1 0)"/><path class="cls-5" d="M478.59,331.11a1.5,1.5,0,0,0,0-3,1.5,1.5,0,0,0,0,3Z" transform="translate(1 0)"/><path class="cls-5" d="M561.08,293.61a1.5,1.5,0,0,0,0-3,1.5,1.5,0,0,0,0,3Z" transform="translate(1 0)"/><path class="cls-5" d="M544.58,245.61a1.5,1.5,0,0,0,0-3,1.5,1.5,0,0,0,0,3Z" transform="translate(1 0)"/><path class="cls-5" d="M613.58,188.61a1.5,1.5,0,0,0,0-3,1.5,1.5,0,0,0,0,3Z" transform="translate(1 0)"/><path class="cls-5" d="M690.07,40.12a1.5,1.5,0,0,0,0-3,1.5,1.5,0,0,0,0,3Z" transform="translate(1 0)"/><path class="cls-5" d="M622.58,196.11a1.5,1.5,0,0,0,0-3,1.5,1.5,0,0,0,0,3Z" transform="translate(1 0)"/><path class="cls-6" d="M184.6,524.6a1.5,1.5,0,0,0,0-3,1.5,1.5,0,0,0,0,3Z" transform="translate(1 0)"/><path class="cls-6" d="M328.59,511.1a1.5,1.5,0,0,0,0-3,1.5,1.5,0,0,0,0,3Z" transform="translate(1 0)"/><path class="cls-6" d="M429.09,406.1a1.5,1.5,0,0,0,0-3,1.5,1.5,0,0,0,0,3Z" transform="translate(1 0)"/><path class="cls-6" d="M447.09,425.6a1.5,1.5,0,0,0,0-3,1.5,1.5,0,0,0,0,3Z" transform="translate(1 0)"/><path class="cls-6" d="M435.09,253.11a1.5,1.5,0,0,0,0-3,1.5,1.5,0,0,0,0,3Z" transform="translate(1 0)"/><path class="cls-6" d="M508.58,284.61a1.5,1.5,0,0,0,0-3,1.5,1.5,0,0,0,0,3Z" transform="translate(1 0)"/><path class="cls-6" d="M507.08,250.11a1.5,1.5,0,0,0,0-3,1.5,1.5,0,0,0,0,3Z" transform="translate(1 0)"/><path class="cls-6" d="M534.08,271.11a1.5,1.5,0,0,0,0-3,1.5,1.5,0,0,0,0,3Z" transform="translate(1 0)"/><path class="cls-6" d="M618.08,256.11a1.5,1.5,0,0,0,0-3,1.5,1.5,0,0,0,0,3Z" transform="translate(1 0)"/><path class="cls-6" d="M556.58,139.12a1.5,1.5,0,0,0,0-3,1.5,1.5,0,0,0,0,3Z" transform="translate(1 0)"/><path class="cls-6" d="M108.1,119.62a1.5,1.5,0,0,0,0-3,1.5,1.5,0,0,0,0,3Z" transform="translate(1 0)"/><path class="cls-6" d="M70.61,47.62a1.5,1.5,0,0,0,0-3,1.5,1.5,0,0,0,0,3Z" transform="translate(1 0)"/><path class="cls-6" d="M114.1,620.59a1.5,1.5,0,0,0,0-3,1.5,1.5,0,0,0,0,3Z" transform="translate(1 0)"/><path class="cls-6" d="M532.58,397.1a1.5,1.5,0,0,0,0-3,1.5,1.5,0,0,0,0,3Z" transform="translate(1 0)"/><path class="cls-7" d="M475.59,469.1a1.5,1.5,0,0,0,0-3,1.5,1.5,0,0,0,0,3Z" transform="translate(1 0)"/><path class="cls-7" d="M463.59,463.1a1.5,1.5,0,0,0,0-3,1.5,1.5,0,0,0,0,3Z" transform="translate(1 0)"/><path class="cls-7" d="M481.59,451.1a1.5,1.5,0,0,0,0-3,1.5,1.5,0,0,0,0,3Z" transform="translate(1 0)"/><path class="cls-7" d="M490.58,440.6a1.5,1.5,0,0,0,0-3,1.5,1.5,0,0,0,0,3Z" transform="translate(1 0)"/><path class="cls-7" d="M510.08,379.1a1.5,1.5,0,0,0,0-3,1.5,1.5,0,0,0,0,3Z" transform="translate(1 0)"/><path class="cls-7" d="M477.09,368.61a1.5,1.5,0,0,0,0-3,1.5,1.5,0,0,0,0,3Z" transform="translate(1 0)"/><path class="cls-7" d="M481.59,368.61a1.5,1.5,0,0,0,0-3,1.5,1.5,0,0,0,0,3Z" transform="translate(1 0)"/><path class="cls-7" d="M484.58,368.61a1.5,1.5,0,0,0,0-3,1.5,1.5,0,0,0,0,3Z" transform="translate(1 0)"/><path class="cls-7" d="M492.08,329.61a1.5,1.5,0,0,0,0-3,1.5,1.5,0,0,0,0,3Z" transform="translate(1 0)"/><path class="cls-7" d="M526.58,272.61a1.5,1.5,0,0,0,0-3,1.5,1.5,0,0,0,0,3Z" transform="translate(1 0)"/><path class="cls-7" d="M492.08,286.11a1.5,1.5,0,0,0,0-3,1.5,1.5,0,0,0,0,3Z" transform="translate(1 0)"/><path class="cls-7" d="M471.09,301.11a1.5,1.5,0,0,0,0-3,1.5,1.5,0,0,0,0,3Z" transform="translate(1 0)"/><path class="cls-7" d="M576.08,214.11a1.5,1.5,0,0,0,0-3,1.5,1.5,0,0,0,0,3Z" transform="translate(1 0)"/><path class="cls-7" d="M594.08,281.61a1.5,1.5,0,0,0,0-3,1.5,1.5,0,0,0,0,3Z" transform="translate(1 0)"/><path class="cls-7" d="M535.58,290.61a1.5,1.5,0,0,0,0-3,1.5,1.5,0,0,0,0,3Z" transform="translate(1 0)"/><path class="cls-7" d="M460.59,314.61a1.5,1.5,0,0,0,0-3,1.5,1.5,0,0,0,0,3Z" transform="translate(1 0)"/><path class="cls-7" d="M390.09,460.1a1.5,1.5,0,0,0,0-3,1.5,1.5,0,0,0,0,3Z" transform="translate(1 0)"/><path class="cls-7" d="M355.59,505.1a1.5,1.5,0,0,0,0-3,1.5,1.5,0,0,0,0,3Z" transform="translate(1 0)"/><path class="cls-7" d="M352.59,536.6a1.5,1.5,0,0,0,0-3,1.5,1.5,0,0,0,0,3Z" transform="translate(1 0)"/><path class="cls-7" d="M309.09,601.09a1.5,1.5,0,0,0,0-3,1.5,1.5,0,0,0,0,3Z" transform="translate(1 0)"/><path class="cls-7" d="M255.1,634.09a1.5,1.5,0,0,0,0-3,1.5,1.5,0,0,0,0,3Z" transform="translate(1 0)"/><path class="cls-7" d="M253.6,658.09a1.5,1.5,0,0,0,0-3,1.5,1.5,0,0,0,0,3Z" transform="translate(1 0)"/><path class="cls-7" d="M279.1,617.59a1.5,1.5,0,0,0,0-3,1.5,1.5,0,0,0,0,3Z" transform="translate(1 0)"/><path class="cls-7" d="M270.1,608.59a1.5,1.5,0,0,0,0-3,1.5,1.5,0,0,0,0,3Z" transform="translate(1 0)"/><path class="cls-7" d="M337.59,559.1a1.5,1.5,0,0,0,0-3,1.5,1.5,0,0,0,0,3Z" transform="translate(1 0)"/><path class="cls-7" d="M390.09,559.1a1.5,1.5,0,0,0,0-3,1.5,1.5,0,0,0,0,3Z" transform="translate(1 0)"/><path class="cls-7" d="M432.09,464.6a1.5,1.5,0,0,0,0-3,1.5,1.5,0,0,0,0,3Z" transform="translate(1 0)"/><path class="cls-7" d="M579.08,353.61a1.5,1.5,0,0,0,0-3,1.5,1.5,0,0,0,0,3Z" transform="translate(1 0)"/><path class="cls-7" d="M595.58,281.61a1.5,1.5,0,0,0,0-3,1.5,1.5,0,0,0,0,3Z" transform="translate(1 0)"/><path class="cls-7" d="M621.08,221.61a1.5,1.5,0,0,0,0-3,1.5,1.5,0,0,0,0,3Z" transform="translate(1 0)"/><path class="cls-7" d="M645.08,221.61a1.5,1.5,0,0,0,0-3,1.5,1.5,0,0,0,0,3Z" transform="translate(1 0)"/><path class="cls-7" d="M655.58,145.12a1.5,1.5,0,0,0,0-3,1.5,1.5,0,0,0,0,3Z" transform="translate(1 0)"/><path class="cls-7" d="M669.08,91.12a1.5,1.5,0,0,0,0-3,1.5,1.5,0,0,0,0,3Z" transform="translate(1 0)"/><path class="cls-8" d="M424.59,457.1a1.5,1.5,0,0,0,0-3,1.5,1.5,0,0,0,0,3Z" transform="translate(1 0)"/><path class="cls-8" d="M369.09,487.1a1.5,1.5,0,0,0,0-3,1.5,1.5,0,0,0,0,3Z" transform="translate(1 0)"/><path class="cls-8" d="M355.59,487.1a1.5,1.5,0,0,0,0-3,1.5,1.5,0,0,0,0,3Z" transform="translate(1 0)"/><path class="cls-8" d="M330.09,484.1a1.5,1.5,0,0,0,0-3,1.5,1.5,0,0,0,0,3Z" transform="translate(1 0)"/><path class="cls-8" d="M342.09,524.6a1.5,1.5,0,0,0,0-3,1.5,1.5,0,0,0,0,3Z" transform="translate(1 0)"/><path class="cls-8" d="M333.09,569.6a1.5,1.5,0,0,0,0-3,1.5,1.5,0,0,0,0,3Z" transform="translate(1 0)"/><path class="cls-8" d="M295.59,562.1a1.5,1.5,0,0,0,0-3,1.5,1.5,0,0,0,0,3Z" transform="translate(1 0)"/><path class="cls-8" d="M400.59,373.11a1.5,1.5,0,0,0,0-3,1.5,1.5,0,0,0,0,3Z" transform="translate(1 0)"/><path class="cls-8" d="M432.09,373.11a1.5,1.5,0,0,0,0-3,1.5,1.5,0,0,0,0,3Z" transform="translate(1 0)"/><path class="cls-8" d="M432.09,328.11a1.5,1.5,0,0,0,0-3,1.5,1.5,0,0,0,0,3Z" transform="translate(1 0)"/><path class="cls-8" d="M444.09,338.61a1.5,1.5,0,0,0,0-3,1.5,1.5,0,0,0,0,3Z" transform="translate(1 0)"/><path class="cls-8" d="M444.09,379.1a1.5,1.5,0,0,0,0-3,1.5,1.5,0,0,0,0,3Z" transform="translate(1 0)"/><path class="cls-8" d="M483.09,208.11a1.5,1.5,0,0,0,0-3,1.5,1.5,0,0,0,0,3Z" transform="translate(1 0)"/><path class="cls-8" d="M490.58,226.11a1.5,1.5,0,0,0,0-3,1.5,1.5,0,0,0,0,3Z" transform="translate(1 0)"/><path class="cls-8" d="M490.58,262.11a1.5,1.5,0,0,0,0-3,1.5,1.5,0,0,0,0,3Z" transform="translate(1 0)"/><path class="cls-8" d="M525.08,265.11a1.5,1.5,0,0,0,0-3,1.5,1.5,0,0,0,0,3Z" transform="translate(1 0)"/><path class="cls-8" d="M525.08,289.11a1.5,1.5,0,0,0,0-3,1.5,1.5,0,0,0,0,3Z" transform="translate(1 0)"/><path class="cls-8" d="M525.08,326.61a1.5,1.5,0,0,0,0-3,1.5,1.5,0,0,0,0,3Z" transform="translate(1 0)"/><path class="cls-8" d="M511.58,313.11a1.5,1.5,0,0,0,0-3,1.5,1.5,0,0,0,0,3Z" transform="translate(1 0)"/><path class="cls-8" d="M498.08,313.11a1.5,1.5,0,0,0,0-3,1.5,1.5,0,0,0,0,3Z" transform="translate(1 0)"/><path class="cls-8" d="M489.08,313.11a1.5,1.5,0,0,0,0-3,1.5,1.5,0,0,0,0,3Z" transform="translate(1 0)"/><path class="cls-8" d="M544.58,251.61a1.5,1.5,0,0,0,0-3,1.5,1.5,0,0,0,0,3Z" transform="translate(1 0)"/><path class="cls-8" d="M567.08,253.11a1.5,1.5,0,0,0,0-3,1.5,1.5,0,0,0,0,3Z" transform="translate(1 0)"/><path class="cls-8" d="M574.58,253.11a1.5,1.5,0,0,0,0-3,1.5,1.5,0,0,0,0,3Z" transform="translate(1 0)"/><path class="cls-8" d="M559.58,203.61a1.5,1.5,0,0,0,0-3,1.5,1.5,0,0,0,0,3Z" transform="translate(1 0)"/><path class="cls-8" d="M562.58,181.11a1.5,1.5,0,0,0,0-3,1.5,1.5,0,0,0,0,3Z" transform="translate(1 0)"/><path class="cls-8" d="M586.58,179.61a1.5,1.5,0,0,0,0-3,1.5,1.5,0,0,0,0,3Z" transform="translate(1 0)"/><path class="cls-8" d="M589.58,124.12a1.5,1.5,0,0,0,0-3,1.5,1.5,0,0,0,0,3Z" transform="translate(1 0)"/><path class="cls-8" d="M645.08,151.12a1.5,1.5,0,0,0,0-3,1.5,1.5,0,0,0,0,3Z" transform="translate(1 0)"/><path class="cls-8" d="M715.57,82.12a1.5,1.5,0,0,0,0-3,1.5,1.5,0,0,0,0,3Z" transform="translate(1 0)"/><path class="cls-8" d="M688.57,119.62a1.5,1.5,0,0,0,0-3,1.5,1.5,0,0,0,0,3Z" transform="translate(1 0)"/><path class="cls-8" d="M684.07,119.62a1.5,1.5,0,0,0,0-3,1.5,1.5,0,0,0,0,3Z" transform="translate(1 0)"/><path class="cls-8" d="M673.58,119.62a1.5,1.5,0,0,0,0-3,1.5,1.5,0,0,0,0,3Z" transform="translate(1 0)"/><path class="cls-8" d="M681.08,142.12a1.5,1.5,0,0,0,0-3,1.5,1.5,0,0,0,0,3Z" transform="translate(1 0)"/><path class="cls-8" d="M664.58,178.11a1.5,1.5,0,0,0,0-3,1.5,1.5,0,0,0,0,3Z" transform="translate(1 0)"/><path class="cls-8" d="M643.58,178.11a1.5,1.5,0,0,0,0-3,1.5,1.5,0,0,0,0,3Z" transform="translate(1 0)"/><path class="cls-8" d="M643.58,196.11a1.5,1.5,0,0,0,0-3,1.5,1.5,0,0,0,0,3Z" transform="translate(1 0)"/><path class="cls-8" d="M613.58,217.11a1.5,1.5,0,0,0,0-3,1.5,1.5,0,0,0,0,3Z" transform="translate(1 0)"/><path class="cls-8" d="M592.58,217.11a1.5,1.5,0,0,0,0-3,1.5,1.5,0,0,0,0,3Z" transform="translate(1 0)"/><path class="cls-8" d="M592.58,242.61a1.5,1.5,0,0,0,0-3,1.5,1.5,0,0,0,0,3Z" transform="translate(1 0)"/><path class="cls-8" d="M574.58,239.61a1.5,1.5,0,0,0,0-3,1.5,1.5,0,0,0,0,3Z" transform="translate(1 0)"/><path class="cls-8" d="M574.58,239.61a1.5,1.5,0,0,0,0-3,1.5,1.5,0,0,0,0,3Z" transform="translate(1 0)"/><path class="cls-9" d="M429.09,544.1a1.5,1.5,0,0,0,0-3,1.5,1.5,0,0,0,0,3Z" transform="translate(1 0)"/><path class="cls-9" d="M459.09,512.6a1.5,1.5,0,0,0,0-3,1.5,1.5,0,0,0,0,3Z" transform="translate(1 0)"/><path class="cls-9" d="M456.09,467.6a1.5,1.5,0,0,0,0-3,1.5,1.5,0,0,0,0,3Z" transform="translate(1 0)"/><path class="cls-9" d="M463.59,382.1a1.5,1.5,0,0,0,0-3,1.5,1.5,0,0,0,0,3Z" transform="translate(1 0)"/><path class="cls-9" d="M483.09,382.1a1.5,1.5,0,0,0,0-3,1.5,1.5,0,0,0,0,3Z" transform="translate(1 0)"/><path class="cls-9" d="M496.58,347.61a1.5,1.5,0,0,0,0-3,1.5,1.5,0,0,0,0,3Z" transform="translate(1 0)"/><path class="cls-9" d="M516.08,347.61a1.5,1.5,0,0,0,0-3,1.5,1.5,0,0,0,0,3Z" transform="translate(1 0)"/><path class="cls-9" d="M520.58,353.61a1.5,1.5,0,0,0,0-3,1.5,1.5,0,0,0,0,3Z" transform="translate(1 0)"/><path class="cls-10" d="M505.58,413.6a1.5,1.5,0,0,0,0-3,1.5,1.5,0,0,0,0,3Z" transform="translate(1 0)"/><path class="cls-10" d="M463.59,377.6a1.5,1.5,0,0,0,0-3,1.5,1.5,0,0,0,0,3Z" transform="translate(1 0)"/><path class="cls-10" d="M504.08,368.61a1.5,1.5,0,0,0,0-3,1.5,1.5,0,0,0,0,3Z" transform="translate(1 0)"/><path class="cls-10" d="M517.58,301.11a1.5,1.5,0,0,0,0-3,1.5,1.5,0,0,0,0,3Z" transform="translate(1 0)"/><path class="cls-10" d="M547.58,308.61a1.5,1.5,0,0,0,0-3,1.5,1.5,0,0,0,0,3Z" transform="translate(1 0)"/><path class="cls-10" d="M531.08,314.61a1.5,1.5,0,0,0,0-3,1.5,1.5,0,0,0,0,3Z" transform="translate(1 0)"/><path class="cls-10" d="M519.08,314.61a1.5,1.5,0,0,0,0-3,1.5,1.5,0,0,0,0,3Z" transform="translate(1 0)"/><path class="cls-10" d="M517.58,314.61a1.5,1.5,0,0,0,0-3,1.5,1.5,0,0,0,0,3Z" transform="translate(1 0)"/><path class="cls-10" d="M429.09,328.11a1.5,1.5,0,0,0,0-3,1.5,1.5,0,0,0,0,3Z" transform="translate(1 0)"/><path class="cls-10" d="M438.09,358.11a1.5,1.5,0,0,0,0-3,1.5,1.5,0,0,0,0,3Z" transform="translate(1 0)"/><path class="cls-10" d="M393.09,424.1a1.5,1.5,0,0,0,0-3,1.5,1.5,0,0,0,0,3Z" transform="translate(1 0)"/><path class="cls-10" d="M343.59,467.6a1.5,1.5,0,0,0,0-3,1.5,1.5,0,0,0,0,3Z" transform="translate(1 0)"/><path class="cls-10" d="M72.11,319.11a1.5,1.5,0,0,0,0-3,1.5,1.5,0,0,0,0,3Z" transform="translate(1 0)"/><path class="cls-10" d="M57.11,97.12a1.5,1.5,0,0,0,0-3,1.5,1.5,0,0,0,0,3Z" transform="translate(1 0)"/><path class="cls-10" d="M90.1,101.62a1.5,1.5,0,0,0,0-3,1.5,1.5,0,0,0,0,3Z" transform="translate(1 0)"/><path class="cls-10" d="M87.1,82.12a1.5,1.5,0,0,0,0-3,1.5,1.5,0,0,0,0,3Z" transform="translate(1 0)"/><path class="cls-10" d="M45.11,62.62a1.5,1.5,0,0,0,0-3,1.5,1.5,0,0,0,0,3Z" transform="translate(1 0)"/><path class="cls-10" d="M109.6,53.62a1.5,1.5,0,0,0,0-3,1.5,1.5,0,0,0,0,3Z" transform="translate(1 0)"/><path class="cls-10" d="M103.6,40.12a1.5,1.5,0,0,0,0-3,1.5,1.5,0,0,0,0,3Z" transform="translate(1 0)"/><path class="cls-10" d="M28.61,22.12a1.5,1.5,0,0,0,0-3,1.5,1.5,0,0,0,0,3Z" transform="translate(1 0)"/><path class="cls-10" d="M441.09,110.62a1.5,1.5,0,0,0,0-3,1.5,1.5,0,0,0,0,3Z" transform="translate(1 0)"/><path class="cls-10" d="M345.09,281.61a1.5,1.5,0,0,0,0-3,1.5,1.5,0,0,0,0,3Z" transform="translate(1 0)"/><path class="cls-10" d="M693.07,574.1a1.5,1.5,0,0,0,0-3,1.5,1.5,0,0,0,0,3Z" transform="translate(1 0)"/><path class="cls-10" d="M705.07,413.6a1.5,1.5,0,0,0,0-3,1.5,1.5,0,0,0,0,3Z" transform="translate(1 0)"/><path class="cls-10" d="M562.58,347.61a1.5,1.5,0,0,0,0-3,1.5,1.5,0,0,0,0,3Z" transform="translate(1 0)"/><path class="cls-10" d="M462.09,370.11a1.5,1.5,0,0,0,0-3,1.5,1.5,0,0,0,0,3Z" transform="translate(1 0)"/><path class="cls-10" d="M453.09,370.11a1.5,1.5,0,0,0,0-3,1.5,1.5,0,0,0,0,3Z" transform="translate(1 0)"/><path class="cls-10" d="M454.59,398.6a1.5,1.5,0,0,0,0-3,1.5,1.5,0,0,0,0,3Z" transform="translate(1 0)"/><path class="cls-10" d="M454.59,430.1a1.5,1.5,0,0,0,0-3,1.5,1.5,0,0,0,0,3Z" transform="translate(1 0)"/><path class="cls-10" d="M459.09,389.6a1.5,1.5,0,0,0,0-3,1.5,1.5,0,0,0,0,3Z" transform="translate(1 0)"/><path class="cls-10" d="M445.59,383.6a1.5,1.5,0,0,0,0-3,1.5,1.5,0,0,0,0,3Z" transform="translate(1 0)"/><path class="cls-10" d="M447.09,332.61a1.5,1.5,0,0,0,0-3,1.5,1.5,0,0,0,0,3Z" transform="translate(1 0)"/><path class="cls-10" d="M456.09,337.11a1.5,1.5,0,0,0,0-3,1.5,1.5,0,0,0,0,3Z" transform="translate(1 0)"/><path class="cls-10" d="M457.59,359.61a1.5,1.5,0,0,0,0-3,1.5,1.5,0,0,0,0,3Z" transform="translate(1 0)"/><path class="cls-10" d="M457.59,362.61a1.5,1.5,0,0,0,0-3,1.5,1.5,0,0,0,0,3Z" transform="translate(1 0)"/><path class="cls-10" d="M477.09,362.61a1.5,1.5,0,0,0,0-3,1.5,1.5,0,0,0,0,3Z" transform="translate(1 0)"/><path class="cls-10" d="M484.58,362.61a1.5,1.5,0,0,0,0-3,1.5,1.5,0,0,0,0,3Z" transform="translate(1 0)"/><path class="cls-10" d="M487.58,380.6a1.5,1.5,0,0,0,0-3,1.5,1.5,0,0,0,0,3Z" transform="translate(1 0)"/><path class="cls-10" d="M496.58,380.6a1.5,1.5,0,0,0,0-3,1.5,1.5,0,0,0,0,3Z" transform="translate(1 0)"/><path class="cls-10" d="M496.58,380.6a1.5,1.5,0,0,0,0-3,1.5,1.5,0,0,0,0,3Z" transform="translate(1 0)"/><path class="cls-10" d="M496.58,380.6a1.5,1.5,0,0,0,0-3,1.5,1.5,0,0,0,0,3Z" transform="translate(1 0)"/><path class="cls-10" d="M502.58,331.11a1.5,1.5,0,0,0,0-3,1.5,1.5,0,0,0,0,3Z" transform="translate(1 0)"/><path class="cls-10" d="M502.58,331.11a1.5,1.5,0,0,0,0-3,1.5,1.5,0,0,0,0,3Z" transform="translate(1 0)"/><path class="cls-10" d="M502.58,331.11a1.5,1.5,0,0,0,0-3,1.5,1.5,0,0,0,0,3Z" transform="translate(1 0)"/><path class="cls-11" d="M469.59,356.61a1.5,1.5,0,0,0,0-3,1.5,1.5,0,0,0,0,3Z" transform="translate(1 0)"/><path class="cls-11" d="M454.59,356.61a1.5,1.5,0,0,0,0-3,1.5,1.5,0,0,0,0,3Z" transform="translate(1 0)"/><path class="cls-11" d="M459.09,388.1a1.5,1.5,0,0,0,0-3,1.5,1.5,0,0,0,0,3Z" transform="translate(1 0)"/><path class="cls-11" d="M450.09,389.6a1.5,1.5,0,0,0,0-3,1.5,1.5,0,0,0,0,3Z" transform="translate(1 0)"/><path class="cls-11" d="M450.09,400.1a1.5,1.5,0,0,0,0-3,1.5,1.5,0,0,0,0,3Z" transform="translate(1 0)"/><path class="cls-11" d="M450.09,406.1a1.5,1.5,0,0,0,0-3,1.5,1.5,0,0,0,0,3Z" transform="translate(1 0)"/><path class="cls-11" d="M448.59,415.1a1.5,1.5,0,0,0,0-3,1.5,1.5,0,0,0,0,3Z" transform="translate(1 0)"/><path class="cls-11" d="M435.09,440.6a1.5,1.5,0,0,0,0-3,1.5,1.5,0,0,0,0,3Z" transform="translate(1 0)"/><path class="cls-11" d="M411.09,440.6a1.5,1.5,0,0,0,0-3,1.5,1.5,0,0,0,0,3Z" transform="translate(1 0)"/><path class="cls-11" d="M411.09,440.6a1.5,1.5,0,0,0,0-3,1.5,1.5,0,0,0,0,3Z" transform="translate(1 0)"/><path class="cls-11" d="M436.59,466.1a1.5,1.5,0,0,0,0-3,1.5,1.5,0,0,0,0,3Z" transform="translate(1 0)"/><path class="cls-11" d="M436.59,466.1a1.5,1.5,0,0,0,0-3,1.5,1.5,0,0,0,0,3Z" transform="translate(1 0)"/><path class="cls-11" d="M421.59,505.1a1.5,1.5,0,0,0,0-3,1.5,1.5,0,0,0,0,3Z" transform="translate(1 0)"/><path class="cls-11" d="M414.09,500.6a1.5,1.5,0,0,0,0-3,1.5,1.5,0,0,0,0,3Z" transform="translate(1 0)"/><path class="cls-11" d="M565.58,310.11a1.5,1.5,0,0,0,0-3,1.5,1.5,0,0,0,0,3Z" transform="translate(1 0)"/><path class="cls-11" d="M540.08,272.61a1.5,1.5,0,0,0,0-3,1.5,1.5,0,0,0,0,3Z" transform="translate(1 0)"/><path class="cls-11" d="M531.08,229.11a1.5,1.5,0,0,0,0-3,1.5,1.5,0,0,0,0,3Z" transform="translate(1 0)"/><path class="cls-11" d="M567.08,229.11a1.5,1.5,0,0,0,0-3,1.5,1.5,0,0,0,0,3Z" transform="translate(1 0)"/><path class="cls-11" d="M604.58,262.11a1.5,1.5,0,0,0,0-3,1.5,1.5,0,0,0,0,3Z" transform="translate(1 0)"/><path class="cls-11" d="M604.58,245.61a1.5,1.5,0,0,0,0-3,1.5,1.5,0,0,0,0,3Z" transform="translate(1 0)"/><path class="cls-11" d="M604.58,244.11a1.5,1.5,0,0,0,0-3,1.5,1.5,0,0,0,0,3Z" transform="translate(1 0)"/><path class="cls-11" d="M597.08,202.11a1.5,1.5,0,0,0,0-3,1.5,1.5,0,0,0,0,3Z" transform="translate(1 0)"/><path class="cls-11" d="M597.08,202.11a1.5,1.5,0,0,0,0-3,1.5,1.5,0,0,0,0,3Z" transform="translate(1 0)"/><path class="cls-11" d="M595.58,232.11a1.5,1.5,0,0,0,0-3,1.5,1.5,0,0,0,0,3Z" transform="translate(1 0)"/><path class="cls-11" d="M597.08,176.62a1.5,1.5,0,0,0,0-3,1.5,1.5,0,0,0,0,3Z" transform="translate(1 0)"/><path class="cls-11" d="M598.58,167.62a1.5,1.5,0,0,0,0-3,1.5,1.5,0,0,0,0,3Z" transform="translate(1 0)"/><path class="cls-11" d="M609.08,166.12a1.5,1.5,0,0,0,0-3,1.5,1.5,0,0,0,0,3Z" transform="translate(1 0)"/><path class="cls-11" d="M609.08,166.12a1.5,1.5,0,0,0,0-3,1.5,1.5,0,0,0,0,3Z" transform="translate(1 0)"/><path class="cls-11" d="M609.08,166.12a1.5,1.5,0,0,0,0-3,1.5,1.5,0,0,0,0,3Z" transform="translate(1 0)"/><path class="cls-11" d="M621.08,155.62a1.5,1.5,0,0,0,0-3,1.5,1.5,0,0,0,0,3Z" transform="translate(1 0)"/><path class="cls-11" d="M621.08,142.12a1.5,1.5,0,0,0,0-3,1.5,1.5,0,0,0,0,3Z" transform="translate(1 0)"/><path class="cls-11" d="M621.08,142.12a1.5,1.5,0,0,0,0-3,1.5,1.5,0,0,0,0,3Z" transform="translate(1 0)"/><path class="cls-11" d="M621.08,142.12a1.5,1.5,0,0,0,0-3,1.5,1.5,0,0,0,0,3Z" transform="translate(1 0)"/><path class="cls-11" d="M621.08,142.12a1.5,1.5,0,0,0,0-3,1.5,1.5,0,0,0,0,3Z" transform="translate(1 0)"/><path class="cls-11" d="M655.58,134.62a1.5,1.5,0,0,0,0-3,1.5,1.5,0,0,0,0,3Z" transform="translate(1 0)"/><path class="cls-11" d="M655.58,134.62a1.5,1.5,0,0,0,0-3,1.5,1.5,0,0,0,0,3Z" transform="translate(1 0)"/><path class="cls-11" d="M655.58,134.62a1.5,1.5,0,0,0,0-3,1.5,1.5,0,0,0,0,3Z" transform="translate(1 0)"/><path class="cls-12" d="M270.1,917.58a1.5,1.5,0,0,0,0-3,1.5,1.5,0,0,0,0,3Z" transform="translate(1 0)"/><path class="cls-12" d="M529.58,997.07a1.5,1.5,0,0,0,0-3,1.5,1.5,0,0,0,0,3Z" transform="translate(1 0)"/><path class="cls-12" d="M655.58,1043.57a1.5,1.5,0,0,0,0-3,1.5,1.5,0,0,0,0,3Z" transform="translate(1 0)"/><path class="cls-12" d="M73.61,1144.07a1.5,1.5,0,0,0,0-3,1.5,1.5,0,0,0,0,3Z" transform="translate(1 0)"/><path class="cls-12" d="M198.1,1081.07a1.5,1.5,0,0,0,0-3,1.5,1.5,0,0,0,0,3Z" transform="translate(1 0)"/><path class="cls-13" d="M96.26,307.74a1.49,1.49,0,0,0-2.39,1l-.1.08a.45.45,0,0,0-.12.51,1.73,1.73,0,0,0,.65.81,1,1,0,0,0,1.13.65,1.4,1.4,0,0,0,1.22-1.33A1.55,1.55,0,0,0,96.26,307.74Z" transform="translate(1 0)"/><path class="cls-13" d="M84.17,281.08c-.25-.05-.53.15-.77.3a.41.41,0,0,0-.37.27c-.33.85.81,1.76,1.52,1.11a1,1,0,0,0,.18-1.25A.87.87,0,0,0,84.17,281.08Z" transform="translate(1 0)"/><path class="cls-13" d="M81.45,267A.46.46,0,0,0,81,267a1.14,1.14,0,0,0-.81,1,.81.81,0,0,0,.86.76,1.25,1.25,0,0,0,.19.15.47.47,0,0,0,.27.08.57.57,0,0,0,.42-.06.71.71,0,0,0,.33-.56,1,1,0,0,0,.14-.62A.86.86,0,0,0,81.45,267Z" transform="translate(1 0)"/><path class="cls-13" d="M91.71,255.19a1,1,0,0,0-1.62.6.76.76,0,0,0,.29.7.8.8,0,0,0,.61.33.88.88,0,0,0,.82-.51.51.51,0,0,0,.09-.18.5.5,0,0,0,0-.12A.86.86,0,0,0,91.71,255.19Z" transform="translate(1 0)"/><path class="cls-13" d="M109.33,247.32a.44.44,0,0,0-.5.16l0,0-.2,0a.44.44,0,0,0-.34.28,1.16,1.16,0,0,0,.07.93.45.45,0,0,0,.52.24.76.76,0,0,0,1,.08.85.85,0,0,0,.09-1.19l-.13-.13A.83.83,0,0,0,109.33,247.32Z" transform="translate(1 0)"/><path class="cls-13" d="M108.72,257.55a.43.43,0,0,0-.33.18,1.51,1.51,0,0,0-.09.18l0,0a.47.47,0,0,0,0,.38,1,1,0,0,0,.1.44.87.87,0,0,0,.89.47l.12,0a.66.66,0,0,0,.27-.06.85.85,0,0,0,.48-.89A.93.93,0,0,0,108.72,257.55Z" transform="translate(1 0)"/><path class="cls-13" d="M116,259.66a.43.43,0,0,0,.06.17.46.46,0,0,0-.34.72,1.13,1.13,0,0,0,2-.35,1.11,1.11,0,0,0,0-.45.81.81,0,0,0,0-.68C117.31,258.17,115.91,258.74,116,259.66Z" transform="translate(1 0)"/><path class="cls-13" d="M130.18,247.84a.94.94,0,0,0-1.31,0,.56.56,0,0,0-.07.63.42.42,0,0,0,0,.5.93.93,0,0,0,1.27.13A.82.82,0,0,0,130.18,247.84Z" transform="translate(1 0)"/><path class="cls-13" d="M114.61,240.85a.66.66,0,0,0-.2-.21c-.54-.35-1.13.28-1.14.8a.8.8,0,0,0,1,.81.9.9,0,0,0,.62-1.15A.41.41,0,0,0,114.61,240.85Z" transform="translate(1 0)"/><path class="cls-13" d="M132.92,233.3a1,1,0,0,0-.24.09.41.41,0,0,0-.37.28.59.59,0,0,0,0,.14.62.62,0,0,0-.07.23.42.42,0,0,0,.25.43.57.57,0,0,0,.3.22.81.81,0,0,0,.64-.13,1.3,1.3,0,0,0,.42-.42.47.47,0,0,0,0-.53A.86.86,0,0,0,132.92,233.3Z" transform="translate(1 0)"/><polygon class="cls-13" points="134.13 233.92 134.13 233.92 134.13 233.92 134.13 233.93 134.14 233.93 134.14 233.93 134.13 233.92"/><path class="cls-13" d="M139.26,235.93a.45.45,0,0,0-.58-.22.92.92,0,0,0-.4.27.43.43,0,0,0-.22.1.46.46,0,0,0-.12.5,1.43,1.43,0,0,0-.08.22.43.43,0,0,0,.26.55s0,0,0,0a1,1,0,0,0,.74.27,1,1,0,0,0,.64-.12.54.54,0,0,0,.26-.33.45.45,0,0,0,0-.23,1.45,1.45,0,0,0-.39-.88l-.15-.14Z" transform="translate(1 0)"/><path class="cls-13" d="M148.68,228.34a.79.79,0,0,0-.27.1.39.39,0,0,0-.33.1.77.77,0,0,0,.12,1.22.72.72,0,0,0,.62.11.8.8,0,0,0,.47-.17.41.41,0,0,0,0-.6h0C149.32,228.75,149.08,228.29,148.68,228.34Z" transform="translate(1 0)"/><path class="cls-13" d="M135.29,234.82a.8.8,0,0,0,.1,1.22.44.44,0,0,0,.56,0l.14,0a.63.63,0,0,0,.3-1.07A.76.76,0,0,0,135.29,234.82Z" transform="translate(1 0)"/><path class="cls-13" d="M145.76,230.4a.73.73,0,0,0-.15.35s0,0,0,.06v.07s0,.06,0,.09,0,0,0,0a.78.78,0,0,0,.48.63.4.4,0,0,0,.34,0h.11a.72.72,0,0,0,.4-1.15A.74.74,0,0,0,145.76,230.4Z" transform="translate(1 0)"/><path class="cls-13" d="M176.68,216.83a1.09,1.09,0,0,0-.74.25.92.92,0,0,0,.06,1.47,1.18,1.18,0,0,0,1.64-.28,1.44,1.44,0,0,0-.19-1.73A.45.45,0,0,0,176.68,216.83Z" transform="translate(1 0)"/><path class="cls-13" d="M187.69,211.89h-.17a.73.73,0,0,0-.25.08.8.8,0,0,0-.78.5.83.83,0,0,0,.13.78c0,.13.12.29.27.32l.14,0a1,1,0,0,0,.49.1,1.16,1.16,0,0,0,.82-1.65A.42.42,0,0,0,187.69,211.89Z" transform="translate(1 0)"/><path class="cls-13" d="M182.05,218.86l-.19-.13a.42.42,0,0,0-.43.08.48.48,0,0,0-.12.16h0a.72.72,0,0,0-.58.86.36.36,0,0,0,.24.38.91.91,0,0,0,1.35-.12,1.24,1.24,0,0,0,.1-.2,1.57,1.57,0,0,0,.5-.84C183,218.55,182.25,218.45,182.05,218.86Z" transform="translate(1 0)"/><path class="cls-13" d="M181,214.6a.43.43,0,0,0,.55.67A.43.43,0,0,0,181,214.6Z" transform="translate(1 0)"/><path class="cls-13" d="M140.37,233.42a.43.43,0,0,0,.55.67A.43.43,0,0,0,140.37,233.42Z" transform="translate(1 0)"/><path class="cls-13" d="M142.54,250.26a.25.25,0,0,0,0,.12.23.23,0,0,0,0,.11.91.91,0,0,0,.85.91.9.9,0,0,0,1-.7A1,1,0,0,0,142.54,250.26Z" transform="translate(1 0)"/><path class="cls-13" d="M155.21,241.05a.45.45,0,0,0-.61.1,1.33,1.33,0,0,0-.21.54.46.46,0,0,0-.35.19.43.43,0,0,0,.1.6.92.92,0,0,0,.75.17l.19,0,.14-.11a.73.73,0,0,0,.2-.19A.92.92,0,0,0,155.21,241.05Z" transform="translate(1 0)"/><path class="cls-13" d="M160.24,231.76a1.13,1.13,0,0,0-1.52,1.25.45.45,0,0,0,.5.36l.08,0a.41.41,0,0,0,.44-.06l0,0a.4.4,0,0,0,.4-.08,1.64,1.64,0,0,0,.17-.66l0,0A.44.44,0,0,0,160.24,231.76Z" transform="translate(1 0)"/><path class="cls-13" d="M165.19,228.35a1.18,1.18,0,0,0-.46-.86.45.45,0,0,0-.52,0l-.76.6a.38.38,0,0,0-.15.39.61.61,0,0,0-.1.37,1,1,0,0,0,.57.81.81.81,0,0,0,.81-.09.49.49,0,0,0,.32-.08.8.8,0,0,0,.4-.74A.49.49,0,0,0,165.19,228.35Z" transform="translate(1 0)"/><path class="cls-13" d="M157.2,220a.82.82,0,0,0-.24-.1.71.71,0,0,0-1.05.42.72.72,0,0,0,.4.93l.06,0,.11,0a.7.7,0,0,0,.73-.54.51.51,0,0,0,.17-.36A.4.4,0,0,0,157.2,220Z" transform="translate(1 0)"/><path class="cls-13" d="M168.91,214.24a1,1,0,0,0-1.34.27.43.43,0,0,0,.1.6.42.42,0,0,0,.43,0,.81.81,0,0,0,.91-.29A.44.44,0,0,0,168.91,214.24Z" transform="translate(1 0)"/><path class="cls-13" d="M192,205.53a.38.38,0,0,0-.15.3.61.61,0,0,0-.55.53.42.42,0,0,0,.18.39.56.56,0,0,0,.17.09l0,0a.38.38,0,0,0,.23,0,.82.82,0,0,0,.79-.38.47.47,0,0,0,0-.52A.44.44,0,0,0,192,205.53Z" transform="translate(1 0)"/><path class="cls-13" d="M204.24,197.05a.45.45,0,0,0-.32-.22.88.88,0,0,0-.82.37.62.62,0,0,0-.09.29.45.45,0,0,0,0,.55.48.48,0,0,0,.41.15.7.7,0,0,0,.78-.09.75.75,0,0,0,.22-.86A.37.37,0,0,0,204.24,197.05Z" transform="translate(1 0)"/><path class="cls-13" d="M204.56,208.44a.58.58,0,0,0-.62.43.73.73,0,0,0,.14.71s0,0,.06.06a.37.37,0,0,0,.07.14.44.44,0,0,0,.61.06l.08-.09a.83.83,0,0,0,.57-.63C205.51,208.64,205,208.19,204.56,208.44Z" transform="translate(1 0)"/><path class="cls-13" d="M215.81,195.24a.88.88,0,0,0-.57.56.76.76,0,0,0,.2.83.74.74,0,0,0,.73.09l.09-.06h.13a.46.46,0,0,0,.36-.39A.9.9,0,0,0,215.81,195.24Z" transform="translate(1 0)"/><path class="cls-13" d="M172.35,230.9a1.8,1.8,0,0,0-.56.11l0,0-.13.07-.06,0a.44.44,0,0,0-.47.39,1,1,0,0,0,0,.38.39.39,0,0,0,0,.18,1,1,0,0,0,1.32.51.46.46,0,0,0,.25-.46,1.17,1.17,0,0,0-.05-.27,1.38,1.38,0,0,0,.07-.43A.44.44,0,0,0,172.35,230.9Z" transform="translate(1 0)"/><path class="cls-13" d="M193.58,227.18a1.1,1.1,0,0,0-.51,0,1,1,0,0,0-.48,1.57.76.76,0,0,0,.9.34,2.7,2.7,0,0,0,1-.77.42.42,0,0,0,0-.42A1.2,1.2,0,0,0,193.58,227.18Z" transform="translate(1 0)"/><path class="cls-13" d="M198.25,239.85h0a.42.42,0,0,0-.28-.14.93.93,0,0,0-.95,1,.83.83,0,0,0,1,.87,1,1,0,0,0,.75-1.08A.65.65,0,0,0,198.25,239.85Z" transform="translate(1 0)"/><path class="cls-13" d="M211.56,208.63a.44.44,0,0,0,.56.67C212.55,209,212,208.28,211.56,208.63Z" transform="translate(1 0)"/><path class="cls-13" d="M215,211.29c-.43.35.13,1,.56.67A.44.44,0,0,0,215,211.29Z" transform="translate(1 0)"/><path class="cls-13" d="M222.42,213.91a.43.43,0,0,0,.55.67A.43.43,0,0,0,222.42,213.91Z" transform="translate(1 0)"/><path class="cls-13" d="M236.49,209.79a.43.43,0,0,0,.55.67A.43.43,0,0,0,236.49,209.79Z" transform="translate(1 0)"/><path class="cls-13" d="M243.19,200a.86.86,0,0,0-1.08.46.39.39,0,0,0,0,.18.44.44,0,0,0,.18.81,1.16,1.16,0,0,0,.56-.09h.13a.43.43,0,0,0,.47-.39.42.42,0,0,0,0-.19,1,1,0,0,0,.09-.34A.44.44,0,0,0,243.19,200Z" transform="translate(1 0)"/><path class="cls-13" d="M252.76,191.66c-.64-.34-1.27.42-1.35,1a.45.45,0,0,0,.28.45,1.19,1.19,0,0,0,.79,0,.44.44,0,0,0,.25,0A.81.81,0,0,0,252.76,191.66Z" transform="translate(1 0)"/><path class="cls-13" d="M218.57,196.82a.9.9,0,0,0-.15.19h0a.43.43,0,0,0-.47.39,1.37,1.37,0,0,0,0,.29l-.26.22a.42.42,0,0,0-.12.51,1.74,1.74,0,0,0,.83.82c.33.1.78-.19,1-.36A1.41,1.41,0,0,0,220,197,1,1,0,0,0,218.57,196.82Z" transform="translate(1 0)"/><path class="cls-13" d="M235.06,190.38H235a.47.47,0,0,0-.35,0,1.44,1.44,0,0,0-.66.28.43.43,0,0,0-.12.51,1,1,0,0,0,.67.55,1.09,1.09,0,0,0,.91-.15.44.44,0,0,0,.06-.61l0-.06A.44.44,0,0,0,235.06,190.38Z" transform="translate(1 0)"/><path class="cls-13" d="M226.23,194c-.43.35.13,1,.56.67A.44.44,0,0,0,226.23,194Z" transform="translate(1 0)"/><path class="cls-13" d="M223.66,200.9a.43.43,0,0,0,.55.66A.43.43,0,0,0,223.66,200.9Z" transform="translate(1 0)"/><path class="cls-13" d="M230.68,197.6a.43.43,0,0,0,.55.67A.43.43,0,0,0,230.68,197.6Z" transform="translate(1 0)"/><path class="cls-13" d="M243.88,181.21a.43.43,0,0,0,.55.67A.43.43,0,0,0,243.88,181.21Z" transform="translate(1 0)"/><path class="cls-13" d="M253.31,178.09a.58.58,0,0,0-.62,0l0,0a.44.44,0,0,0-.55.05.42.42,0,0,0-.35.38.64.64,0,0,0,.26.53.55.55,0,0,0,.24.26.74.74,0,0,0,.63.08.81.81,0,0,0,.43-.34.43.43,0,0,0,.27-.35A.62.62,0,0,0,253.31,178.09Z" transform="translate(1 0)"/><path class="cls-13" d="M259.64,179.58a.86.86,0,0,0-.2,1.19.47.47,0,0,0,.1.1l0,0c.75.64,1.9-.57,1.25-1.31A.87.87,0,0,0,259.64,179.58Z" transform="translate(1 0)"/><path class="cls-13" d="M259.71,187.38a.43.43,0,0,0,.55.67A.43.43,0,0,0,259.71,187.38Z" transform="translate(1 0)"/><path class="cls-13" d="M285.31,168.22a1.75,1.75,0,0,0-1.5.32.93.93,0,0,0-.08,1.19.23.23,0,0,0,0,.14,1.16,1.16,0,0,0,1.11.61,1.06,1.06,0,0,0,1-.73,1.09,1.09,0,0,0,0-.4l0,0C286.31,168.81,285.82,168.32,285.31,168.22Z" transform="translate(1 0)"/><path class="cls-13" d="M299.53,165a.79.79,0,0,0-.82-.1,1,1,0,0,0,0,1.94,1.11,1.11,0,0,0,.85-.28l.09-.06a.39.39,0,0,0,.15-.35,1.06,1.06,0,0,0,0-.53A1,1,0,0,0,299.53,165Z" transform="translate(1 0)"/><path class="cls-13" d="M310.18,172.88a.42.42,0,0,0-.48,0,1.07,1.07,0,0,0-.5.34,1,1,0,0,0,.06,1.3,1,1,0,0,0,1.32,0,1,1,0,0,0,.26-.34.72.72,0,0,0,0-.54A1.59,1.59,0,0,0,310.18,172.88Z" transform="translate(1 0)"/><path class="cls-13" d="M310.59,194.16a1,1,0,0,0-1.41,0,1.6,1.6,0,0,0-.34,1.58c0,.14.13.31.28.34a1,1,0,0,0,1.18-.53.67.67,0,0,0,.18-.07A.84.84,0,0,0,310.59,194.16Z" transform="translate(1 0)"/><path class="cls-13" d="M313.44,199.23a.43.43,0,0,0,.55.67A.43.43,0,0,0,313.44,199.23Z" transform="translate(1 0)"/><path class="cls-13" d="M317.15,201.91a.43.43,0,0,0,.55.67A.43.43,0,0,0,317.15,201.91Z" transform="translate(1 0)"/><path class="cls-13" d="M321.06,205.43a.43.43,0,0,0,.55.67A.43.43,0,0,0,321.06,205.43Z" transform="translate(1 0)"/><path class="cls-13" d="M325.15,211.3a.43.43,0,0,0,.55.67A.43.43,0,0,0,325.15,211.3Z" transform="translate(1 0)"/><path class="cls-13" d="M331.09,217.68a.86.86,0,0,0-.83.12.41.41,0,0,0-.12.48.86.86,0,0,0,.06.67.43.43,0,0,0,.25.26.6.6,0,0,0,.48.1.89.89,0,0,0,.71-1A.86.86,0,0,0,331.09,217.68Z" transform="translate(1 0)"/><path class="cls-13" d="M331.85,209.37a.46.46,0,0,0-.58-.22.93.93,0,0,0-.45,1.21.91.91,0,0,0,1.22.39.45.45,0,0,0,.25-.46,1.26,1.26,0,0,0-.34-.8.35.35,0,0,0-.09-.07Z" transform="translate(1 0)"/><path class="cls-13" d="M330.87,196.66h0a.49.49,0,0,0-.14-.11h0l-.13-.09a.42.42,0,0,0-.27-.36.44.44,0,0,0-.56.26l-.06.25,0,0a.76.76,0,0,0-.17.32,1.09,1.09,0,0,0,.39,1,.46.46,0,0,0,.62.06l.53-.43a.44.44,0,0,0,.12-.52A1.25,1.25,0,0,0,330.87,196.66Z" transform="translate(1 0)"/><path class="cls-13" d="M310.25,164.33a1.1,1.1,0,0,0-.82.26.45.45,0,0,0-.14.42.86.86,0,0,0,.09,1.2c.47.41,1.45.45,1.68-.25a.73.73,0,0,0-.24-.77.67.67,0,0,0-.31-.14A.42.42,0,0,0,310.25,164.33Z" transform="translate(1 0)"/><path class="cls-13" d="M292.67,158.26l-.17,0a.43.43,0,0,0-.08.86l.16,0A.43.43,0,0,0,292.67,158.26Z" transform="translate(1 0)"/><path class="cls-13" d="M253.33,175.41a.43.43,0,0,0,.55.67A.43.43,0,0,0,253.33,175.41Z" transform="translate(1 0)"/><path class="cls-13" d="M221.14,191.49a.43.43,0,0,0,.55.67A.43.43,0,0,0,221.14,191.49Z" transform="translate(1 0)"/><path class="cls-13" d="M266.15,211.26c-.5-.7-1.61-.27-1.79.5a.2.2,0,0,0,0,.07.42.42,0,0,0-.21.67l.49.54a.54.54,0,0,0,.29.15,1.25,1.25,0,0,0,.39.27.88.88,0,0,0,.7-.15A1.25,1.25,0,0,0,266.15,211.26Zm-.78.51.08.06a.53.53,0,0,1-.06.1.77.77,0,0,1-.18.18s0,0,0-.06A.29.29,0,0,1,265.37,211.77Z" transform="translate(1 0)"/><path class="cls-13" d="M285.69,203s0,0,0,0h0l0,0h0Z" transform="translate(1 0)"/><path class="cls-13" d="M286.46,202.14a.7.7,0,0,0-.52-.25l-.15,0a1.33,1.33,0,0,0-.89.16.93.93,0,0,0-.54.75.57.57,0,0,0-.08.32,1,1,0,0,0,1,.89l.22,0a1.07,1.07,0,0,0,1.22-.92.08.08,0,0,0,0,0h0a.4.4,0,0,0,0-.42,1,1,0,0,0-.15-.24A.88.88,0,0,0,286.46,202.14Z" transform="translate(1 0)"/><path class="cls-13" d="M303.71,195.13a1,1,0,0,0-.4,1.16.86.86,0,0,0,.43.56,1,1,0,1,0,0-1.72Z" transform="translate(1 0)"/><path class="cls-13" d="M316.58,255.6a.43.43,0,0,0-.35-.26A1.42,1.42,0,0,0,315,256a.87.87,0,0,0-.16.17,1.15,1.15,0,0,0-.11,1.13.42.42,0,0,0,.27.45l.18.05a.92.92,0,0,0,.58.1.66.66,0,0,0,.2-.06h.27a1.11,1.11,0,0,0,.93-1.51,1.27,1.27,0,0,0-.52-.6A.88.88,0,0,0,316.58,255.6Zm-.9,1a.35.35,0,0,1,.23.09l0,.08a.28.28,0,0,1-.08.12A.31.31,0,0,1,315.68,256.65Z" transform="translate(1 0)"/><path class="cls-13" d="M330.15,234.43a.46.46,0,0,0,0,.2.77.77,0,0,0-.06.7.21.21,0,0,0,.06.1l0,.06c.52.76,1.83,0,1.6-.78,0,0,0-.09,0-.13C331.59,233.85,330.4,233.66,330.15,234.43Z" transform="translate(1 0)"/><path class="cls-14" d="M98.5,286a2.56,2.56,0,0,0,2-.82,1.86,1.86,0,0,0-.12-2.63,2.39,2.39,0,0,0-2.26-.57,3.43,3.43,0,0,0-1.68,1.2,1.56,1.56,0,0,0-.23,1.82c1.23,2.08,4.72.73,4-1.67a2.34,2.34,0,0,0-2.75-1.53,2.29,2.29,0,0,0,.71,4.47,2.42,2.42,0,0,0,2.3-2,3.09,3.09,0,0,0-1.28-2.85,2.25,2.25,0,0,0-3.06.64,1.5,1.5,0,0,0,.54,2.05,1.54,1.54,0,0,0,2-.53.83.83,0,0,1-1.28.23c-.1-.08.06.2,0,0,0,.09,0,.19.07.28.11.33,0-.23,0-.36a.53.53,0,0,1,.2-.29.77.77,0,0,1,1.07.39s0,.34,0,.2,0-.08,0,0a.64.64,0,0,1-.22.48c-.32.27-.9.39-1.16,0a.94.94,0,0,1,.49-1.39c-.19.07,0,0,.11,0a1,1,0,0,1,.75.43l-.24,1.81.3-.33c.12-.11.14-.14.07-.09l.08-.05a.88.88,0,0,1-.4.05c-.29-.06-.6-.93-.54-.47l.15-1.16a1,1,0,0,1,.22-.2c.06-.05.36,0,.06-.05a1.5,1.5,0,0,0-1.5,1.5,1.54,1.54,0,0,0,1.5,1.5Z" transform="translate(1 0)"/><path class="cls-14" d="M92.46,291.69a2.15,2.15,0,0,0,2.33,2.61,2.32,2.32,0,0,0,1.93-3.22,3,3,0,0,0-1.48-1.74,2.27,2.27,0,0,0-2,.26,2.78,2.78,0,0,0-1,3.49,2.49,2.49,0,0,0,3.43,1,2.57,2.57,0,0,0,1.1-3.55,2.46,2.46,0,0,0-3.81-.53,2.26,2.26,0,0,0,.87,3.72c1.83.52,3.67-1.68,2.36-3.27-1.15-1.39-3.74-.64-3.67,1.28a1.5,1.5,0,0,0,3,0,.92.92,0,0,1-1.75.45v-1c.22-.5,1-.42,1.3-.1a.77.77,0,0,1,.22.77q.08-.24,0,.06a.77.77,0,0,1-.46.37.56.56,0,0,1-.44,0,.58.58,0,0,1-.23-.51c0-.21,0-.24,0-.07a.33.33,0,0,1,.11-.22l0,0c-.12.11-.11.1,0,0-.15.08-.14.08,0,0-.13,0-.14,0,0,0a.42.42,0,0,1,.27,0c-.16,0-.14,0,.06,0a.87.87,0,0,1,.34.5c0,.13,0,.13,0,0-.05.23-.05.26,0,.09s0-.14,0,.06c.07-.11.07-.12,0,0s-.08.09,0,0c-.18.12-.2.14-.06.05-.2.08-.54.06-.17.1l-1.06-.44.26.23c.07.08.07.07,0,0l.07.12c0-.25-.06.16,0,0s0-.2,0-.32a1,1,0,0,1,.52-.42c.23,0,.28,0,.16,0s-.06,0,.06,0,.14,0,0,0l.19.07a1,1,0,0,1,.45,1.11,1.5,1.5,0,1,0-2.89-.8Z" transform="translate(1 0)"/><path class="cls-13" d="M95.58,291.42" transform="translate(1 0)"/><path class="cls-15" d="M105.35,322.64c-7.82-6.88-12.66-17.49-11.26-27.81.52-3.83,2-7.68,4.78-10.31,2.17-2,5-3.18,7.73-4.3,16.55-6.75,33-13.75,49.45-20.74l22.88-9.73c34.68-14.75,69.38-29.5,103.45-45.61,9.81-4.65,21-9.48,31.14-5.52a28.51,28.51,0,0,1,10.42,7.71c3.84,4.22,7,9.21,8.14,14.81,1.37,6.93-.6,14.2-4.16,20.3s-8.62,11.17-13.84,15.92a222.45,222.45,0,0,1-56.26,37.25c-11.27,5.2-23,9.45-34.63,13.69l-31,11.27c-21.09,7.66-45.24,18.44-67.82,12.61A45.59,45.59,0,0,1,105.35,322.64Z" transform="translate(1 0)"/><path class="cls-15" d="M215.77,195.58a20.34,20.34,0,0,1,5.92-3.48l23.68-10.53L244,179.81" transform="translate(1 0)"/><path class="cls-15" d="M251.33,177.71q12.24-6,24.54-11.93c8.1-3.86,17.08-7.78,25.74-5.46,8.23,2.19,14,9.49,18.34,16.82,7.43,12.61,12.48,27.18,11,41.75" transform="translate(1 0)"/><path class="cls-15" d="M116.65,239.36a21.78,21.78,0,0,1,20.4-3.25,14.24,14.24,0,0,0,3.52,1c2.53.21,4.9-1.4,6.45-3.4s2.51-4.4,3.77-6.59a26,26,0,0,1,10.06-9.8c3-1.64,6.66-2.66,9.86-1.44,2.08.8,3.71,2.44,5.66,3.5,3.33,1.82,8.15,1.48,10.22-1.71,1-1.59,1.22-3.56,1.87-5.34,1.09-3,3.43-5.27,5.71-7.45,3.43-3.29,7-6.6,11.44-8.36s9.9-1.63,13.45,1.53c1.34,1.2,2.41,2.8,4.06,3.49a6.13,6.13,0,0,0,3.26.3c4.44-.62,8-4,10.6-7.65s4.69-7.72,7.9-10.84S253,178.25,257.1,180a5.84,5.84,0,0,1,3,2.61,6.15,6.15,0,0,1-.55,5.91,18.27,18.27,0,0,1-4.33,4.4c-.81.65-1.79,1.35-2.79,1.08a5.72,5.72,0,0,1-1.16-.58c-2.68-1.4-5.95.89-7.24,3.62s-1.42,5.88-2.66,8.63a19.74,19.74,0,0,1-4.8,6.08c-2.53,2.38-5.53,4.67-9,4.69-5.27,0-9.06-5-14-6.89-6.53-2.44-14.62,2-16.31,8.8-.43,1.73-.5,3.54-.83,5.3-1.05,5.61-5.23,10.8-10.81,12-4.84,1-9.84-.9-14.07-3.48-2.39-1.44-5.07-3.17-7.74-2.39-3.12.9-4.3,4.56-5.84,7.41-1.72,3.17-4.35,5.73-6.93,8.24s-5,4.83-8.13,6.27-7,1.72-9.88-.18c-2-1.32-3.46-3.61-5.79-4.15a5.66,5.66,0,0,0-5.38,2.14,11.9,11.9,0,0,0-2.24,5.59c-.34,1.88-.53,3.91-1.75,5.38-4.09,4.93-9.75-1.27-9.47-5.73A21.66,21.66,0,0,1,116.65,239.36Z" transform="translate(1 0)"/><path class="cls-15" d="M110.31,249.36a116.94,116.94,0,0,0-21.71,9.23c-2.73,1.49-5.56,3.27-6.93,6-1.15,2.31-1.08,4.94-.83,7.41.41,4.2,1.28,8.42,3.48,11.91a13.05,13.05,0,0,0,10.19,6.39" transform="translate(1 0)"/><path class="cls-15" d="M260.09,180.61l21.37-9.79c3.8-1.74,7.66-3.5,11.78-4.19s8.61-.22,12,2.21c4.42,3.15,6.16,8.82,7.41,14.11a23.54,23.54,0,0,1,.91,7.35,8.62,8.62,0,0,1-3.28,6.42l-1.19-.93" transform="translate(1 0)"/><path class="cls-15" d="M219.82,198.17l15.09-6.2a12.43,12.43,0,0,1,3.84-1.11l-.92-.36" transform="translate(1 0)"/><path class="cls-15" d="M215.6,195.36c2.73-2.43,6.34-3.56,9.79-4.78a129.8,129.8,0,0,0,29.42-14.84" transform="translate(1 0)"/><path class="cls-15" d="M171.69,216.61a11.49,11.49,0,0,1,4.74-2.52,120.54,120.54,0,0,0,14-5.91" transform="translate(1 0)"/><path class="cls-15" d="M176.59,218.45a25.88,25.88,0,0,1,10.89-5.29" transform="translate(1 0)"/><path class="cls-15" d="M219.6,198.85l20.58-10.07" transform="translate(1 0)"/><path class="cls-15" d="M132,234.72l19.48-9.14" transform="translate(1 0)"/><path class="cls-15" d="M136.69,235.81,148,231" transform="translate(1 0)"/><path class="cls-14" d="M132.16,334.24a2.21,2.21,0,0,0,2.61,1.45,1.93,1.93,0,0,0,1.39-1.26,2.2,2.2,0,0,0-.37-1.68,2.23,2.23,0,0,0-1.72-1.11,2.43,2.43,0,0,0-1.53.69,2.06,2.06,0,0,0-.31,3.09,2.6,2.6,0,0,0,3,.38,2.46,2.46,0,0,0,1.08-2.73,2.25,2.25,0,0,0-2.62-1.61,2.31,2.31,0,0,0-1.85,2.19,1.52,1.52,0,0,0,1.5,1.5,1.54,1.54,0,0,0,1.5-1.5.72.72,0,0,1-.92.72.63.63,0,0,1,0-1.24.56.56,0,0,1,.34.08c-.25-.09.1.12-.08-.1l.39,1.46c.05-.16,0-.17,0,0l0-.06a.22.22,0,0,1-.12.11c.15-.08.15-.09,0,0l-1.15-.15-.07-.08.06.06c0,.05-.14-.41,0,0l.38-1.46c.51-.58,1.21,0,1.4.48a1.54,1.54,0,0,0-1.84-1.05,1.5,1.5,0,0,0-1.05,1.84Z" transform="translate(1 0)"/><path class="cls-14" d="M180.76,324a4.65,4.65,0,0,0,.82.78,1.78,1.78,0,0,0,1.32.12,2.54,2.54,0,0,0,1.45-1.1,2.62,2.62,0,0,0-.31-3.23,1.53,1.53,0,0,0-2.12,0l-.84.69a1.44,1.44,0,0,0-.38,1.46,3.08,3.08,0,0,0,1.9,1.91,2.61,2.61,0,0,0,2.56-.54,2.44,2.44,0,0,0-.79-4.14,2.26,2.26,0,1,0-.69,4.4,2.32,2.32,0,0,0,2.14-1.8,1.54,1.54,0,0,0-1-1.85,1.51,1.51,0,0,0-1.84,1.05c-.06.25,0,.18.15-.2a.74.74,0,0,1,1.15.89.77.77,0,0,1-.47.38c-.21,0-.24,0-.06,0a.6.6,0,0,1-.57-.36.4.4,0,0,1-.11-.34c0-.19,0-.2,0,0,.1-.22.15-.24.36-.34h0a.26.26,0,0,1,.21,0c.1.1.08.08-.05,0a.19.19,0,0,1,.08.16l-.39,1.46.84-.69h-2.12c0-.05-.23-.46-.12-.2,0-.22,0-.25,0-.08q0-.28,0-.12c0,.1,0,.07,0-.1-.08.11-.08.12,0,0a.7.7,0,0,1,.53-.23l1.06.44-.51-.54a1.5,1.5,0,0,0-2.13,2.12Z" transform="translate(1 0)"/><path class="cls-14" d="M237.32,301.35l-.64.59a1.53,1.53,0,0,0-.23,1.82,2.56,2.56,0,0,0,2.06,1.13,2.41,2.41,0,0,0,2-1.07,2.48,2.48,0,0,0-1.48-3.66,2.12,2.12,0,0,0-2.21,3.15,2.16,2.16,0,0,0,2.4.91A2.5,2.5,0,0,0,241,302.5a1.53,1.53,0,0,0-1-1.85,1.55,1.55,0,0,0-1.85,1.05.56.56,0,0,1,.38-.37.5.5,0,0,1,.58.22.63.63,0,0,1,.53.73c0,.23,0,.27,0,.11a.67.67,0,0,1-.61.56c-.31.12-.59.24-.87,0-.08-.08-.17-.41-.13-.16-.07-.41.05-.51.34-.82l.16-.06q-.25.08.06,0c.21,0,.24,0,.07,0a.66.66,0,0,1,.46.36l-.23,1.81.63-.59a1.51,1.51,0,0,0,0-2.12,1.53,1.53,0,0,0-2.12,0Z" transform="translate(1 0)"/><path class="cls-16" d="M96.21,307.56a2,2,0,0,0-2.58-.33,1.52,1.52,0,0,0-.3,2.35c-.13-.16.1.2.1.22-.08-.22,0,.21,0,.23l.69-1.69a.84.84,0,1,1,.81,1.47.49.49,0,0,1-.4.13c.17,0,.14,0-.09,0a.7.7,0,0,1-.29-.19c.18.19.13.08-.15-.31l.15-1.16s-.18.39-.09.17c-.07.18-.13,0,0,0a.6.6,0,0,1,.72,0,.64.64,0,0,1,.56.53.77.77,0,0,1-.14.57.72.72,0,0,1-1.29.08.65.65,0,0,1,0-.72c.06-.07.35-.24.08-.11l1.82,2.35a2.92,2.92,0,0,0-.14-4.18,1.55,1.55,0,0,0-2.13,0,1.53,1.53,0,0,0,0,2.12l1.09,1.16-.24-1.82-.55.91a1.51,1.51,0,0,0,2.05,2,2.56,2.56,0,0,0,1.2-2.89,2.52,2.52,0,0,0-2.56-1.77l1.06,2.56c-.27.26-.54,0-.79-.12a.63.63,0,0,1-.52-.7,1.12,1.12,0,0,1,.45-.83,1.52,1.52,0,0,0-.54,2.06,1.54,1.54,0,0,0,2,.53,2,2,0,0,0,.57-3.05,2.25,2.25,0,0,0-3.34,0,1.51,1.51,0,0,0,1.06,2.56c.26,0,0-.06-.14-.1s-.12-.12,0-.05.08.05-.15-.28a.72.72,0,0,1,.08-.41c-.09.23,0,0,.1-.09l2,2.06L97,310a1.53,1.53,0,0,0-.23-1.82L95.65,307l-2.13,2.12a1,1,0,0,1,.19.17l-.09-.11c.08.15.08.14,0,0,0,.14,0,.16,0,0s0-.1,0,.05c0-.18,0-.21,0-.1s0,.08,0-.07c-.09.14-.09.13,0,0a1.51,1.51,0,0,0-.12,2,1.54,1.54,0,0,0,1.94.39,2.33,2.33,0,0,0-.29-4.27,2.2,2.2,0,0,0-2.4.74,2.22,2.22,0,0,0-.09,2.47,2.09,2.09,0,0,0,2.59.8A2.63,2.63,0,0,0,97,308.83,2.36,2.36,0,0,0,93,307.62c-1.57,1.69.66,4.62,2.65,3.31a1.58,1.58,0,0,0,.69-1.7,4,4,0,0,0-.9-1.77l-.3,2.36a1.07,1.07,0,0,1-1.06-.13,1.5,1.5,0,1,0,2.12-2.13Z" transform="translate(1 0)"/><path class="cls-16" d="M82.88,284.11l.2,0a1.51,1.51,0,0,0,1.5-1.5,1.54,1.54,0,0,0-1.5-1.5l-.2,0a1.5,1.5,0,0,0-1.5,1.5,1.54,1.54,0,0,0,1.5,1.5Z" transform="translate(1 0)"/><path class="cls-16" d="M84.31,282.62a.57.57,0,0,1-.64.59c-.48.37-.86.24-1.14-.4l.16-1.15c.17-.28.81-.59,1.16-.35a1.51,1.51,0,0,0-2,.54,1.85,1.85,0,0,0,2.51,2.52,2,2,0,0,0,1-2,2.39,2.39,0,0,0-1.15-1.69,1.5,1.5,0,0,0-1.52,2.59,1,1,0,0,1,.38-1.61h.8l.76,1-.2.76,0-.09-2,.54a2.1,2.1,0,0,0,2.26,0,1.75,1.75,0,0,0,.45-2.62,2.1,2.1,0,0,0-3.74,1.35,1.5,1.5,0,0,0,3,0Z" transform="translate(1 0)"/><path class="cls-16" d="M92.34,290.56a2.12,2.12,0,0,0,.27,2.62,2.15,2.15,0,0,0,2.68.28,2.37,2.37,0,0,0-.93-4.29,2,2,0,0,0-2.15,2,2.08,2.08,0,0,0,1.55,2.08,2,2,0,0,0,2.39-1.35,2,2,0,0,0-1.44-2.41,1.55,1.55,0,0,0-1.85,1,1.53,1.53,0,0,0,1,1.85,1.3,1.3,0,0,1-.7-.88l.2-.76c.56-.64,1.15-.54,1.77.29a.91.91,0,0,1-.62,1.07h-.79a.59.59,0,0,1-.29-.91c.53-.85,2,.13,1.45.9a1.51,1.51,0,0,0-.54-2.05,1.53,1.53,0,0,0-2,.53Z" transform="translate(1 0)"/><path class="cls-16" d="M96.58,283.06a2,2,0,1,0,2.77-1.14,2.21,2.21,0,0,0-2.78.81,1.78,1.78,0,0,0,.53,2.65,2.28,2.28,0,0,0,2.61-.32,2,2,0,0,0,.34-2.49,1.94,1.94,0,0,0-2.67-.66,1.56,1.56,0,0,0-.69,1.69,1.51,1.51,0,0,0,1.45,1.1c.19,0,.16,0-.1-.06a.49.49,0,0,1-.34-.14.7.7,0,0,1-.1-.86c.13-.32.32-.58.71-.57a.91.91,0,0,1,.65.43A1.55,1.55,0,0,0,96.9,283a1.5,1.5,0,0,0-.53,2.05,2.27,2.27,0,0,0,1.94,1.06,2.23,2.23,0,0,0,1.88-1.07,2.26,2.26,0,0,0-2-3.3l.76,2.8q-1.29.5-1.23-.72c-.31-.43-.27-.77.13-1a.79.79,0,0,1,.7,0l.54.54-.07-.11.21.76c0,1.09-1.8.94-1.69-.08l.2-.75c-.25.59,2.18-.37,1.78.78a1.5,1.5,0,0,0-1-1.84,1.53,1.53,0,0,0-1.85,1Z" transform="translate(1 0)"/><path class="cls-16" d="M78.8,267.79a2.15,2.15,0,0,0,2,2.11,2,2,0,0,0,2-1.73A1.86,1.86,0,0,0,81,266a1.9,1.9,0,0,0-2,1.84A2.38,2.38,0,0,0,81,270.1a2,2,0,0,0,2.21-1.4,2.16,2.16,0,0,0-.9-2.45,2.64,2.64,0,0,0-2.65,0l2.26,1.3c-.06-.46-.16.53-.43.68a.83.83,0,0,1-1-.24.47.47,0,0,1-.1-.2c0-.19,0-.22,0-.1s0,.08,0-.1.08-.18,0,0a1.5,1.5,0,1,0,2.59,1.51,2.47,2.47,0,0,0-1-3.57c-1.32-.55-3.24.47-3,2.05a1.58,1.58,0,0,0,.74,1.29,1.53,1.53,0,0,0,1.52,0c-.14,0-.15.05-.05,0s.09,0-.06,0a.86.86,0,0,1-.73-.6.89.89,0,0,1,.69-1.12c.14,0,1,.09,1,.29v.8q-1.23,1.89-1.85-1.07c1-.45,1.52-.26,1.65.59a1.5,1.5,0,0,0-3,0Z" transform="translate(1 0)"/><path class="cls-16" d="M89.36,255a2.32,2.32,0,0,0,.32,2.82,2.18,2.18,0,0,0,3,0,2.06,2.06,0,0,0,0-2.93,2.13,2.13,0,0,0-3,0,1.48,1.48,0,0,0-.12,2,1.52,1.52,0,0,0,1.93.38.82.82,0,0,1-1.2-.42,1.51,1.51,0,0,0,3-.4,2.11,2.11,0,0,0-2.74-2,1.56,1.56,0,0,0-1.05,1.85,1.51,1.51,0,0,0,1.85,1.05c.33-.12.13-.16-.61-.12a1,1,0,0,1-.45-.73l3-.4a2.24,2.24,0,0,0-3.21-1.37l1.82,2.36c-.38.32-1.17.43-1.42-.14l0-1a.56.56,0,0,1,.49-.34c.53-.14,1.33.43,1,1a1.53,1.53,0,0,0-.54-2.05,1.51,1.51,0,0,0-2,.54Z" transform="translate(1 0)"/><path class="cls-16" d="M91.18,257.4a1.5,1.5,0,0,0,0-3,1.5,1.5,0,0,0,0,3Z" transform="translate(1 0)"/><path class="cls-16" d="M107.2,258.52a2.27,2.27,0,0,0,2.62,1.53,2.13,2.13,0,0,0,1.53-2.56,2,2,0,0,0-3.74-.49,1.63,1.63,0,0,0,.22,1.9,1.54,1.54,0,0,0,2,.54,1.51,1.51,0,0,0,.54-2.05l-.24-.34v1.52c-.43.95-2,.08-1.73-.81a.85.85,0,0,1,1.64,0,1.55,1.55,0,0,0-1.84-1.05,1.51,1.51,0,0,0-1,1.85Z" transform="translate(1 0)"/><path class="cls-16" d="M115.31,260.4c.35,2,3.38,2,3.87.1a2.06,2.06,0,0,0-3.48-1.92,2.11,2.11,0,0,0,2.12,3.46,2.26,2.26,0,0,0,.45-4.14,1.5,1.5,0,1,0-1.51,2.59.75.75,0,0,1,0-1.13.55.55,0,0,1,.52-.22.94.94,0,0,1,.89.9,1,1,0,0,1-.26.58l-1,.24-.55-.42,0-1a1,1,0,0,1,1-.52c.23.06.75.39.8.67a1.51,1.51,0,0,0-1.84-1.05,1.53,1.53,0,0,0-1,1.85Z" transform="translate(1 0)"/><path class="cls-16" d="M108.05,246.61a2.51,2.51,0,0,0-.67,1.66,1.73,1.73,0,0,0,1.7,1.63,1.86,1.86,0,0,0,1.45-3.09c-1.25-1.34-3.38.11-3,1.76a1.87,1.87,0,0,0,3.16.81,1.54,1.54,0,0,0,0-2.12,1.52,1.52,0,0,0-2.12,0l1.26-.18.53.53.07.16v.8l-.42.52-.76.2h.13l-1.07-.44.08.09-.38-.66.1-.71.54-.54.71-.11.66.39-.09-.09.44,1.06a.68.68,0,0,1-.21.46,1.55,1.55,0,0,0,0-2.12,1.5,1.5,0,0,0-2.12,0Z" transform="translate(1 0)"/><path class="cls-16" d="M114.66,242.75a2.84,2.84,0,0,0,1-1,1.52,1.52,0,0,0-.54-2.06,1.86,1.86,0,0,0-2.19.28,1.8,1.8,0,0,0-.21,2.34,1.84,1.84,0,0,0,3.26-1.15,1.5,1.5,0,0,0-3,0l0-.22.39-.66A1.49,1.49,0,0,1,114,240l.75.21.16.13.39.66,0,.21-.21.75-.89.48-.76-.2.09,0-.54-2,.12-.11a1.5,1.5,0,0,0,1.51,2.59Z" transform="translate(1 0)"/><path class="cls-16" d="M129.13,247a1.84,1.84,0,0,0-1.07,1.81,1.7,1.7,0,0,0,3.3.19,1.94,1.94,0,0,0-1.08-2.1l.54,2.05.05-.07-.54.54.07,0-.76.21-1.07-.86V248l0,.08a1.5,1.5,0,0,0,2.89.8,1.76,1.76,0,0,0-3.21-1.37,1.51,1.51,0,0,0,.54,2.05c-.21-.32-.27-.36-.15-.13v-1.52l0,.07.54-.53-.06,0,.76-.21.52.16.54.54,0-.06.21.76v-.08l-.74,1.29.35-.23a1.54,1.54,0,0,0,.54-2.06,1.51,1.51,0,0,0-2.05-.53Z" transform="translate(1 0)"/><path class="cls-16" d="M132,233l-.4.35a1.5,1.5,0,0,0,.3,2.35,2.35,2.35,0,0,0,1.72.24,1.45,1.45,0,0,0,1-1.05,2.08,2.08,0,0,0-.92-2.26,1.54,1.54,0,0,0-1.82.24,1.74,1.74,0,0,0-.29,2.23,1.53,1.53,0,0,0,2.05.54,1.51,1.51,0,0,0,.54-2l.07.18v.8l-.25.42-1.82.23-.11-.05-.38-.67,0-.41,1.05-1.05.58.07.31,2.36.4-.35A1.5,1.5,0,0,0,132,233Z" transform="translate(1 0)"/><path class="cls-16" d="M134.48,236.28l.38.48a1.52,1.52,0,0,0,2.12,0,1.9,1.9,0,0,0,.32-2.35,1.47,1.47,0,0,0-1.29-.75,2,2,0,0,0-1.92,2.18,1.85,1.85,0,0,0,2.8,1.13,1.55,1.55,0,0,0,.68-1.69,2.2,2.2,0,0,0-.56-1.08,1.5,1.5,0,0,0-2.12,2.12l-.21-.24.69-1.7.95,0,.74,1.3-.41.83-.76.21.12,0-1.3-.74-.07-.13V235l.22-.35H137l-.38-.48a1.5,1.5,0,0,0-2.12,0,1.54,1.54,0,0,0,0,2.12Z" transform="translate(1 0)"/><path class="cls-16" d="M138,234.87a1.79,1.79,0,1,0,2.51,2.1,1.85,1.85,0,0,0-.8-2.08,1.51,1.51,0,0,0-1.51,0,2.33,2.33,0,0,0-.74.58,1.56,1.56,0,0,0-.23,1.82,2,2,0,0,0,2.74.7,1.53,1.53,0,0,0,.53-2.05,1.5,1.5,0,0,0-2.05-.54,1.11,1.11,0,0,1,1.37.37l-.24,1.82c.22-.26-.17,0,.13-.11h-1.51l.07.05-.54-.53.39-1.55.76-.2.23,0,.66.39-.26,1.79a1.51,1.51,0,0,0,.54-2.05,1.53,1.53,0,0,0-2-.54Z" transform="translate(1 0)"/><path class="cls-16" d="M140.4,235.33a1.5,1.5,0,0,0,0-3,1.5,1.5,0,0,0,0,3Z" transform="translate(1 0)"/><path class="cls-16" d="M145.35,232.19a1.82,1.82,0,0,0,1.52.5,1.74,1.74,0,0,0,1.3-.9,1.52,1.52,0,0,0-1.29-2.26l-.61,0,1.07,2.57-1.91-.78a1.5,1.5,0,0,0,1.5,1.5,1.53,1.53,0,0,0,1.5-1.5,1.9,1.9,0,0,0-3.22-1.35,1.52,1.52,0,0,0,1.06,2.56l.61,0-1.3-2.26.12-.15.66-.39.52,0,.66.38-.07-.06a1.55,1.55,0,0,0-2.12,0,1.5,1.5,0,0,0,0,2.12Z" transform="translate(1 0)"/><path class="cls-16" d="M148,230.5a1.87,1.87,0,0,0,2.55-.58,1.72,1.72,0,1,0-3.26-.59,1.78,1.78,0,0,0,2.23,1.49,1.51,1.51,0,0,0,1.05-1.84,1.53,1.53,0,0,0-1.85-1l-.1,0h.8l.18.07.54.54.07.17v.8l0-.1-.39.66.06-.06-.66.39-1.08-.29-.39-.66,0,.09.39-1.46.12-.12.76-.2.44.13A1.5,1.5,0,0,0,148,230.5Z" transform="translate(1 0)"/><path class="cls-16" d="M155.87,221.79a2.13,2.13,0,0,0,2.6-1.43,1.52,1.52,0,0,0-1.05-1.85,2,2,0,0,0-2.51,1.23,1.78,1.78,0,0,0,1.66,2.24A1.5,1.5,0,0,0,157,219a1.94,1.94,0,0,0-1.32.16,1.66,1.66,0,0,0,.45,3.08,1.5,1.5,0,1,0,.8-2.89l-.11,0,.67.39-.08-.08.38.66v-.11l-.15,1.15.05-.09-.53.53.1,0-1.16.15h.11l.4-2.94h-.08l.76.2-.07,0,.54.54v1.1l-.53.54a1.19,1.19,0,0,1-.55.1l-1-1.85a1,1,0,0,1,1.09-.67,1.5,1.5,0,0,0-.8,2.9Z" transform="translate(1 0)"/><path class="cls-16" d="M142.41,249.22a1.93,1.93,0,0,0,.06,2.84,2.16,2.16,0,0,0,3-.2,1.88,1.88,0,0,0-.41-2.91,1.82,1.82,0,0,0-2.61,1.05,1.49,1.49,0,0,0,1,1.84,1.54,1.54,0,0,0,1.85-1l0-.08-.39.66-1.79-.2-.21-.75c.51-1.29,1-1,1.55.91a1.51,1.51,0,0,0,0-2.12,1.53,1.53,0,0,0-2.12,0Z" transform="translate(1 0)"/><path class="cls-16" d="M153.37,242.8c1.36,1.5,3.91-.48,2.67-2.14a1.81,1.81,0,0,0-3.11,1.74,2,2,0,0,0,3.35.67c1.07-1.17.16-3.43-1.52-3.26a1.53,1.53,0,0,0-1.48,1.3,1.49,1.49,0,0,0,1.08,1.65l.31.06a1.54,1.54,0,0,0,1.85-1,1.51,1.51,0,0,0-1.05-1.84l-.32-.07-.39,2.95c-.41,0-1.19-.68-1-1.2l.39-.67a1,1,0,0,1,1.56.38l-.15,1.15-1.46.39-.75-1.3v.1l.2-.76.12-.17.66-.39.54,0,.66.38-.06-.06a1.5,1.5,0,0,0-2.12,2.12Z" transform="translate(1 0)"/><path class="cls-16" d="M158.87,234.16a2.12,2.12,0,0,0,2.24-.72,1.79,1.79,0,0,0-.39-2.5,1.57,1.57,0,0,0-2.12,0l-.45.35a1.52,1.52,0,0,0,0,2.12,1.55,1.55,0,0,0,2.13,0l.44-.35H158.6c.26.23-.06-.18.1.12v-1.51a1,1,0,0,1,1-.41,1.52,1.52,0,0,0-1.85,1.05,1.54,1.54,0,0,0,1.05,1.85Z" transform="translate(1 0)"/><path class="cls-16" d="M162.68,227.84a1.93,1.93,0,0,0,.34,2.29,1.83,1.83,0,0,0,2.36.17,1.9,1.9,0,0,0-1.17-3.36,1.5,1.5,0,1,0,0,3l-.8-1.88.66-.38,1.36,1-.2.76,0-.1a1.54,1.54,0,0,0-.54-2,1.51,1.51,0,0,0-2,.54Z" transform="translate(1 0)"/><path class="cls-16" d="M170.18,230.8a1.85,1.85,0,0,0,1.54,2.81c1.64,0,2-2,1.32-3.15a1.52,1.52,0,0,0-2.35-.31l-.46.38,2.36,1.82a1.1,1.1,0,0,1-1.17.48.65.65,0,0,1-.55-.72c-.09-.32-.23-.77.21-.91a1.53,1.53,0,0,0-1,1.85,1.51,1.51,0,0,0,1.84,1c1.41-.43,2.42-2.08,1.42-3.4a2,2,0,0,0-3.3.14,1.51,1.51,0,0,0,.38,1.94,1.53,1.53,0,0,0,2-.12l.46-.37-2.36-.31a.74.74,0,0,1,0-.62l1.29-.74.21,0,.66.39.13,1.29a1.51,1.51,0,0,0-.54-2.05,1.54,1.54,0,0,0-2,.54Z" transform="translate(1 0)"/><path class="cls-16" d="M169.92,230.57a2,2,0,0,0,.44,3.16,1.53,1.53,0,0,0,2-.54,1.51,1.51,0,0,0-.53-2.05,1,1,0,0,1,.16,1.55,1.53,1.53,0,0,0,0-2.12,1.51,1.51,0,0,0-2.12,0Z" transform="translate(1 0)"/><path class="cls-16" d="M167.1,216.11l.18.22a1.5,1.5,0,0,0,2.12-2.12l-.18-.23a1.52,1.52,0,0,0-2.12,0,1.54,1.54,0,0,0,0,2.13Z" transform="translate(1 0)"/><path class="cls-16" d="M168.47,216.47a1.5,1.5,0,0,0,0-3,1.5,1.5,0,0,0,0,3Z" transform="translate(1 0)"/><path class="cls-16" d="M174.39,218.25a1.93,1.93,0,0,0,1.4,1.88,1.51,1.51,0,0,0,1.85-1,2,2,0,0,0-.48-1.82,1.49,1.49,0,0,0-1.46-.39,2.11,2.11,0,0,0-1.55,2,2,2,0,0,0,2,1.94,2,2,0,0,0,2-1.71,2.06,2.06,0,0,0-1.48-2.24,1.5,1.5,0,0,0-1.84,1.05,1.52,1.52,0,0,0,1,1.84l-.66-.67c.07-1,.43-1.39,1.08-1.19.44,0,.63.19.56.73.39.53.28.9-.33,1.13l-1.46-.39.08.1-.38-.66,0,.13v-.8l0,.13,1.85-1-.11,0,.66.39.25.66a1.51,1.51,0,0,0-1.5-1.5,1.54,1.54,0,0,0-1.5,1.5Z" transform="translate(1 0)"/><path class="cls-16" d="M180.44,220.65a1.86,1.86,0,0,0,3.13-.81,1.53,1.53,0,0,0-1.45-1.9,2,2,0,0,0-1.83,1.05,1.51,1.51,0,0,0,.53,2,2.2,2.2,0,0,0,3-.81,1.51,1.51,0,0,0,0-1.51,2.11,2.11,0,0,0-3.78.48,1.52,1.52,0,0,0,1.05,1.85,1.54,1.54,0,0,0,1.85-1.05.93.93,0,0,1-1.71.23v-1.51a.89.89,0,0,1,1.14-.27l.54,2.05-.76.44-1.44-1.9,1.88-.51a1.51,1.51,0,0,0-2.12,0,1.53,1.53,0,0,0,0,2.12Z" transform="translate(1 0)"/><path class="cls-16" d="M181.07,216.75a1.5,1.5,0,0,0,0-3,1.5,1.5,0,0,0,0,3Z" transform="translate(1 0)"/><path class="cls-16" d="M186.08,212.49v.38a1.54,1.54,0,0,0,1.1,1.45,2,2,0,0,0,2.57-1.42,1.53,1.53,0,0,0-1.05-1.84,1.81,1.81,0,0,0-2.24,2.24,1.53,1.53,0,0,0,1.84,1,1.83,1.83,0,0,0,1-.59,1.5,1.5,0,0,0,.39-1.46,2.71,2.71,0,0,0-.72-1.13,1.54,1.54,0,0,0-2.12,0,1.52,1.52,0,0,0,0,2.12c.18.18.16.12-.05-.19l.38-1.46.31-.18,1.85,1.05,0,.2-.2.75-.32.33-.76.2-.2,0-1-1.84a1,1,0,0,1,1.12-.68l1.1,1.44v-.38a1.5,1.5,0,0,0-3,0Z" transform="translate(1 0)"/><path class="cls-16" d="M192.47,229.94a2.11,2.11,0,0,0,2.95-.63,2.14,2.14,0,0,0-.71-2.9,1.76,1.76,0,0,0-2.65,1.6,2.27,2.27,0,0,0,1.74,2.08,1.74,1.74,0,0,0,2.08-2.32,2.24,2.24,0,0,0-2.59-1.27,2.17,2.17,0,0,0-1.58,2.2,2.24,2.24,0,0,0,2,2.13,2.34,2.34,0,0,0,2.55-1.79,2.5,2.5,0,0,0-1.78-2.87,1.53,1.53,0,0,0-1.85,1.05,1.55,1.55,0,0,0,1,1.85c-.74-.23-.23-1.63.69-1.06a.63.63,0,0,1,.25,1,.8.8,0,0,1-1.49-.11v-.8l0,.09.39-.66,1.05-.3a.44.44,0,0,1,.31.22c.36.36.45.82-.09,1.35l-.66.39-.17,0-.76-.21-.37-.52a.59.59,0,0,1,.31-.77.45.45,0,0,1,.66-.29c.37.1.45.09.25,0a1.5,1.5,0,0,0-2,.54,1.54,1.54,0,0,0,.54,2.05Z" transform="translate(1 0)"/><path class="cls-16" d="M196.54,239.23a2.35,2.35,0,0,0,0,3.1,2.24,2.24,0,0,0,3.63-2.56,2.26,2.26,0,0,0-2.82-1A2.3,2.3,0,0,0,196,241.3a2.11,2.11,0,0,0,2.13,1.66,2.21,2.21,0,0,0,2.1-1.7,1.79,1.79,0,0,0-.54-1.72,1.65,1.65,0,0,0-2.27,0,1.51,1.51,0,0,0,0,2.12,1.54,1.54,0,0,0,2.12,0l.07,0-1.46.38.08,0-.66-.39-.23-.4v-.8c-.05.25,0,.15.23-.3a.46.46,0,0,1,.23-.14.69.69,0,0,1,.68.09c.67.39.61,1.45-.33,1.44a.76.76,0,0,1-.38-1.39.82.82,0,0,1,.94.14c.38.32.21.74,0,1a1.55,1.55,0,0,0,0-2.12,1.52,1.52,0,0,0-2.13,0Z" transform="translate(1 0)"/><path class="cls-16" d="M190.77,206.54a1.73,1.73,0,0,0,1.91,1.27,1.7,1.7,0,0,0,1.49-1.72,1.82,1.82,0,0,0-1.75-1.77,1.92,1.92,0,0,0-1.85,1.37,2,2,0,1,0,2.83-1.26,1.53,1.53,0,0,0-2.05.54,1.51,1.51,0,0,0,.54,2.05,1,1,0,0,1-.41-1.07q2.16-1.81,1.78,1l-.66.38h-.47l-.67-.38-.09-.13-.21-.75,0-.19.39-.66-.07.06.66-.38.22,0,.76.21.15.13.39.66,0-.08a1.5,1.5,0,0,0-2.9.79Z" transform="translate(1 0)"/><path class="cls-16" d="M202.39,197.05c-.59,1.45,1.35,2.66,2.5,1.77a1.6,1.6,0,0,0,.57-1.72,1.68,1.68,0,0,0-1.58-1.18,1.52,1.52,0,0,0-1.45,1.1c-.67,1.85,2,3.21,3.19,1.7a1.86,1.86,0,0,0-2.44-2.67,1.54,1.54,0,0,0-.54,2.06,1.51,1.51,0,0,0,2.05.53l-.19.09h-.79a1.27,1.27,0,0,1-.72-1l.2-.76.12-.16.66-.38,1.35,1.39-1.44,1.1H204l-1.06-.44,0,.07-.38-.67V198l.15-1.16,0,.07,1.29-.74h-.08l1.06.44-.06-.05.38.66,0-.08v.8l0-.08a1.5,1.5,0,0,0-1.05-1.84,1.54,1.54,0,0,0-1.84,1.05Z" transform="translate(1 0)"/><path class="cls-16" d="M203.06,209.72a2,2,0,0,0,2.19,1,1.81,1.81,0,0,0,1.24-2.16,1.5,1.5,0,0,0-1.05-1,2.06,2.06,0,0,0-1.74.26,1.52,1.52,0,0,0-.54,2.05,1.8,1.8,0,1,0,3.09-1.75,1.91,1.91,0,0,0-2.53-.44,2.23,2.23,0,0,0-.83,2.66,1.52,1.52,0,0,0,1.44,1.1,2.27,2.27,0,0,0,2.25-1.51,1.88,1.88,0,0,0-1.32-2.34,1.5,1.5,0,1,0-.79,2.89c.58-1.55.51-2.23-.19-2h.05l1.45,1.1c-.05-.21-.07-.21-.07,0,0,.67-.56.86-1.7.55l-.39-.66.53-1.2.76-.21h-.1l1.07.44c-.28-.21,0,.18-.13-.12l-.54,2.06a1.83,1.83,0,0,1-.57,0l-1-1,0,.1v-.79l0,.09.39-.66.14-.11.75-.21.8.42a1.5,1.5,0,0,0-2.59,1.52Z" transform="translate(1 0)"/><path class="cls-16" d="M204.87,210.41a1.5,1.5,0,0,0,0-3,1.5,1.5,0,0,0,0,3Z" transform="translate(1 0)"/><path class="cls-16" d="M211.88,210.06a1.5,1.5,0,0,0,0-3,1.5,1.5,0,0,0,0,3Z" transform="translate(1 0)"/><path class="cls-16" d="M214.59,211.44a2.5,2.5,0,0,0,1,1,1.53,1.53,0,0,0,2.21-.89,1.84,1.84,0,1,0-3.59-.48,1.5,1.5,0,0,0,.74,1.29,1.86,1.86,0,0,0,2.52-.57,1.81,1.81,0,0,0-.73-2.4,1.53,1.53,0,0,0-1.82.24,1.71,1.71,0,0,0,0,2.44,1.5,1.5,0,0,0,2.12-2.12l-.07-.07.39.66,0-.09v.8l0-.1-.39.66.07-.06-1.82.23-.14-.09-.39-.66V211l.74-1.29.4-.11.76.2-.11-.06.74,1.3v.15l-.38.66-.11.07-.75.2-.44-.11-.54-.54-.07-.75,2.2-.9c-.26-.14,0,0,.08.11a1.5,1.5,0,0,0-2.59,1.51Z" transform="translate(1 0)"/><path class="cls-16" d="M221.46,215.56a2.05,2.05,0,0,0,1.57.18,1.52,1.52,0,0,0,.36-2.74,1.85,1.85,0,0,0-2.56.65,1.83,1.83,0,0,0,1.2,2.62c.85.17,2-.4,1.9-1.44l-.05.21-.39.66.06-.07-1.46.39h.07l-.89-.69,0,.07.23-1.82,0,0a1.54,1.54,0,0,0,0,2.12,1.52,1.52,0,0,0,2.12,0l0,0a1.55,1.55,0,0,0,.24-1.82,1.6,1.6,0,0,0-3,.93l1.9-1.45.14.06.54.54.05.15v.79l-.24.4-.66.39-.78-.12.36-2.74.11,0,.76.2L223,213a1.5,1.5,0,1,0-1.51,2.59Z" transform="translate(1 0)"/><path class="cls-16" d="M214.78,197.17l.37.42a1.56,1.56,0,0,0,1.82.24,1.88,1.88,0,0,0,.32-3.29,1.74,1.74,0,0,0-2.57,1.9,1.5,1.5,0,1,0,2.89-.79v.72l0-.06-.39.66-1.39.21-.54-.54,0,.07-.21-.76c.59-.67.7-.91.32-.72l1.82.24-.37-.42a1.51,1.51,0,0,0-2.12,0,1.54,1.54,0,0,0,0,2.12Z" transform="translate(1 0)"/><path class="cls-16" d="M217.55,198.52a2.53,2.53,0,0,0,2.38,1.59,2,2,0,0,0,1.84-2.56,2.26,2.26,0,0,0-2.71-1.4,2.3,2.3,0,0,0-1.86,2.71,2.36,2.36,0,0,0,2.86,1.49,2.77,2.77,0,0,0,2-2.4,2.2,2.2,0,1,0-4.4-.07,1.5,1.5,0,0,0,3,0,.82.82,0,0,1-1.36.47l-.23-.56c.13-.35.13-.4,0-.17.45-.41,1,0,1,.59l-.44,1.06c.12-.12.21-.28.29-.26a.64.64,0,0,1-.49,0c-.36-.09-.39-.4-.1-.92-.25-.66-.1-1,.47-1a.79.79,0,0,1,.49.2l0,0c-.05-.09-.1-.17-.14-.26a1.5,1.5,0,1,0-2.59,1.51Z" transform="translate(1 0)"/><path class="cls-16" d="M224.19,202.7a1.64,1.64,0,0,0,.88-3,1.76,1.76,0,0,0-2.62,1.54,1.5,1.5,0,0,0,3,0v-.09l-.2.76-.35.36-.75.2-.23,0-.66-.39.06.07-.44-1.06v.1l.44-1.06-.08.07,1.06-.43h-.1a1.5,1.5,0,0,0,0,3Z" transform="translate(1 0)"/><path class="cls-16" d="M219.64,199.72a1.5,1.5,0,0,0,0-3,1.5,1.5,0,0,0,0,3Z" transform="translate(1 0)"/><path class="cls-16" d="M226.09,195.9l0,0a1.5,1.5,0,0,0,1.52,0,1.68,1.68,0,0,0,.8-1.67,1.57,1.57,0,0,0-1.93-1.29,1.71,1.71,0,0,0-.45,3.1,1.76,1.76,0,1,0,0-3,1.54,1.54,0,0,0-.54,2.05,1.51,1.51,0,0,0,2.05.54l-.82.12-.66-.39-.25-.43v-.8l0,.08.39-.66,1-.29.66.39-.06-.07.39.67,0-.11v.8l0-.1-.39.66.07-.08-.67.39.1,0-1.46-.38,0,0-.44-1.06v.07l.2-.75,0,.07.54-.54-.06,0h1.52l-.06,0a1.54,1.54,0,0,0-2,.53,1.52,1.52,0,0,0,.54,2.06Z" transform="translate(1 0)"/><path class="cls-16" d="M221.28,193.31a1.5,1.5,0,0,0,0-3,1.5,1.5,0,0,0,0,3Z" transform="translate(1 0)"/><path class="cls-16" d="M233.11,192.27a1.82,1.82,0,0,0,2.09.81,1.79,1.79,0,0,0,1.25-2.13,1.86,1.86,0,0,0-3.62.19,1.92,1.92,0,0,0,3.51,1.29,2,2,0,0,0,0-2.15,2.18,2.18,0,0,0-2.39-.9,1.5,1.5,0,0,0,.8,2.9c-.44.11-.69-.09-.75-.61q-1.17-1.63,1.75,0l-.38.66a1.27,1.27,0,0,1-1.23.18l-.54-.54-.13-.51.21-.75a1.16,1.16,0,0,1,1.5-.39l.54.54-.05-.07a1.5,1.5,0,1,0-2.59,1.51Z" transform="translate(1 0)"/><path class="cls-16" d="M241.22,201.26a2.22,2.22,0,0,0,1.35,1.05,1.51,1.51,0,0,0,1.46-.39,1.88,1.88,0,0,0-.85-3.12,1.91,1.91,0,0,0-2.21,2.42,2,2,0,0,0,3.26.77,2.15,2.15,0,0,0-.5-3.34,1.51,1.51,0,0,0-2,.54,1.53,1.53,0,0,0,.54,2.05c-.52-.37-.49-.88.1-1.54.56,1.56,1.06,2,1.49,1.4l-.54.54-1.68-1.25.39-.66-.07.07,1.46-.38a1,1,0,0,1,.44.33,1.5,1.5,0,0,0-2.59,1.51Z" transform="translate(1 0)"/><path class="cls-16" d="M250.08,193.46a1.9,1.9,0,0,0,1.74,1.38,1.86,1.86,0,0,0,1.84-1.28,2.1,2.1,0,0,0-2.25-2.7,1.56,1.56,0,0,0-1.3.74,1.51,1.51,0,0,0,0,1.51,5.08,5.08,0,0,0,1,1.25,1.46,1.46,0,0,0,1.46.38,2.16,2.16,0,0,0,1.49-2.5,2,2,0,0,0-2-1.62,2.11,2.11,0,0,0-2.06,1.62,2.15,2.15,0,0,0,1.59,2.52,1.5,1.5,0,0,0,.79-2.89.8.8,0,0,1,.54.82.5.5,0,0,1-.34.57.52.52,0,0,1-.52.36.91.91,0,0,1-.27-1.77l1.46.39a1.91,1.91,0,0,1-.49-.64l-1.29,2.26c.17,0,.17,0,0-.05a1,1,0,0,1-.63-1.05l.39-.66h1.46l.38.66,0-.1a1.5,1.5,0,1,0-2.89.8Z" transform="translate(1 0)"/><path class="cls-16" d="M243.07,182.44l.27.3a1.55,1.55,0,0,0,2.12,0,2,2,0,0,0,.55-2.1l-1.84,1.85.08,0-.67-.39a1.18,1.18,0,0,1,0-1.5l.66-.38c1.74.52,2,1.27.67,2.23a1.5,1.5,0,1,0-.79-2.89,1.84,1.84,0,1,0,2.12,2.23,1.86,1.86,0,0,0-1.25-2.23,1.52,1.52,0,0,0-1.85,1.85,1.18,1.18,0,0,1,.22-.83h2.12l-.27-.29a1.5,1.5,0,0,0-2.12,2.12Z" transform="translate(1 0)"/><path class="cls-16" d="M253.43,177.25a1.71,1.71,0,0,0,1.33-3.12,1.51,1.51,0,0,0-2.25,1.3v.43a1.52,1.52,0,0,0,1.5,1.5,1.54,1.54,0,0,0,1.5-1.5v-.43l-2.26,1.3.07,0-.54-.54,0,.06-.21-.75.31-.79.66-.38h.73l-.08,0a1.5,1.5,0,0,0-1.84,1,1.55,1.55,0,0,0,1.05,1.85Z" transform="translate(1 0)"/><path class="cls-16" d="M251.05,179.12a1.72,1.72,0,1,0,2.78-1.93,1.75,1.75,0,0,0-2.49,0,1.84,1.84,0,0,0-.12,2.45,1.89,1.89,0,1,0,1.39-3.13A1.74,1.74,0,0,0,251,178.7a1.5,1.5,0,0,0,2.89-.8v-.09l-.15,1.16-.13.17-.66.38.23-2.05.54.53-.14,1.27-.66.39-.2,0-1.06-.44-.11-.14-.2-.75,0-.19.38-.66-.07.08,1.46-.39.52.41a1.5,1.5,0,1,0-2.59,1.52Z" transform="translate(1 0)"/><path class="cls-16" d="M258.06,179.66a2,2,0,0,0,.86,2.2,1.9,1.9,0,0,0,2.33-.23c1.15-1.18.31-3.54-1.47-3.3a1.86,1.86,0,0,0-.63,3.43,1.81,1.81,0,0,0,2.38-.68,1.87,1.87,0,0,0-.25-2.26,1.5,1.5,0,0,0-2.12,0,1.53,1.53,0,0,0,0,2.12l.06.07-.38-.66L259.9,179l.76.21-.28,2.08h-.8l-.74-.73,2.11-.06a1.5,1.5,0,1,0-2.89-.8Z" transform="translate(1 0)"/><path class="cls-16" d="M283.24,170.17a1.87,1.87,0,0,0,2.4.8,1.73,1.73,0,0,0,.71-2.54,2,2,0,0,0-2.23-.86,1.92,1.92,0,0,0-1.33,2.15,2,2,0,0,0,1.7,1.73,2.06,2.06,0,0,0,2.13-1.13,2.24,2.24,0,0,0-2.73-3.07,1.53,1.53,0,0,0-1.05,1.84,1.52,1.52,0,0,0,1.85,1c.19,0,.15-.06-.1,0a.37.37,0,0,1-.34-.07,1,1,0,0,1-.27-1.12l.54-.39c.8-.05,1.21.25,1.23.89l-1.35,1.05a1.21,1.21,0,0,1-.69-.64V169l0,.09.39-.66-.08.07.66-.39,1.17.51a1.5,1.5,0,1,0-2.59,1.51Z" transform="translate(1 0)"/><path class="cls-16" d="M297.42,166.81l.36.42a1.53,1.53,0,0,0,1.82.24,1.89,1.89,0,1,0-2-3.23,2,2,0,0,0-.62,2.68,2.2,2.2,0,0,0,1.18.92,2.86,2.86,0,0,0,1.66-.19,1.51,1.51,0,0,0,1-1.84,2.62,2.62,0,0,0-2-1.9,1.5,1.5,0,1,0-.8,2.89c.26,0,0,0-.06-.1l-.06-.1c.09.15.09.15,0,0l1.05-1.85-.74.21h.8c.5.19.54.54.1,1.07.1.7-.15,1-.72.89l-.66-.39.24-1.66,1.82.23-.36-.42a1.51,1.51,0,0,0-2.12,0,1.53,1.53,0,0,0,0,2.12Z" transform="translate(1 0)"/><path class="cls-16" d="M291.3,159.87a2.4,2.4,0,0,0,.95.66,1.76,1.76,0,0,0,1.27-.17,1.87,1.87,0,0,0,1-1.64,1.84,1.84,0,0,0-3.15-1.19,1.5,1.5,0,0,0,2.12,2.12l-.13.11-.76.21-.67-.3-.39-.66,0-.18.2-.76.57-.43,1.46.38-.29-.27a1.53,1.53,0,0,0-2.12,0,1.51,1.51,0,0,0,0,2.12Z" transform="translate(1 0)"/><path class="cls-16" d="M309.23,172.08a1.82,1.82,0,0,0,.89,3.39,1.51,1.51,0,0,0,1.5-1.5c-.08-1.4-1.41-2.69-2.82-1.83a2,2,0,1,0,2.94,1.13,2.12,2.12,0,0,0-1.38-1.34,1.5,1.5,0,0,0-1.85,1,1.54,1.54,0,0,0,1.05,1.85l-.67-.64c.42-1.41.9-1.66,1.43-.75.49.21.6.48.34.83a.65.65,0,0,1-.48.55l-1.16-.15-.4-.69,1.5-1.5H310l.75.21a1.25,1.25,0,0,1,.52,1.2l-.38.66-.18.14a1.5,1.5,0,1,0-1.52-2.59Z" transform="translate(1 0)"/><path class="cls-16" d="M308,196.58a2.39,2.39,0,0,0,2.91,1.17,2.41,2.41,0,0,0,1.47-2.95,2,2,0,0,0-1.54-1.42,2.53,2.53,0,0,0-1.78.49,2.5,2.5,0,0,0-.95,3.29,2.13,2.13,0,0,0,3.31.55,2.65,2.65,0,0,0,.21-3.26,2,2,0,0,0-3.45.18,2.15,2.15,0,0,0,1.86,2.94,2,2,0,0,0,1.85-3,2,2,0,0,0-3.49.53,1.5,1.5,0,0,0,2.89.8c-.65,1-1.17,1.07-1.56.11-.82-.6-.68-1.06.43-1.39.46,0,1,.49.84,1l-.38.67-.71.25a.85.85,0,0,1-.8-.47s0-.25,0-.1.05-.15.09-.2l1.09-.42a.64.64,0,0,1,.39.26.72.72,0,0,1,0,.81c.05-.09.15-.1,0,0a1,1,0,0,1,.18-.1c.15-.08.08-.05-.23.08l-.75-.21a.65.65,0,0,1,.11-1.24.61.61,0,0,1,.44.06c.09.06.27.36.15.09a1.52,1.52,0,0,0-2.06-.54,1.54,1.54,0,0,0-.53,2.06Z" transform="translate(1 0)"/><path class="cls-16" d="M301.93,196.39a2,2,0,0,0,2.62,1.89,2.67,2.67,0,0,0,1.82-2.91,1.92,1.92,0,0,0-1.15-1.38,2,2,0,0,0-2.06.41,2.27,2.27,0,0,0-.54,3.11,2,2,0,0,0,3.11,0,2.11,2.11,0,0,0-.59-3.07,2.2,2.2,0,0,0-2.95.86,2.29,2.29,0,0,0,.9,3,2.35,2.35,0,0,0,3.18-1A2.5,2.5,0,0,0,305.2,194a1.54,1.54,0,0,0-2.05.54,1.52,1.52,0,0,0,.54,2c.27.14,0,0-.06-.09a.62.62,0,0,1,0-.63.72.72,0,0,1,1.16,0,.84.84,0,0,1-.29,1.13c-.53.25-1.42-.11-1.35-.78l1-1c1,.61,1.32,1.12.87,1.5-.06.06,0,0,.09-.1s.11-.14-.23.12h-.79c-.17-1.3-.39-1.71-.67-1.23-.06.09-.06.09,0,0s1.48.51,1.09,0l.39.66v.17a1.5,1.5,0,0,0-3,0Z" transform="translate(1 0)"/><path class="cls-16" d="M283.63,203a2.11,2.11,0,0,0,.82,1.6,2,2,0,0,0,1.72.37,2.12,2.12,0,0,0,1.46-2.68,2.21,2.21,0,0,0-2.71-1.39,2.28,2.28,0,0,0-1.56,2.29,2.17,2.17,0,1,0,2.75-2.2,2.17,2.17,0,0,0-2.63,1.61,1.54,1.54,0,0,0,1,1.85,1.52,1.52,0,0,0,1.84-1c.06-.22,0-.17-.17.14a.4.4,0,0,1-.4.32c-.4.11-1-.08-1.07-.52a1,1,0,0,1,.48-1.06.72.72,0,0,1,.72.05.79.79,0,0,1,.19,1.21.79.79,0,0,1-.94.17l-.45-.78c.2-1,.83-1,1.9.07a1.5,1.5,0,1,0-3,0Z" transform="translate(1 0)"/><path class="cls-16" d="M264.52,210.49A1.94,1.94,0,0,0,265,214a2.15,2.15,0,0,0,2.43-2.87c-.23-.56-.76-1.19-1.45-1.11-1.09.13-2.25.53-2.54,1.74a2.08,2.08,0,0,0,2.44,2.48,2.16,2.16,0,0,0,1.58-2.68,2.26,2.26,0,0,0-2.87-1.46,1.54,1.54,0,0,0-1,1.84,1.51,1.51,0,0,0,1.85,1.05c.25-.07.15-.09-.31-.05a.84.84,0,0,1,.13-1.61c.81-.11,1.11.19.89.9.18.36.14.62-.11.78s-.16.07,0,0,.17,0,0,0l-1.45-1.1c.06.17.07.18,0,0q1.13-2.19,1.46,1.12a1.5,1.5,0,0,0-1.51-2.6Z" transform="translate(1 0)"/><path class="cls-16" d="M308,164.93a2.19,2.19,0,0,0,2,2.32,2.14,2.14,0,0,0,2.16-1.61,2,2,0,1,0-4-.8c-.15,1.08.66,2.62,1.89,2.62a2.3,2.3,0,0,0,2.2-2,2,2,0,0,0-3.9-.81,1.53,1.53,0,0,0,1.05,1.85,1.51,1.51,0,0,0,1.84-1,1,1,0,0,1-1.65.46c-.36-.49-.4-.92-.12-1.27.36-.17.42-.23.18-.17l1.46.39c.05.08.05.08,0,0s-.06-.08,0,0l-.7,1.18a.59.59,0,0,1-.83-.48c-.33-.18-.43-.41-.31-.69a.7.7,0,0,1,.58-.62l.87.19c.15.63.24.78.25.44a1.5,1.5,0,0,0-1.5-1.5,1.54,1.54,0,0,0-1.5,1.5Z" transform="translate(1 0)"/><path class="cls-16" d="M329.22,196l-.88.76a1.49,1.49,0,0,0,0,2.12,2,2,0,0,0,3.32-1.45,2.26,2.26,0,0,0-1.09-1.86,2.89,2.89,0,0,0-2.23-.21,1.52,1.52,0,0,0-1.1,1.45,3,3,0,0,0,1.55,2.66,2.35,2.35,0,0,0,3-.74,2.18,2.18,0,0,0-.57-3,2.62,2.62,0,0,0-3.06.33,2.25,2.25,0,0,0-.56,2.85,2,2,0,0,0,3.17.49,2.52,2.52,0,0,0,.31-2.87,2,2,0,0,0-3.13-.64l2.51.66-.19.87-.57.24a.71.71,0,0,1-.47-.16c-.08-.09-.05-.27-.07-.11s0-.11,0,.11,0-.14,0,.13a.94.94,0,0,1,0,.16c0,.09,0,.1,0,0s.5-.4.6-.42h.16c.11,0,.1,0-.06,0,.16.14,0,0,0,0l.09.08-.1-.09c.09.28.26,1-.11,1.22-.15.09-.37,0-.51.09s-.11-.06,0,0,.09.06,0,0l.13.14a3.47,3.47,0,0,1,.25.29,1.51,1.51,0,0,0,2.12,0,1.53,1.53,0,0,0,0-2.12,3.12,3.12,0,0,0-2.27-1.3,2.45,2.45,0,0,0-2.18,1.23c-1,1.86,1.22,3.88,3.06,3.43s2.34-3.1,1.36-4.54a2.4,2.4,0,0,0-2.64-1,2.21,2.21,0,0,0-1.47,2.59c.19,1.2,1.75,1.33,2.5.66l.09-.07-.66.38a1,1,0,0,1-1.12-.5c0,.17,0,.16,0,0l0-.16c.66-.8,1.24-.88,1.77-.24.07.12.17.66,0,.87a.23.23,0,0,1-.17.1c.21,0,.2-.05,0,0s-.64-.17-.79-.64a.67.67,0,0,1,.08-.6c.16-.23.5-.47.79-.35.1,0,.13.14.21.18l0-.07c0-.18,0-.21,0-.07l-1.11,1.45c.29-.08.1,0,0-.08-1-.35-.08-2.07.78-1.74l.66.38-.08-.06v2.12l.88-.76a1.5,1.5,0,0,0-2.12-2.12Z" transform="translate(1 0)"/><path class="cls-16" d="M329.87,210.44a1.73,1.73,0,0,0,1.95,1.29,1.68,1.68,0,0,0,1.35-2,1.83,1.83,0,0,0-3.5-.43,1.89,1.89,0,1,0,3.61.34,2.48,2.48,0,0,0-1.65-1.61,1.51,1.51,0,0,0-1.84,1.05,1.54,1.54,0,0,0,1,1.85c-.22-.08-.41-.38-.3-.13l-.16-1.16.73,1.48-.66-.39-.12-1.27,1.29-.74h-.1l.75.2.14.11.38.66,0-.1a1.5,1.5,0,0,0-2.9.8Z" transform="translate(1 0)"/><path class="cls-16" d="M329.15,218.09a2,2,0,0,0,2,2,1.91,1.91,0,0,0,1.76-2.39,1.72,1.72,0,0,0-2.78-.94,1.75,1.75,0,0,0-.67,1.79,2.23,2.23,0,0,0,1.06,1.29,1.51,1.51,0,0,0,1.81-.23,1.92,1.92,0,0,0,.46-1.87,2,2,0,0,0-1.36-1.35,1.77,1.77,0,0,0-1.62,3,1.83,1.83,0,0,0,3.16-.89c.17-1.27-1.09-2.69-2.44-2.16a1.56,1.56,0,0,0-1.05,1.85,1.52,1.52,0,0,0,1.85,1.05c-.41.16-1.4-.35-1.34-.94l.21-.76q2.31-1.2,1.93,1.09l-.9.69c-1-.07-1.45-.48-1.34-1.24l.39-.66-.07.08,1.82-.24.17.15v1.51l-.53.37-1.15-.16.08.06-.54-.54c.44.63,1.15.45,2.12-.53a1.5,1.5,0,0,0-1.5-1.5,1.53,1.53,0,0,0-1.5,1.5Z" transform="translate(1 0)"/><path class="cls-16" d="M319.52,203.64a1.5,1.5,0,0,0,0-3,1.5,1.5,0,0,0,0,3Z" transform="translate(1 0)"/><path class="cls-16" d="M329.13,235.12a1.65,1.65,0,0,0,2.11,1.57,1.76,1.76,0,0,0,.87-2.66,1.52,1.52,0,0,0-1.7-.69l-.44.13a1.51,1.51,0,0,0-1,1.85,2.26,2.26,0,0,0,2,1.6,2.08,2.08,0,0,0,2.08-1.55,2,2,0,0,0-1.17-2.29,2,2,0,0,0-1.3-.09,2.92,2.92,0,0,0-1,.71l.66-.38.21,0,.76.21-.08-.05.69.9,0-.08v.8a1.08,1.08,0,0,1-1.79.44,1.5,1.5,0,0,0,2.13-2.12,1.93,1.93,0,0,0-3.26,1.08,1.64,1.64,0,0,0,1.62,1.83,1.76,1.76,0,0,0,1.2-.46,1.62,1.62,0,0,0,.19-.18c-1.79-1-2.09-1.52-.91-1.54.45-.22.76-.09.92.41l-1.05,1.84.44-.13-1.69-.69,0-.09v-.8l0,.14.39-.66-.06.05.66-.39-.08,0h.8l-.08,0,.66.38-.05,0,.44,1.06v-.07a1.5,1.5,0,0,0-1.5-1.5,1.53,1.53,0,0,0-1.5,1.5Z" transform="translate(1 0)"/><path class="cls-16" d="M314.09,256.15a2.73,2.73,0,0,0,.41,1.7,1.53,1.53,0,0,0,2.36.31,2.9,2.9,0,0,0,1-1.22,1.78,1.78,0,0,0-.17-1.46,2,2,0,0,0-2.85-.51,2.11,2.11,0,0,0,1.75,3.83c2-.72,2.56-3.57.57-4.64a2.24,2.24,0,0,0-2.65.45,3.49,3.49,0,0,0-.86,1.9,1.54,1.54,0,0,0,1.05,1.84,1.51,1.51,0,0,0,1.84-1.05c0-.14,0-.28.09-.42s.06-.41.07-.23,0,.09,0,0c-.13.14-.13.16,0,0a.84.84,0,0,1-.95.16c-.2-.12-.5-.54-.27-.77a.39.39,0,0,1,.3-.09c0,1.48.29,2,.76,1.46-.39.33-.86.22-1.41-.32l-.2-.76,0-.19.38-.66-.62.55,2.36.31c-.17-.28,0,.13,0-.19a1.5,1.5,0,0,0-1.5-1.5,1.54,1.54,0,0,0-1.5,1.5Z" transform="translate(1 0)"/><path class="cls-16" d="M237.29,300.48a2.33,2.33,0,0,0-1.12,2.55,2.27,2.27,0,0,0,2.17,1.71,2.24,2.24,0,0,0,2.21-1.65,2.36,2.36,0,0,0-1.05-2.58,1.44,1.44,0,0,0-1.52,0l-.37.26a1.54,1.54,0,0,0-.53,2.05,1.51,1.51,0,0,0,2,.54.64.64,0,0,1-.7-.08l-.44-1.06a1,1,0,0,1,.46-.74c.41-.26.71,0,1,.3s.49.5.31.92a1.05,1.05,0,0,1-.86.5l-1.06-.44.42.49a1.5,1.5,0,0,0,2,.12,1.51,1.51,0,0,0,.39-1.94,2.43,2.43,0,0,0-1.51-1.28,1.92,1.92,0,0,0-2.12.9,1.5,1.5,0,1,0,2.59,1.51l.05-.1-.53.54a1,1,0,0,1-1.21-.3,2,2,0,0,1,.14.25l2.36-1.82a1.9,1.9,0,0,0-1.79-.89,2,2,0,0,0-1.5,1.08,2.07,2.07,0,0,0,1.31,3,2.17,2.17,0,0,0,2.6-2.12c-.09-1.65-2.14-2.16-3.38-1.45l1.52,2.59.37-.26H238a.74.74,0,0,1,.5-1.35c.57.1.89,1,.32,1.32a1.5,1.5,0,1,0-1.51-2.59Z" transform="translate(1 0)"/><path class="cls-16" d="M181.74,320.69a2.44,2.44,0,0,0-.43,2.88,2.33,2.33,0,0,0,2.68,1.07,2.29,2.29,0,0,0,1.62-2.65,2.33,2.33,0,0,0-2.25-1.9,2.37,2.37,0,0,0-2.23,1.84,2.14,2.14,0,0,0,1.51,2.55,2.33,2.33,0,0,0,2.55-1,2.14,2.14,0,0,0-.71-2.88,2.25,2.25,0,0,0-3.15.63,2.51,2.51,0,0,0,.43,3.12l1.46-2.51c.31.27.39.31.22.12l.38.66,0-.13-.38,1.46a6,6,0,0,1,.39-.46s.12,0,.06,0a.23.23,0,0,1-.24,0,.5.5,0,0,1-.5-.19V321.2l-.33.3a1.5,1.5,0,0,0,2.13,2.12l.32-.3a1.5,1.5,0,0,0,0-2.12c-1.34-1.12-2.94-.61-4,.66a1.5,1.5,0,0,0-.38,1.46,2.13,2.13,0,0,0,1.54,1.44,1.56,1.56,0,0,0,1.7-.69,1.51,1.51,0,0,0-.24-1.82c-.2-.17,0,.08.07.17a.62.62,0,0,1-.09.46.77.77,0,0,1-1.05.23.91.91,0,0,1,.3-1.54c-.12,0-.12,0,0,0a.47.47,0,0,1,.31,0,1,1,0,0,1,.64.85c0,1-1.86.68-1.31-.34a.62.62,0,0,1,.61-.36c-.19,0-.16,0,.09.05a.51.51,0,0,1,.34.15l.21.37c0-.17,0-.15,0,.05a.66.66,0,0,1-.15.45,1.5,1.5,0,0,0-2.12-2.12Z" transform="translate(1 0)"/><path class="cls-16" d="M133.8,331.6a2.13,2.13,0,1,0,.46-.09,2.1,2.1,0,0,0-1.77,3.21,2,2,0,1,0,1.27-3,2.5,2.5,0,0,0-1.66,3.4c.89,1.56,3,1.11,3.79-.32a2.37,2.37,0,0,0-1.83-3.55,2.31,2.31,0,0,0-1.79.71,2,2,0,0,0-.56,1.33,4.88,4.88,0,0,0,.3,1.24,1.5,1.5,0,0,0,2.9-.79l-.25-.85v.8a.74.74,0,0,1-1.43,0c0-.07,0-.39,0-.23s.09-.15.14-.2c.46-.54,1.59.44,1.48,1.08q-.12.22,0,.09c.05-.1,0-.07-.06.07a1.07,1.07,0,0,1-1.38-.37.79.79,0,0,1,0-.87l1.16-.5a.72.72,0,0,1,.44.27c.54.64-.27,1.8-1,1.35a.77.77,0,0,1,.61-1.4c.6.19.77,1.33,0,1.5a1.5,1.5,0,0,0-.8-2.9Z" transform="translate(1 0)"/></svg>