<svg id="Layer_1" data-name="Layer 1" xmlns="http://www.w3.org/2000/svg" viewBox="0 0 302.37 54.54"><defs><style>.cls-1{isolation:isolate;}.cls-2{fill:#08222e;}.cls-3{fill:none;stroke:#9fecf4;stroke-miterlimit:10;stroke-width:4px;}</style></defs><title>logo</title><g id="Layer_2" data-name="Layer 2"><g id="Layer_1-2" data-name="Layer 1-2"><g class="cls-1"><path class="cls-2" d="M45.13,12.8H58.3a2,2,0,0,1,2,1.94V61.26a1.82,1.82,0,0,1-.58,1.36,1.84,1.84,0,0,1-1.37.58h-13a2,2,0,0,1-1.94-1.94V38.94L38.07,49.3a3.09,3.09,0,0,1-1.29,1.34,3.65,3.65,0,0,1-1.73.46h-4.9a3.07,3.07,0,0,1-2-.64,3.41,3.41,0,0,1-1-1.16L21.87,38.94V61.26a2,2,0,0,1-1.94,1.94H6.9a1.84,1.84,0,0,1-1.37-.58A1.82,1.82,0,0,1,5,61.26V14.74a1.84,1.84,0,0,1,.58-1.36A1.84,1.84,0,0,1,6.9,12.8H20.07a3.39,3.39,0,0,1,3.1,1.94L32.6,32,42,14.74A3.39,3.39,0,0,1,45.13,12.8Z" transform="translate(-2.95 -10.73)"/><path class="cls-2" d="M113,58.08q-7.09,5.19-19.19,5.19T74.61,58.08q-7.1-5.19-7.09-16.2V14.72a1.82,1.82,0,0,1,.58-1.35,1.85,1.85,0,0,1,1.36-.57H84.51a1.89,1.89,0,0,1,1.37.57,1.82,1.82,0,0,1,.58,1.34V42.86a5.32,5.32,0,0,0,2,4.46,10,10,0,0,0,10.72,0,5.35,5.35,0,0,0,2-4.46V14.71a1.78,1.78,0,0,1,.58-1.34,1.87,1.87,0,0,1,1.37-.57h15a1.87,1.87,0,0,1,1.36.57,1.82,1.82,0,0,1,.58,1.35V41.88Q120.08,52.89,113,58.08Z" transform="translate(-2.95 -10.73)"/><path class="cls-2" d="M164.14,12.8h13.4a2,2,0,0,1,1.94,1.94V61.26a2,2,0,0,1-1.94,1.94h-11.6a3.49,3.49,0,0,1-2.88-1.51l-15.69-20V61.26a2,2,0,0,1-2,1.94H132a2,2,0,0,1-1.94-1.94V14.74A2,2,0,0,1,132,12.8h11.66a3.35,3.35,0,0,1,2.81,1.44l15.7,21.67V14.74a2,2,0,0,1,1.94-1.94Z" transform="translate(-2.95 -10.73)"/><path class="cls-2" d="M209.57,32.55v10.9a5,5,0,0,0,2,4.28,8.37,8.37,0,0,0,5.19,1.5,8.62,8.62,0,0,0,4.64-.95,7.39,7.39,0,0,0,2.41-2.79,2.89,2.89,0,0,1,2.56-1.84H241.9a1.53,1.53,0,0,1,1.12.46,1.5,1.5,0,0,1,.47,1.1q0,6.59-6.34,12a24.05,24.05,0,0,1-8.42,4.36,41.25,41.25,0,0,1-12.39,1.66,37.58,37.58,0,0,1-13-2.14,20.26,20.26,0,0,1-9.54-7,19.32,19.32,0,0,1-3.68-12V33.86a19.5,19.5,0,0,1,3.68-12q6.9-9.12,23.11-9.12a39.05,39.05,0,0,1,11.81,1.66,24.22,24.22,0,0,1,8.42,4.36q6.33,5.45,6.34,12a1.5,1.5,0,0,1-.47,1.1,1.53,1.53,0,0,1-1.12.46H226.35a2.89,2.89,0,0,1-2.56-1.84,7.39,7.39,0,0,0-2.41-2.79,8.72,8.72,0,0,0-4.64-.95,8.37,8.37,0,0,0-5.19,1.5A5,5,0,0,0,209.57,32.55Z" transform="translate(-2.95 -10.73)"/><path class="cls-2" d="M286.54,12.8h14.83a1.84,1.84,0,0,1,1.37.58,1.88,1.88,0,0,1,.58,1.36V61.26a2,2,0,0,1-1.95,1.94H286.54a2,2,0,0,1-1.94-1.94V45.92H270.2V61.26a2,2,0,0,1-1.95,1.94H253.42a1.94,1.94,0,0,1-1.37-.54,1.85,1.85,0,0,1-.57-1.4V14.74a2,2,0,0,1,1.94-1.94h14.83a1.84,1.84,0,0,1,1.37.58,1.88,1.88,0,0,1,.58,1.36V29.5h14.4V14.74a2,2,0,0,1,1.94-1.94Z" transform="translate(-2.95 -10.73)"/></g><g class="cls-1"><path class="cls-3" d="M45.13,12.8H58.3a2,2,0,0,1,2,1.94V61.26a1.82,1.82,0,0,1-.58,1.36,1.84,1.84,0,0,1-1.37.58h-13a2,2,0,0,1-1.94-1.94V38.94L38.07,49.3a3.09,3.09,0,0,1-1.29,1.34,3.65,3.65,0,0,1-1.73.46h-4.9a3.07,3.07,0,0,1-2-.64,3.41,3.41,0,0,1-1-1.16L21.87,38.94V61.26a2,2,0,0,1-1.94,1.94H6.9a1.84,1.84,0,0,1-1.37-.58A1.82,1.82,0,0,1,5,61.26V14.74a1.84,1.84,0,0,1,.58-1.36A1.84,1.84,0,0,1,6.9,12.8H20.07a3.39,3.39,0,0,1,3.1,1.94L32.6,32,42,14.74A3.39,3.39,0,0,1,45.13,12.8Z" transform="translate(-2.95 -10.73)"/><path class="cls-3" d="M113,58.08q-7.09,5.19-19.19,5.19T74.61,58.08q-7.1-5.19-7.09-16.2V14.72a1.82,1.82,0,0,1,.58-1.35,1.85,1.85,0,0,1,1.36-.57H84.51a1.89,1.89,0,0,1,1.37.57,1.82,1.82,0,0,1,.58,1.34V42.86a5.32,5.32,0,0,0,2,4.46,10,10,0,0,0,10.72,0,5.35,5.35,0,0,0,2-4.46V14.71a1.78,1.78,0,0,1,.58-1.34,1.87,1.87,0,0,1,1.37-.57h15a1.87,1.87,0,0,1,1.36.57,1.82,1.82,0,0,1,.58,1.35V41.88Q120.08,52.89,113,58.08Z" transform="translate(-2.95 -10.73)"/><path class="cls-3" d="M164.14,12.8h13.4a2,2,0,0,1,1.94,1.94V61.26a2,2,0,0,1-1.94,1.94h-11.6a3.49,3.49,0,0,1-2.88-1.51l-15.69-20V61.26a2,2,0,0,1-2,1.94H132a2,2,0,0,1-1.94-1.94V14.74A2,2,0,0,1,132,12.8h11.66a3.35,3.35,0,0,1,2.81,1.44l15.7,21.67V14.74a2,2,0,0,1,1.94-1.94Z" transform="translate(-2.95 -10.73)"/><path class="cls-3" d="M209.57,32.55v10.9a5,5,0,0,0,2,4.28,8.37,8.37,0,0,0,5.19,1.5,8.62,8.62,0,0,0,4.64-.95,7.39,7.39,0,0,0,2.41-2.79,2.89,2.89,0,0,1,2.56-1.84H241.9a1.53,1.53,0,0,1,1.12.46,1.5,1.5,0,0,1,.47,1.1q0,6.59-6.34,12a24.05,24.05,0,0,1-8.42,4.36,41.25,41.25,0,0,1-12.39,1.66,37.58,37.58,0,0,1-13-2.14,20.26,20.26,0,0,1-9.54-7,19.32,19.32,0,0,1-3.68-12V33.86a19.5,19.5,0,0,1,3.68-12q6.9-9.12,23.11-9.12a39.05,39.05,0,0,1,11.81,1.66,24.22,24.22,0,0,1,8.42,4.36q6.33,5.45,6.34,12a1.5,1.5,0,0,1-.47,1.1,1.53,1.53,0,0,1-1.12.46H226.35a2.89,2.89,0,0,1-2.56-1.84,7.39,7.39,0,0,0-2.41-2.79,8.72,8.72,0,0,0-4.64-.95,8.37,8.37,0,0,0-5.19,1.5A5,5,0,0,0,209.57,32.55Z" transform="translate(-2.95 -10.73)"/><path class="cls-3" d="M286.54,12.8h14.83a1.84,1.84,0,0,1,1.37.58,1.88,1.88,0,0,1,.58,1.36V61.26a2,2,0,0,1-1.95,1.94H286.54a2,2,0,0,1-1.94-1.94V45.92H270.2V61.26a2,2,0,0,1-1.95,1.94H253.42a1.94,1.94,0,0,1-1.37-.54,1.85,1.85,0,0,1-.57-1.4V14.74a2,2,0,0,1,1.94-1.94h14.83a1.84,1.84,0,0,1,1.37.58,1.88,1.88,0,0,1,.58,1.36V29.5h14.4V14.74a2,2,0,0,1,1.94-1.94Z" transform="translate(-2.95 -10.73)"/></g></g></g></svg>