<?xml version="1.0" encoding="utf-8"?>
<!-- Generator: Adobe Illustrator 22.1.0, SVG Export Plug-In . SVG Version: 6.00 Build 0)  -->
<svg version="1.1" id="Layer_1" xmlns="http://www.w3.org/2000/svg" xmlns:xlink="http://www.w3.org/1999/xlink" x="0px" y="0px"
	 viewBox="0 0 751 1335" style="enable-background:new 0 0 751 1335;" xml:space="preserve">
<style type="text/css">
	.st0{fill:url(#SVGID_1_);stroke:#183B47;stroke-miterlimit:10;}
	.st1{fill:#1D4D5E;}
	.st2{fill:#3F7C8C;}
	.st3{fill:#6FADBC;}
	.st4{fill:#9EDBE5;}
	.st5{fill:#3F97A0;}
	.st6{fill:#15494C;}
	.st7{fill:#0B3030;}
	.st8{fill:#2C6275;}
	.st9{fill:#153A44;}
	.st10{fill:#0D2930;}
	.st11{fill:#62AEBF;}
</style>
<title>mobile-bkgrd</title>
<g>
	
		<linearGradient id="SVGID_1_" gradientUnits="userSpaceOnUse" x1="379.5437" y1="-74.81" x2="375.4637" y2="675.18" gradientTransform="matrix(1 0 0 -1 0 1336)">
		<stop  offset="0" style="stop-color:#FFFFFF"/>
		<stop  offset="5.000000e-02" style="stop-color:#E5E7E9"/>
		<stop  offset="0.15" style="stop-color:#B1BABD"/>
		<stop  offset="0.25" style="stop-color:#849197"/>
		<stop  offset="0.36" style="stop-color:#5E6F77"/>
		<stop  offset="0.47" style="stop-color:#3F535C"/>
		<stop  offset="0.59" style="stop-color:#273D48"/>
		<stop  offset="0.71" style="stop-color:#152E39"/>
		<stop  offset="0.84" style="stop-color:#0B2531"/>
		<stop  offset="1" style="stop-color:#08222E"/>
	</linearGradient>
	<rect x="0.5" y="0.5" class="st0" width="750" height="1334"/>
	<path class="st1" d="M323.8,940.5c0.8,0,1.5-0.7,1.5-1.5s-0.7-1.5-1.5-1.5s-1.5,0.7-1.5,1.5S322.9,940.5,323.8,940.5z"/>
	<path class="st1" d="M387.7,874.9c0.8,0,1.5-0.7,1.5-1.5s-0.7-1.5-1.5-1.5s-1.5,0.7-1.5,1.5S386.9,874.9,387.7,874.9z"/>
	<path class="st1" d="M489.3,888c0.8,0,1.5-0.7,1.5-1.5s-0.7-1.5-1.5-1.5l0,0c-0.8,0-1.5,0.7-1.5,1.5S488.5,888,489.3,888z"/>
	<path class="st1" d="M489.3,889.7c0.8,0,1.5-0.7,1.5-1.5s-0.7-1.5-1.5-1.5l0,0c-0.8,0-1.5,0.7-1.5,1.5S488.5,889.7,489.3,889.7z"/>
	<path class="st1" d="M509,853.6c0.8,0,1.5-0.7,1.5-1.5s-0.7-1.5-1.5-1.5s-1.5,0.7-1.5,1.5S508.2,853.6,509,853.6L509,853.6z"/>
	<path class="st1" d="M591,814.2c0.8,0,1.5-0.7,1.5-1.5s-0.7-1.5-1.5-1.5s-1.5,0.7-1.5,1.5S590.2,814.2,591,814.2z"/>
	<path class="st1" d="M610.6,748.7c0.8,0,1.5-0.7,1.5-1.5s-0.7-1.5-1.5-1.5s-1.5,0.7-1.5,1.5S609.8,748.7,610.6,748.7z"/>
	<path class="st1" d="M697.5,756.9c0.8,0,1.5-0.7,1.5-1.5s-0.7-1.5-1.5-1.5s-1.5,0.7-1.5,1.5S696.7,756.9,697.5,756.9z"/>
	<path class="st1" d="M687.7,691.3c0.8,0,1.5-0.7,1.5-1.5s-0.7-1.5-1.5-1.5s-1.5,0.7-1.5,1.5S686.9,691.3,687.7,691.3z"/>
	<path class="st1" d="M287.7,584.7c0.8,0,1.5-0.7,1.5-1.5s-0.7-1.5-1.5-1.5s-1.5,0.7-1.5,1.5S286.9,584.7,287.7,584.7z"/>
	<path class="st1" d="M397.5,592.9c0.8,0,1.5-0.7,1.5-1.5s-0.7-1.5-1.5-1.5s-1.5,0.7-1.5,1.5S396.7,592.9,397.5,592.9z"/>
	<path class="st1" d="M387.7,535.5c0.8,0,1.5-0.7,1.5-1.5s-0.7-1.5-1.5-1.5s-1.5,0.7-1.5,1.5S386.9,535.5,387.7,535.5z"/>
	<path class="st1" d="M382.8,361.8c0.8,0,1.5-0.7,1.5-1.5s-0.7-1.5-1.5-1.5s-1.5,0.7-1.5,1.5S381.9,361.8,382.8,361.8z"/>
	<path class="st1" d="M474.6,397.8c0.8,0,1.5-0.7,1.5-1.5s-0.7-1.5-1.5-1.5s-1.5,0.7-1.5,1.5S473.7,397.8,474.6,397.8z"/>
	<path class="st1" d="M525.4,445.4c0.8,0,1.5-0.7,1.5-1.5s-0.7-1.5-1.5-1.5s-1.5,0.7-1.5,1.5S524.6,445.4,525.4,445.4z"/>
	<path class="st1" d="M554.9,378.2c0.8,0,1.5-0.7,1.5-1.5s-0.7-1.5-1.5-1.5s-1.5,0.7-1.5,1.5S554.1,378.2,554.9,378.2z"/>
	<path class="st1" d="M533.6,368.3c0.8,0,1.5-0.7,1.5-1.5s-0.7-1.5-1.5-1.5s-1.5,0.7-1.5,1.5S532.8,368.3,533.6,368.3z"/>
	<path class="st1" d="M533.6,338.8c0.8,0,1.5-0.7,1.5-1.5s-0.7-1.5-1.5-1.5s-1.5,0.7-1.5,1.5S532.8,338.8,533.6,338.8z"/>
	<path class="st1" d="M563.1,256.9c0.8,0,1.5-0.7,1.5-1.5s-0.7-1.5-1.5-1.5s-1.5,0.7-1.5,1.5S562.3,256.9,563.1,256.9z"/>
	<path class="st1" d="M386,722.4c0.8,0,1.5-0.7,1.5-1.5s-0.7-1.5-1.5-1.5s-1.5,0.7-1.5,1.5S385.2,722.4,386,722.4z"/>
	<path class="st1" d="M146.7,224.1c0.8,0,1.5-0.7,1.5-1.5s-0.7-1.5-1.5-1.5s-1.5,0.7-1.5,1.5S145.9,224.1,146.7,224.1z"/>
	<path class="st1" d="M58.2,99.5c0.8,0,1.5-0.7,1.5-1.5s-0.7-1.5-1.5-1.5l0,0c-0.8,0-1.5,0.7-1.5,1.5S57.4,99.5,58.2,99.5z"/>
	<path class="st1" d="M259.8,45.4c0.8,0,1.5-0.7,1.5-1.5s-0.7-1.5-1.5-1.5s-1.5,0.7-1.5,1.5S259,45.4,259.8,45.4z"/>
	<path class="st1" d="M302.4,30.6c0.8,0,1.5-0.7,1.5-1.5s-0.7-1.5-1.5-1.5s-1.5,0.7-1.5,1.5S301.6,30.6,302.4,30.6z"/>
	<path class="st1" d="M499.2,125.7c0.8,0,1.5-0.7,1.5-1.5s-0.7-1.5-1.5-1.5l0,0c-0.8,0-1.5,0.7-1.5,1.5S498.3,125.7,499.2,125.7z"/>
	<path class="st1" d="M487.7,306c0.8,0,1.5-0.7,1.5-1.5s-0.7-1.5-1.5-1.5s-1.5,0.7-1.5,1.5S486.9,306,487.7,306z"/>
	<path class="st1" d="M710.6,35.5c0.8,0,1.5-0.7,1.5-1.5s-0.7-1.5-1.5-1.5s-1.5,0.7-1.5,1.5S709.8,35.5,710.6,35.5z"/>
	<path class="st1" d="M674.6,27.4c0.8,0,1.5-0.7,1.5-1.5s-0.7-1.5-1.5-1.5s-1.5,0.7-1.5,1.5S673.7,27.4,674.6,27.4z"/>
	<path class="st1" d="M222.1,666.7c0.8,0,1.5-0.7,1.5-1.5s-0.7-1.5-1.5-1.5s-1.5,0.7-1.5,1.5S221.3,666.7,222.1,666.7z"/>
	<path class="st1" d="M115.6,692.9c0.8,0,1.5-0.7,1.5-1.5s-0.7-1.5-1.5-1.5s-1.5,0.7-1.5,1.5S114.7,692.9,115.6,692.9z"/>
	<path class="st1" d="M76.2,535.5c0.8,0,1.5-0.7,1.5-1.5s-0.7-1.5-1.5-1.5s-1.5,0.7-1.5,1.5S75.4,535.5,76.2,535.5z"/>
	<path class="st1" d="M46.7,891.3c0.8,0,1.5-0.7,1.5-1.5s-0.7-1.5-1.5-1.5s-1.5,0.7-1.5,1.5S45.9,891.3,46.7,891.3z"/>
	<path class="st1" d="M346.7,520.8c0.8,0,1.5-0.7,1.5-1.5s-0.7-1.5-1.5-1.5s-1.5,0.7-1.5,1.5S345.9,520.8,346.7,520.8z"/>
	<path class="st1" d="M517.2,545.4c0.8,0,1.5-0.7,1.5-1.5s-0.7-1.5-1.5-1.5s-1.5,0.7-1.5,1.5S516.4,545.4,517.2,545.4z"/>
	<path class="st1" d="M464.7,440.5c0.8,0,1.5-0.7,1.5-1.5s-0.7-1.5-1.5-1.5s-1.5,0.7-1.5,1.5S463.9,440.5,464.7,440.5z"/>
	<path class="st1" d="M635.2,348.7c0.8,0,1.5-0.7,1.5-1.5s-0.7-1.5-1.5-1.5s-1.5,0.7-1.5,1.5S634.4,348.7,635.2,348.7z"/>
	<path class="st1" d="M635.2,151.9c0.8,0,1.5-0.7,1.5-1.5s-0.7-1.5-1.5-1.5s-1.5,0.7-1.5,1.5S634.4,151.9,635.2,151.9z"/>
	<path class="st2" d="M372.9,619.2c0.8,0,1.5-0.7,1.5-1.5s-0.7-1.5-1.5-1.5s-1.5,0.7-1.5,1.5S372.1,619.2,372.9,619.2z"/>
	<path class="st2" d="M523.8,625.7c0.8,0,1.5-0.7,1.5-1.5s-0.7-1.5-1.5-1.5s-1.5,0.7-1.5,1.5S522.9,625.7,523.8,625.7z"/>
	<path class="st2" d="M632,745.4c0.8,0,1.5-0.7,1.5-1.5s-0.7-1.5-1.5-1.5s-1.5,0.7-1.5,1.5S631.2,745.4,632,745.4z"/>
	<path class="st2" d="M669.7,302.8c0.8,0,1.5-0.7,1.5-1.5s-0.7-1.5-1.5-1.5s-1.5,0.7-1.5,1.5S668.8,302.8,669.7,302.8z"/>
	<path class="st2" d="M105.7,66.7c0.8,0,1.5-0.7,1.5-1.5s-0.7-1.5-1.5-1.5s-1.5,0.7-1.5,1.5S104.9,66.7,105.7,66.7z"/>
	<path class="st2" d="M28.7,48.7c0.8,0,1.5-0.7,1.5-1.5s-0.7-1.5-1.5-1.5s-1.5,0.7-1.5,1.5S27.8,48.7,28.7,48.7z"/>
	<path class="st2" d="M69.7,511c0.8,0,1.5-0.7,1.5-1.5s-0.7-1.5-1.5-1.5s-1.5,0.7-1.5,1.5S68.8,511,69.7,511z"/>
	<path class="st2" d="M41.8,712.6c0.8,0,1.5-0.7,1.5-1.5s-0.7-1.5-1.5-1.5s-1.5,0.7-1.5,1.5S41,712.6,41.8,712.6z"/>
	<path class="st2" d="M359.8,624.1c0.8,0,1.5-0.7,1.5-1.5s-0.7-1.5-1.5-1.5s-1.5,0.7-1.5,1.5S359,624.1,359.8,624.1z"/>
	<path class="st2" d="M482.8,358.5c0.8,0,1.5-0.7,1.5-1.5s-0.7-1.5-1.5-1.5l0,0c-0.8,0-1.5,0.7-1.5,1.5S481.9,358.5,482.8,358.5z"/>
	<path class="st2" d="M389.3,696.2c0.8,0,1.5-0.7,1.5-1.5s-0.7-1.5-1.5-1.5s-1.5,0.7-1.5,1.5S388.5,696.2,389.3,696.2z"/>
	<path class="st2" d="M454.9,286.4c0.8,0,1.5-0.7,1.5-1.5s-0.7-1.5-1.5-1.5s-1.5,0.7-1.5,1.5S454.1,286.4,454.9,286.4z"/>
	<path class="st2" d="M253.3,817.5c0.8,0,1.5-0.7,1.5-1.5s-0.7-1.5-1.5-1.5s-1.5,0.7-1.5,1.5S252.4,817.5,253.3,817.5z"/>
	<path class="st2" d="M648.3,912.6c0.8,0,1.5-0.7,1.5-1.5s-0.7-1.5-1.5-1.5s-1.5,0.7-1.5,1.5S647.5,912.6,648.3,912.6z"/>
	<path class="st2" d="M571.3,206c0.8,0,1.5-0.7,1.5-1.5s-0.7-1.5-1.5-1.5s-1.5,0.7-1.5,1.5S570.5,206,571.3,206z"/>
	<path class="st2" d="M577.8,24.1c0.8,0,1.5-0.7,1.5-1.5s-0.7-1.5-1.5-1.5s-1.5,0.7-1.5,1.5S577,24.1,577.8,24.1z"/>
	<path class="st3" d="M274.1,411.1l1-1c0.6-0.6,0.6-1.5,0-2.1c-0.6-0.6-1.5-0.6-2.1,0l-1,1c-0.6,0.6-0.6,1.5,0,2.1
		C272.5,411.6,273.5,411.6,274.1,411.1z"/>
	<path class="st3" d="M272.7,410.8c0.8,0,1.5-0.7,1.5-1.5s-0.7-1.5-1.5-1.5s-1.5,0.7-1.5,1.5S271.8,410.8,272.7,410.8z"/>
	<path class="st3" d="M274,410.2c0.8,0,1.5-0.7,1.5-1.5s-0.7-1.5-1.5-1.5s-1.5,0.7-1.5,1.5S273.2,410.2,274,410.2z"/>
	<path class="st3" d="M274,410.8c0.8,0,1.5-0.7,1.5-1.5s-0.7-1.5-1.5-1.5s-1.5,0.7-1.5,1.5S273.2,410.8,274,410.8z"/>
	<path class="st3" d="M273.3,410.5c0.8,0,1.5-0.7,1.5-1.5s-0.7-1.5-1.5-1.5s-1.5,0.7-1.5,1.5S272.5,410.5,273.3,410.5z"/>
	<path class="st3" d="M273.7,411.2c0.8,0,1.5-0.7,1.5-1.5s-0.7-1.5-1.5-1.5s-1.5,0.7-1.5,1.5S272.8,411.2,273.7,411.2z"/>
	<path class="st3" d="M383,508.5c0.8,0,1.5-0.7,1.5-1.5s-0.7-1.5-1.5-1.5s-1.5,0.7-1.5,1.5S382.2,508.5,383,508.5z"/>
	<path class="st3" d="M385,506l-2-0.1l1.5,1.1c-0.1-0.2-0.1,0,0-0.3c0,0.2,0.1-0.3,0.1-0.3l-2.2,0.9c0.1,0,0.2,0.1,0.2,0.1
		c-0.2-0.1,0,0,0.1,0.1s-0.1-0.2,0,0s-0.1-0.3,0,0.1c0.2,0.6,0.8,1.1,1.4,1.1c0.7,0,1.3-0.5,1.5-1.1c0.2-0.8,0-1.7-0.3-2.4
		c-0.7-1.4-2.8-0.7-2.8,0.8v1.4c0,0.8,0.7,1.5,1.5,1.5s1.5-0.7,1.5-1.5v-1.4l-2.8,0.8c-0.1-0.2,0,0.2,0,0.1s0,0.3,0,0h2.9
		c-0.3-0.9-0.9-1.7-1.8-2.2c-0.7-0.4-1.7-0.1-2.1,0.6c-0.1,0.1-0.1,0.2-0.1,0.3c-0.2,0.7-0.3,1.4-0.1,2.1c0.2,0.6,0.8,1.1,1.5,1.1
		l2,0.1c0.8,0,1.5-0.7,1.5-1.5C386.5,506.7,385.8,506,385,506z"/>
	<path class="st3" d="M385,507.8c0.8,0,1.5-0.7,1.5-1.5s-0.7-1.5-1.5-1.5s-1.5,0.7-1.5,1.5S384.2,507.8,385,507.8z"/>
	<path class="st3" d="M384.3,507.5c0.8,0,1.5-0.7,1.5-1.5s-0.7-1.5-1.5-1.5s-1.5,0.7-1.5,1.5S383.5,507.5,384.3,507.5z"/>
	<path class="st3" d="M372,370.5c0.8,0,1.5-0.7,1.5-1.5s-0.7-1.5-1.5-1.5s-1.5,0.7-1.5,1.5S371.2,370.5,372,370.5z"/>
	<path class="st3" d="M372,371.2c0.8,0,1.5-0.7,1.5-1.5s-0.7-1.5-1.5-1.5s-1.5,0.7-1.5,1.5S371.2,371.2,372,371.2z"/>
	<path class="st3" d="M373.4,370.8l0.4-0.3c0.6-0.6,0.6-1.5,0-2.1c-0.6-0.6-1.5-0.6-2.1,0l-0.4,0.3c-0.6,0.6-0.5,1.6,0.1,2.1
		C371.9,371.3,372.8,371.3,373.4,370.8z"/>
	<path class="st3" d="M372.3,370.5c0.8,0,1.5-0.7,1.5-1.5s-0.7-1.5-1.5-1.5s-1.5,0.7-1.5,1.5S371.5,370.5,372.3,370.5z"/>
	<path class="st4" d="M372.3,370.2c0.8,0,1.5-0.7,1.5-1.5s-0.7-1.5-1.5-1.5s-1.5,0.7-1.5,1.5S371.5,370.2,372.3,370.2z"/>
	<path class="st4" d="M371.7,370.8c0.8,0,1.5-0.7,1.5-1.5s-0.7-1.5-1.5-1.5s-1.5,0.7-1.5,1.5S370.8,370.8,371.7,370.8z"/>
	<path class="st4" d="M372.3,371.5c0.8,0,1.5-0.7,1.5-1.5s-0.7-1.5-1.5-1.5s-1.5,0.7-1.5,1.5S371.5,371.5,372.3,371.5z"/>
	<path class="st4" d="M372.7,370.8c0.8,0,1.5-0.7,1.5-1.5s-0.7-1.5-1.5-1.5s-1.5,0.7-1.5,1.5S371.8,370.8,372.7,370.8z"/>
	<path class="st4" d="M373.3,371.2c0.8,0,1.5-0.7,1.5-1.5s-0.7-1.5-1.5-1.5s-1.5,0.7-1.5,1.5S372.5,371.2,373.3,371.2z"/>
	<path class="st4" d="M373.7,370.2c0.8,0,1.5-0.7,1.5-1.5s-0.7-1.5-1.5-1.5s-1.5,0.7-1.5,1.5S372.8,370.2,373.7,370.2z"/>
	<path class="st4" d="M565,513.5c0.8,0,1.5-0.7,1.5-1.5s-0.7-1.5-1.5-1.5s-1.5,0.7-1.5,1.5S564.2,513.5,565,513.5z"/>
	<path class="st4" d="M674.1,151.1l1.2-1.2c0.6-0.6,0.5-1.6-0.1-2.1c-0.6-0.5-1.5-0.5-2,0l-1.2,1.2c-0.6,0.6-0.5,1.6,0.1,2.1
		C672.6,151.6,673.5,151.6,674.1,151.1l1.2-1.2c0.6-0.6,0.5-1.6-0.1-2.1c-0.6-0.5-1.5-0.5-2,0l-1.2,1.2c-0.6,0.6-0.5,1.6,0.1,2.1
		C672.6,151.6,673.5,151.6,674.1,151.1z"/>
	<path class="st4" d="M103,237.5c0.8,0,1.5-0.7,1.5-1.5s-0.7-1.5-1.5-1.5s-1.5,0.7-1.5,1.5S102.2,237.5,103,237.5z"/>
	<path class="st4" d="M105.3,236.4l0.6-0.7c0.6-0.6,0.6-1.5,0-2.1c-0.6-0.6-1.5-0.6-2.1,0l-0.6,0.7c-0.6,0.6-0.6,1.5,0,2.1
		C103.8,236.9,104.8,236.9,105.3,236.4L105.3,236.4z"/>
	<path class="st4" d="M103,235.8c0.8,0,1.5-0.7,1.5-1.5s-0.7-1.5-1.5-1.5s-1.5,0.7-1.5,1.5S102.2,235.8,103,235.8z"/>
	<path class="st4" d="M103.7,235.8c0.8,0,1.5-0.7,1.5-1.5s-0.7-1.5-1.5-1.5s-1.5,0.7-1.5,1.5S102.8,235.8,103.7,235.8z"/>
	<path class="st4" d="M102.7,236.8c0.8,0,1.5-0.7,1.5-1.5s-0.7-1.5-1.5-1.5s-1.5,0.7-1.5,1.5S101.8,236.8,102.7,236.8z"/>
	<path class="st4" d="M104.3,237.5c0.8,0,1.5-0.7,1.5-1.5s-0.7-1.5-1.5-1.5s-1.5,0.7-1.5,1.5S103.5,237.5,104.3,237.5z"/>
	<path class="st4" d="M104.3,235.5c0.8,0,1.5-0.7,1.5-1.5s-0.7-1.5-1.5-1.5s-1.5,0.7-1.5,1.5S103.5,235.5,104.3,235.5z"/>
	<path class="st4" d="M104.7,236.8c0.8,0,1.5-0.7,1.5-1.5s-0.7-1.5-1.5-1.5s-1.5,0.7-1.5,1.5S103.8,236.8,104.7,236.8z"/>
	<path class="st4" d="M298.7,146.9c-0.9,0.1-1.7,0.9-1.6,1.8c0,0.6,0.4,1.2,1,1.5c0.8,0.3,1.6,0,2.1-0.6c0.5-0.6,0.6-1.5,0.2-2.3
		c-0.3-0.6-0.9-1-1.6-1.1c-0.8-0.2-1.7,0.2-2.1,1c-0.5,0.8-0.3,1.8,0.3,2.5c0.6,0.5,1.4,0.6,2.2,0.4l-1.7-2.2
		c0.2-0.2,0.4-0.4,0.7-0.4c-0.3,0,0.3,0.1,0,0c0.2,0.1,0.2,0.1,0.1,0c0.1,0.1,0.2,0.2,0.3,0.3c0.1,0.2,0.1,0.5,0,0.8
		c-0.1,0.2-0.2,0.4-0.4,0.4c0.1-0.1,0.1-0.1-0.1,0s-0.3,0-0.1,0h-0.2c0.3,0.1-0.1-0.1-0.2-0.2c0.1,0.1,0.1,0.1-0.1-0.1
		c-0.1-0.6-0.1-0.7-0.1-0.4c0,0.8,0.7,1.5,1.5,1.5c0.8,0,1.5-0.7,1.5-1.5c0-2.5-3.9-3.2-4.6-0.7s3,4,4.3,1.8c0.6-1-0.4-2.7-1.7-2.2
		c-0.4,0.1,0.2,0,0.3,0.1l0.7,1.3c0-0.3,0,0.1-0.1,0.2l-1.1,0.4c-0.2,0-0.5-0.2-0.5-0.4v-0.8c0.1-0.3,0.3-0.5,0.6-0.5h0.8l0.2,0.1
		l0.5,0.5c0.1,0.2,0.1,0.3,0.1,0.5l-0.2,0.8v-0.1l-0.5,0.5h0l-0.8,0.2h0.1c0.8,0,1.5-0.7,1.5-1.5S299.4,146.9,298.7,146.9
		L298.7,146.9z"/>
	<path class="st4" d="M173.6,790.1c0.8,0,1.5-0.7,1.5-1.5s-0.7-1.5-1.5-1.5s-1.5,0.7-1.5,1.5S172.8,790.1,173.6,790.1z"/>
	<path class="st4" d="M197.6,841.1c0.8,0,1.5-0.7,1.5-1.5s-0.7-1.5-1.5-1.5s-1.5,0.7-1.5,1.5S196.8,841.1,197.6,841.1z"/>
	<path class="st4" d="M464.6,856.1c0.8,0,1.5-0.7,1.5-1.5s-0.7-1.5-1.5-1.5s-1.5,0.7-1.5,1.5S463.8,856.1,464.6,856.1L464.6,856.1z"
		/>
	<path class="st4" d="M680.6,772.1c0.8,0,1.5-0.7,1.5-1.5s-0.7-1.5-1.5-1.5s-1.5,0.7-1.5,1.5S679.8,772.1,680.6,772.1z"/>
	<path class="st4" d="M422.6,412.1c0.8,0,1.5-0.7,1.5-1.5s-0.7-1.5-1.5-1.5s-1.5,0.7-1.5,1.5S421.8,412.1,422.6,412.1z"/>
	<path class="st4" d="M473.6,406.1c0.8,0,1.5-0.7,1.5-1.5s-0.7-1.5-1.5-1.5s-1.5,0.7-1.5,1.5S472.8,406.1,473.6,406.1z"/>
	<path class="st4" d="M479.6,331.1c0.8,0,1.5-0.7,1.5-1.5s-0.7-1.5-1.5-1.5s-1.5,0.7-1.5,1.5S478.8,331.1,479.6,331.1z"/>
	<path class="st4" d="M562.1,293.6c0.8,0,1.5-0.7,1.5-1.5s-0.7-1.5-1.5-1.5s-1.5,0.7-1.5,1.5S561.3,293.6,562.1,293.6z"/>
	<path class="st4" d="M545.6,245.6c0.8,0,1.5-0.7,1.5-1.5s-0.7-1.5-1.5-1.5s-1.5,0.7-1.5,1.5S544.8,245.6,545.6,245.6z"/>
	<path class="st4" d="M614.6,188.6c0.8,0,1.5-0.7,1.5-1.5s-0.7-1.5-1.5-1.5s-1.5,0.7-1.5,1.5S613.8,188.6,614.6,188.6z"/>
	<path class="st4" d="M691.1,40.1c0.8,0,1.5-0.7,1.5-1.5s-0.7-1.5-1.5-1.5s-1.5,0.7-1.5,1.5S690.2,40.1,691.1,40.1z"/>
	<path class="st4" d="M623.6,196.1c0.8,0,1.5-0.7,1.5-1.5s-0.7-1.5-1.5-1.5s-1.5,0.7-1.5,1.5S622.8,196.1,623.6,196.1z"/>
	<path class="st5" d="M185.6,524.6c0.8,0,1.5-0.7,1.5-1.5s-0.7-1.5-1.5-1.5s-1.5,0.7-1.5,1.5S184.8,524.6,185.6,524.6z"/>
	<path class="st5" d="M329.6,511.1c0.8,0,1.5-0.7,1.5-1.5s-0.7-1.5-1.5-1.5s-1.5,0.7-1.5,1.5S328.8,511.1,329.6,511.1z"/>
	<path class="st5" d="M430.1,406.1c0.8,0,1.5-0.7,1.5-1.5s-0.7-1.5-1.5-1.5s-1.5,0.7-1.5,1.5S429.3,406.1,430.1,406.1z"/>
	<path class="st5" d="M448.1,425.6c0.8,0,1.5-0.7,1.5-1.5s-0.7-1.5-1.5-1.5s-1.5,0.7-1.5,1.5S447.3,425.6,448.1,425.6L448.1,425.6z"
		/>
	<path class="st5" d="M436.1,253.1c0.8,0,1.5-0.7,1.5-1.5s-0.7-1.5-1.5-1.5s-1.5,0.7-1.5,1.5S435.3,253.1,436.1,253.1z"/>
	<path class="st5" d="M509.6,284.6c0.8,0,1.5-0.7,1.5-1.5s-0.7-1.5-1.5-1.5l0,0c-0.8,0-1.5,0.7-1.5,1.5S508.8,284.6,509.6,284.6z"/>
	<path class="st5" d="M508.1,250.1c0.8,0,1.5-0.7,1.5-1.5s-0.7-1.5-1.5-1.5s-1.5,0.7-1.5,1.5S507.3,250.1,508.1,250.1z"/>
	<path class="st5" d="M535.1,271.1c0.8,0,1.5-0.7,1.5-1.5s-0.7-1.5-1.5-1.5s-1.5,0.7-1.5,1.5S534.3,271.1,535.1,271.1z"/>
	<path class="st5" d="M619.1,256.1c0.8,0,1.5-0.7,1.5-1.5s-0.7-1.5-1.5-1.5s-1.5,0.7-1.5,1.5S618.3,256.1,619.1,256.1z"/>
	<path class="st5" d="M557.6,139.1c0.8,0,1.5-0.7,1.5-1.5s-0.7-1.5-1.5-1.5s-1.5,0.7-1.5,1.5S556.8,139.1,557.6,139.1z"/>
	<path class="st5" d="M109.1,119.6c0.8,0,1.5-0.7,1.5-1.5s-0.7-1.5-1.5-1.5l0,0c-0.8,0-1.5,0.7-1.5,1.5S108.3,119.6,109.1,119.6z"/>
	<path class="st5" d="M71.6,47.6c0.8,0,1.5-0.7,1.5-1.5s-0.7-1.5-1.5-1.5s-1.5,0.7-1.5,1.5S70.8,47.6,71.6,47.6z"/>
	<path class="st5" d="M115.1,620.6c0.8,0,1.5-0.7,1.5-1.5s-0.7-1.5-1.5-1.5s-1.5,0.7-1.5,1.5S114.3,620.6,115.1,620.6L115.1,620.6z"
		/>
	<path class="st5" d="M533.6,397.1c0.8,0,1.5-0.7,1.5-1.5s-0.7-1.5-1.5-1.5s-1.5,0.7-1.5,1.5S532.8,397.1,533.6,397.1z"/>
	<path class="st6" d="M476.6,469.1c0.8,0,1.5-0.7,1.5-1.5s-0.7-1.5-1.5-1.5s-1.5,0.7-1.5,1.5S475.8,469.1,476.6,469.1z"/>
	<path class="st6" d="M464.6,463.1c0.8,0,1.5-0.7,1.5-1.5s-0.7-1.5-1.5-1.5s-1.5,0.7-1.5,1.5S463.8,463.1,464.6,463.1L464.6,463.1z"
		/>
	<path class="st6" d="M482.6,451.1c0.8,0,1.5-0.7,1.5-1.5s-0.7-1.5-1.5-1.5s-1.5,0.7-1.5,1.5S481.8,451.1,482.6,451.1z"/>
	<path class="st6" d="M491.6,440.6c0.8,0,1.5-0.7,1.5-1.5s-0.7-1.5-1.5-1.5s-1.5,0.7-1.5,1.5S490.8,440.6,491.6,440.6z"/>
	<path class="st6" d="M511.1,379.1c0.8,0,1.5-0.7,1.5-1.5s-0.7-1.5-1.5-1.5s-1.5,0.7-1.5,1.5S510.3,379.1,511.1,379.1z"/>
	<path class="st6" d="M478.1,368.6c0.8,0,1.5-0.7,1.5-1.5s-0.7-1.5-1.5-1.5s-1.5,0.7-1.5,1.5S477.3,368.6,478.1,368.6L478.1,368.6z"
		/>
	<path class="st6" d="M482.6,368.6c0.8,0,1.5-0.7,1.5-1.5s-0.7-1.5-1.5-1.5s-1.5,0.7-1.5,1.5S481.8,368.6,482.6,368.6z"/>
	<path class="st6" d="M485.6,368.6c0.8,0,1.5-0.7,1.5-1.5s-0.7-1.5-1.5-1.5s-1.5,0.7-1.5,1.5S484.8,368.6,485.6,368.6z"/>
	<path class="st6" d="M493.1,329.6c0.8,0,1.5-0.7,1.5-1.5s-0.7-1.5-1.5-1.5s-1.5,0.7-1.5,1.5S492.3,329.6,493.1,329.6L493.1,329.6z"
		/>
	<path class="st6" d="M527.6,272.6c0.8,0,1.5-0.7,1.5-1.5s-0.7-1.5-1.5-1.5s-1.5,0.7-1.5,1.5S526.8,272.6,527.6,272.6z"/>
	<path class="st6" d="M493.1,286.1c0.8,0,1.5-0.7,1.5-1.5s-0.7-1.5-1.5-1.5s-1.5,0.7-1.5,1.5S492.3,286.1,493.1,286.1L493.1,286.1z"
		/>
	<path class="st6" d="M472.1,301.1c0.8,0,1.5-0.7,1.5-1.5s-0.7-1.5-1.5-1.5s-1.5,0.7-1.5,1.5S471.3,301.1,472.1,301.1z"/>
	<path class="st6" d="M577.1,214.1c0.8,0,1.5-0.7,1.5-1.5s-0.7-1.5-1.5-1.5s-1.5,0.7-1.5,1.5S576.3,214.1,577.1,214.1z"/>
	<path class="st6" d="M595.1,281.6c0.8,0,1.5-0.7,1.5-1.5s-0.7-1.5-1.5-1.5s-1.5,0.7-1.5,1.5S594.3,281.6,595.1,281.6z"/>
	<path class="st6" d="M536.6,290.6c0.8,0,1.5-0.7,1.5-1.5s-0.7-1.5-1.5-1.5s-1.5,0.7-1.5,1.5S535.8,290.6,536.6,290.6z"/>
	<path class="st6" d="M461.6,314.6c0.8,0,1.5-0.7,1.5-1.5s-0.7-1.5-1.5-1.5s-1.5,0.7-1.5,1.5S460.8,314.6,461.6,314.6L461.6,314.6z"
		/>
	<path class="st6" d="M391.1,460.1c0.8,0,1.5-0.7,1.5-1.5s-0.7-1.5-1.5-1.5s-1.5,0.7-1.5,1.5S390.3,460.1,391.1,460.1z"/>
	<path class="st6" d="M356.6,505.1c0.8,0,1.5-0.7,1.5-1.5s-0.7-1.5-1.5-1.5s-1.5,0.7-1.5,1.5S355.8,505.1,356.6,505.1z"/>
	<path class="st6" d="M353.6,536.6c0.8,0,1.5-0.7,1.5-1.5s-0.7-1.5-1.5-1.5s-1.5,0.7-1.5,1.5S352.8,536.6,353.6,536.6z"/>
	<path class="st6" d="M310.1,601.1c0.8,0,1.5-0.7,1.5-1.5s-0.7-1.5-1.5-1.5s-1.5,0.7-1.5,1.5S309.3,601.1,310.1,601.1z"/>
	<path class="st6" d="M256.1,634.1c0.8,0,1.5-0.7,1.5-1.5s-0.7-1.5-1.5-1.5s-1.5,0.7-1.5,1.5S255.3,634.1,256.1,634.1L256.1,634.1z"
		/>
	<path class="st6" d="M254.6,658.1c0.8,0,1.5-0.7,1.5-1.5s-0.7-1.5-1.5-1.5s-1.5,0.7-1.5,1.5S253.8,658.1,254.6,658.1L254.6,658.1z"
		/>
	<path class="st6" d="M280.1,617.6c0.8,0,1.5-0.7,1.5-1.5s-0.7-1.5-1.5-1.5s-1.5,0.7-1.5,1.5S279.3,617.6,280.1,617.6z"/>
	<path class="st6" d="M271.1,608.6c0.8,0,1.5-0.7,1.5-1.5s-0.7-1.5-1.5-1.5s-1.5,0.7-1.5,1.5S270.3,608.6,271.1,608.6z"/>
	<path class="st6" d="M338.6,559.1c0.8,0,1.5-0.7,1.5-1.5s-0.7-1.5-1.5-1.5s-1.5,0.7-1.5,1.5S337.8,559.1,338.6,559.1z"/>
	<path class="st6" d="M391.1,559.1c0.8,0,1.5-0.7,1.5-1.5s-0.7-1.5-1.5-1.5s-1.5,0.7-1.5,1.5S390.3,559.1,391.1,559.1z"/>
	<path class="st6" d="M433.1,464.6c0.8,0,1.5-0.7,1.5-1.5s-0.7-1.5-1.5-1.5s-1.5,0.7-1.5,1.5S432.3,464.6,433.1,464.6z"/>
	<path class="st6" d="M580.1,353.6c0.8,0,1.5-0.7,1.5-1.5s-0.7-1.5-1.5-1.5s-1.5,0.7-1.5,1.5S579.3,353.6,580.1,353.6z"/>
	<path class="st6" d="M596.6,281.6c0.8,0,1.5-0.7,1.5-1.5s-0.7-1.5-1.5-1.5s-1.5,0.7-1.5,1.5S595.8,281.6,596.6,281.6z"/>
	<path class="st6" d="M622.1,221.6c0.8,0,1.5-0.7,1.5-1.5s-0.7-1.5-1.5-1.5s-1.5,0.7-1.5,1.5S621.3,221.6,622.1,221.6z"/>
	<path class="st6" d="M646.1,221.6c0.8,0,1.5-0.7,1.5-1.5s-0.7-1.5-1.5-1.5s-1.5,0.7-1.5,1.5S645.3,221.6,646.1,221.6z"/>
	<path class="st6" d="M656.6,145.1c0.8,0,1.5-0.7,1.5-1.5s-0.7-1.5-1.5-1.5s-1.5,0.7-1.5,1.5S655.8,145.1,656.6,145.1z"/>
	<path class="st6" d="M670.1,91.1c0.8,0,1.5-0.7,1.5-1.5s-0.7-1.5-1.5-1.5s-1.5,0.7-1.5,1.5S669.3,91.1,670.1,91.1z"/>
	<path class="st7" d="M425.6,457.1c0.8,0,1.5-0.7,1.5-1.5s-0.7-1.5-1.5-1.5s-1.5,0.7-1.5,1.5S424.8,457.1,425.6,457.1z"/>
	<path class="st7" d="M370.1,487.1c0.8,0,1.5-0.7,1.5-1.5s-0.7-1.5-1.5-1.5s-1.5,0.7-1.5,1.5S369.3,487.1,370.1,487.1z"/>
	<path class="st7" d="M356.6,487.1c0.8,0,1.5-0.7,1.5-1.5s-0.7-1.5-1.5-1.5s-1.5,0.7-1.5,1.5S355.8,487.1,356.6,487.1z"/>
	<path class="st7" d="M331.1,484.1c0.8,0,1.5-0.7,1.5-1.5s-0.7-1.5-1.5-1.5s-1.5,0.7-1.5,1.5S330.3,484.1,331.1,484.1z"/>
	<path class="st7" d="M343.1,524.6c0.8,0,1.5-0.7,1.5-1.5s-0.7-1.5-1.5-1.5s-1.5,0.7-1.5,1.5S342.3,524.6,343.1,524.6z"/>
	<path class="st7" d="M334.1,569.6c0.8,0,1.5-0.7,1.5-1.5s-0.7-1.5-1.5-1.5s-1.5,0.7-1.5,1.5S333.3,569.6,334.1,569.6z"/>
	<path class="st7" d="M296.6,562.1c0.8,0,1.5-0.7,1.5-1.5s-0.7-1.5-1.5-1.5s-1.5,0.7-1.5,1.5S295.8,562.1,296.6,562.1z"/>
	<path class="st7" d="M401.6,373.1c0.8,0,1.5-0.7,1.5-1.5s-0.7-1.5-1.5-1.5s-1.5,0.7-1.5,1.5S400.8,373.1,401.6,373.1z"/>
	<path class="st7" d="M433.1,373.1c0.8,0,1.5-0.7,1.5-1.5s-0.7-1.5-1.5-1.5s-1.5,0.7-1.5,1.5S432.3,373.1,433.1,373.1z"/>
	<path class="st7" d="M433.1,328.1c0.8,0,1.5-0.7,1.5-1.5s-0.7-1.5-1.5-1.5s-1.5,0.7-1.5,1.5S432.3,328.1,433.1,328.1z"/>
	<path class="st7" d="M445.1,338.6c0.8,0,1.5-0.7,1.5-1.5s-0.7-1.5-1.5-1.5s-1.5,0.7-1.5,1.5S444.3,338.6,445.1,338.6z"/>
	<path class="st7" d="M445.1,379.1c0.8,0,1.5-0.7,1.5-1.5s-0.7-1.5-1.5-1.5s-1.5,0.7-1.5,1.5S444.3,379.1,445.1,379.1z"/>
	<path class="st7" d="M484.1,208.1c0.8,0,1.5-0.7,1.5-1.5s-0.7-1.5-1.5-1.5l0,0c-0.8,0-1.5,0.7-1.5,1.5S483.3,208.1,484.1,208.1z"/>
	<path class="st7" d="M491.6,226.1c0.8,0,1.5-0.7,1.5-1.5s-0.7-1.5-1.5-1.5s-1.5,0.7-1.5,1.5S490.8,226.1,491.6,226.1z"/>
	<path class="st7" d="M491.6,262.1c0.8,0,1.5-0.7,1.5-1.5s-0.7-1.5-1.5-1.5s-1.5,0.7-1.5,1.5S490.8,262.1,491.6,262.1z"/>
	<path class="st7" d="M526.1,265.1c0.8,0,1.5-0.7,1.5-1.5s-0.7-1.5-1.5-1.5s-1.5,0.7-1.5,1.5S525.3,265.1,526.1,265.1z"/>
	<path class="st7" d="M526.1,289.1c0.8,0,1.5-0.7,1.5-1.5s-0.7-1.5-1.5-1.5s-1.5,0.7-1.5,1.5S525.3,289.1,526.1,289.1z"/>
	<path class="st7" d="M526.1,326.6c0.8,0,1.5-0.7,1.5-1.5s-0.7-1.5-1.5-1.5s-1.5,0.7-1.5,1.5S525.3,326.6,526.1,326.6z"/>
	<path class="st7" d="M512.6,313.1c0.8,0,1.5-0.7,1.5-1.5s-0.7-1.5-1.5-1.5c-0.8,0-1.5,0.7-1.5,1.5S511.8,313.1,512.6,313.1z"/>
	<path class="st7" d="M499.1,313.1c0.8,0,1.5-0.7,1.5-1.5s-0.7-1.5-1.5-1.5s-1.5,0.7-1.5,1.5S498.3,313.1,499.1,313.1z"/>
	<path class="st7" d="M490.1,313.1c0.8,0,1.5-0.7,1.5-1.5s-0.7-1.5-1.5-1.5s-1.5,0.7-1.5,1.5S489.3,313.1,490.1,313.1L490.1,313.1z"
		/>
	<path class="st7" d="M545.6,251.6c0.8,0,1.5-0.7,1.5-1.5s-0.7-1.5-1.5-1.5s-1.5,0.7-1.5,1.5S544.8,251.6,545.6,251.6z"/>
	<path class="st7" d="M568.1,253.1c0.8,0,1.5-0.7,1.5-1.5s-0.7-1.5-1.5-1.5s-1.5,0.7-1.5,1.5S567.3,253.1,568.1,253.1z"/>
	<path class="st7" d="M575.6,253.1c0.8,0,1.5-0.7,1.5-1.5s-0.7-1.5-1.5-1.5s-1.5,0.7-1.5,1.5S574.8,253.1,575.6,253.1z"/>
	<path class="st7" d="M560.6,203.6c0.8,0,1.5-0.7,1.5-1.5s-0.7-1.5-1.5-1.5s-1.5,0.7-1.5,1.5S559.8,203.6,560.6,203.6z"/>
	<path class="st7" d="M563.6,181.1c0.8,0,1.5-0.7,1.5-1.5s-0.7-1.5-1.5-1.5s-1.5,0.7-1.5,1.5S562.8,181.1,563.6,181.1z"/>
	<path class="st7" d="M587.6,179.6c0.8,0,1.5-0.7,1.5-1.5s-0.7-1.5-1.5-1.5s-1.5,0.7-1.5,1.5S586.8,179.6,587.6,179.6z"/>
	<path class="st7" d="M590.6,124.1c0.8,0,1.5-0.7,1.5-1.5s-0.7-1.5-1.5-1.5s-1.5,0.7-1.5,1.5S589.8,124.1,590.6,124.1z"/>
	<path class="st7" d="M646.1,151.1c0.8,0,1.5-0.7,1.5-1.5s-0.7-1.5-1.5-1.5s-1.5,0.7-1.5,1.5S645.3,151.1,646.1,151.1z"/>
	<path class="st7" d="M716.6,82.1c0.8,0,1.5-0.7,1.5-1.5s-0.7-1.5-1.5-1.5s-1.5,0.7-1.5,1.5S715.7,82.1,716.6,82.1z"/>
	<path class="st7" d="M689.6,119.6c0.8,0,1.5-0.7,1.5-1.5s-0.7-1.5-1.5-1.5s-1.5,0.7-1.5,1.5S688.7,119.6,689.6,119.6z"/>
	<path class="st7" d="M685.1,119.6c0.8,0,1.5-0.7,1.5-1.5s-0.7-1.5-1.5-1.5s-1.5,0.7-1.5,1.5S684.2,119.6,685.1,119.6z"/>
	<path class="st7" d="M674.6,119.6c0.8,0,1.5-0.7,1.5-1.5s-0.7-1.5-1.5-1.5s-1.5,0.7-1.5,1.5S673.8,119.6,674.6,119.6z"/>
	<path class="st7" d="M682.1,142.1c0.8,0,1.5-0.7,1.5-1.5s-0.7-1.5-1.5-1.5s-1.5,0.7-1.5,1.5S681.3,142.1,682.1,142.1z"/>
	<path class="st7" d="M665.6,178.1c0.8,0,1.5-0.7,1.5-1.5s-0.7-1.5-1.5-1.5s-1.5,0.7-1.5,1.5S664.8,178.1,665.6,178.1z"/>
	<path class="st7" d="M644.6,178.1c0.8,0,1.5-0.7,1.5-1.5s-0.7-1.5-1.5-1.5s-1.5,0.7-1.5,1.5S643.8,178.1,644.6,178.1z"/>
	<path class="st7" d="M644.6,196.1c0.8,0,1.5-0.7,1.5-1.5s-0.7-1.5-1.5-1.5s-1.5,0.7-1.5,1.5S643.8,196.1,644.6,196.1z"/>
	<path class="st7" d="M614.6,217.1c0.8,0,1.5-0.7,1.5-1.5s-0.7-1.5-1.5-1.5s-1.5,0.7-1.5,1.5S613.8,217.1,614.6,217.1z"/>
	<path class="st7" d="M593.6,217.1c0.8,0,1.5-0.7,1.5-1.5s-0.7-1.5-1.5-1.5s-1.5,0.7-1.5,1.5S592.8,217.1,593.6,217.1z"/>
	<path class="st7" d="M593.6,242.6c0.8,0,1.5-0.7,1.5-1.5s-0.7-1.5-1.5-1.5s-1.5,0.7-1.5,1.5S592.8,242.6,593.6,242.6z"/>
	<path class="st7" d="M575.6,239.6c0.8,0,1.5-0.7,1.5-1.5s-0.7-1.5-1.5-1.5s-1.5,0.7-1.5,1.5S574.8,239.6,575.6,239.6z"/>
	<path class="st7" d="M575.6,239.6c0.8,0,1.5-0.7,1.5-1.5s-0.7-1.5-1.5-1.5s-1.5,0.7-1.5,1.5S574.8,239.6,575.6,239.6z"/>
	<path class="st8" d="M430.1,544.1c0.8,0,1.5-0.7,1.5-1.5s-0.7-1.5-1.5-1.5s-1.5,0.7-1.5,1.5S429.3,544.1,430.1,544.1z"/>
	<path class="st8" d="M460.1,512.6c0.8,0,1.5-0.7,1.5-1.5s-0.7-1.5-1.5-1.5s-1.5,0.7-1.5,1.5S459.3,512.6,460.1,512.6z"/>
	<path class="st8" d="M457.1,467.6c0.8,0,1.5-0.7,1.5-1.5s-0.7-1.5-1.5-1.5l0,0c-0.8,0-1.5,0.7-1.5,1.5S456.3,467.6,457.1,467.6z"/>
	<path class="st8" d="M464.6,382.1c0.8,0,1.5-0.7,1.5-1.5s-0.7-1.5-1.5-1.5s-1.5,0.7-1.5,1.5S463.8,382.1,464.6,382.1L464.6,382.1z"
		/>
	<path class="st8" d="M484.1,382.1c0.8,0,1.5-0.7,1.5-1.5s-0.7-1.5-1.5-1.5l0,0c-0.8,0-1.5,0.7-1.5,1.5S483.3,382.1,484.1,382.1z"/>
	<path class="st8" d="M497.6,347.6c0.8,0,1.5-0.7,1.5-1.5s-0.7-1.5-1.5-1.5s-1.5,0.7-1.5,1.5S496.8,347.6,497.6,347.6z"/>
	<path class="st8" d="M517.1,347.6c0.8,0,1.5-0.7,1.5-1.5s-0.7-1.5-1.5-1.5s-1.5,0.7-1.5,1.5S516.3,347.6,517.1,347.6z"/>
	<path class="st8" d="M521.6,353.6c0.8,0,1.5-0.7,1.5-1.5s-0.7-1.5-1.5-1.5s-1.5,0.7-1.5,1.5S520.8,353.6,521.6,353.6z"/>
	<path class="st9" d="M506.6,413.6c0.8,0,1.5-0.7,1.5-1.5s-0.7-1.5-1.5-1.5s-1.5,0.7-1.5,1.5S505.8,413.6,506.6,413.6L506.6,413.6z"
		/>
	<path class="st9" d="M464.6,377.6c0.8,0,1.5-0.7,1.5-1.5s-0.7-1.5-1.5-1.5s-1.5,0.7-1.5,1.5S463.8,377.6,464.6,377.6L464.6,377.6z"
		/>
	<path class="st9" d="M505.1,368.6c0.8,0,1.5-0.7,1.5-1.5s-0.7-1.5-1.5-1.5s-1.5,0.7-1.5,1.5S504.3,368.6,505.1,368.6z"/>
	<path class="st9" d="M518.6,301.1c0.8,0,1.5-0.7,1.5-1.5s-0.7-1.5-1.5-1.5s-1.5,0.7-1.5,1.5S517.8,301.1,518.6,301.1z"/>
	<path class="st9" d="M548.6,308.6c0.8,0,1.5-0.7,1.5-1.5s-0.7-1.5-1.5-1.5s-1.5,0.7-1.5,1.5S547.8,308.6,548.6,308.6z"/>
	<path class="st9" d="M532.1,314.6c0.8,0,1.5-0.7,1.5-1.5s-0.7-1.5-1.5-1.5s-1.5,0.7-1.5,1.5S531.3,314.6,532.1,314.6z"/>
	<path class="st9" d="M520.1,314.6c0.8,0,1.5-0.7,1.5-1.5s-0.7-1.5-1.5-1.5s-1.5,0.7-1.5,1.5S519.3,314.6,520.1,314.6z"/>
	<path class="st9" d="M518.6,314.6c0.8,0,1.5-0.7,1.5-1.5s-0.7-1.5-1.5-1.5s-1.5,0.7-1.5,1.5S517.8,314.6,518.6,314.6z"/>
	<path class="st9" d="M430.1,328.1c0.8,0,1.5-0.7,1.5-1.5s-0.7-1.5-1.5-1.5s-1.5,0.7-1.5,1.5S429.3,328.1,430.1,328.1z"/>
	<path class="st9" d="M439.1,358.1c0.8,0,1.5-0.7,1.5-1.5s-0.7-1.5-1.5-1.5s-1.5,0.7-1.5,1.5S438.3,358.1,439.1,358.1z"/>
	<path class="st9" d="M394.1,424.1c0.8,0,1.5-0.7,1.5-1.5s-0.7-1.5-1.5-1.5s-1.5,0.7-1.5,1.5S393.3,424.1,394.1,424.1z"/>
	<path class="st9" d="M344.6,467.6c0.8,0,1.5-0.7,1.5-1.5s-0.7-1.5-1.5-1.5s-1.5,0.7-1.5,1.5S343.8,467.6,344.6,467.6z"/>
	<path class="st9" d="M73.1,319.1c0.8,0,1.5-0.7,1.5-1.5s-0.7-1.5-1.5-1.5s-1.5,0.7-1.5,1.5S72.3,319.1,73.1,319.1z"/>
	<path class="st9" d="M58.1,97.1c0.8,0,1.5-0.7,1.5-1.5s-0.7-1.5-1.5-1.5s-1.5,0.7-1.5,1.5S57.3,97.1,58.1,97.1z"/>
	<path class="st9" d="M91.1,101.6c0.8,0,1.5-0.7,1.5-1.5s-0.7-1.5-1.5-1.5s-1.5,0.7-1.5,1.5S90.3,101.6,91.1,101.6z"/>
	<path class="st9" d="M88.1,82.1c0.8,0,1.5-0.7,1.5-1.5s-0.7-1.5-1.5-1.5s-1.5,0.7-1.5,1.5S87.3,82.1,88.1,82.1z"/>
	<path class="st9" d="M46.1,62.6c0.8,0,1.5-0.7,1.5-1.5s-0.7-1.5-1.5-1.5s-1.5,0.7-1.5,1.5S45.3,62.6,46.1,62.6z"/>
	<path class="st9" d="M110.6,53.6c0.8,0,1.5-0.7,1.5-1.5s-0.7-1.5-1.5-1.5s-1.5,0.7-1.5,1.5S109.8,53.6,110.6,53.6z"/>
	<path class="st9" d="M104.6,40.1c0.8,0,1.5-0.7,1.5-1.5s-0.7-1.5-1.5-1.5s-1.5,0.7-1.5,1.5S103.8,40.1,104.6,40.1z"/>
	<path class="st9" d="M29.6,22.1c0.8,0,1.5-0.7,1.5-1.5s-0.7-1.5-1.5-1.5s-1.5,0.7-1.5,1.5S28.8,22.1,29.6,22.1z"/>
	<path class="st9" d="M442.1,110.6c0.8,0,1.5-0.7,1.5-1.5s-0.7-1.5-1.5-1.5s-1.5,0.7-1.5,1.5S441.3,110.6,442.1,110.6z"/>
	<path class="st9" d="M346.1,281.6c0.8,0,1.5-0.7,1.5-1.5s-0.7-1.5-1.5-1.5s-1.5,0.7-1.5,1.5S345.3,281.6,346.1,281.6z"/>
	<path class="st9" d="M694.1,574.1c0.8,0,1.5-0.7,1.5-1.5s-0.7-1.5-1.5-1.5s-1.5,0.7-1.5,1.5S693.2,574.1,694.1,574.1z"/>
	<path class="st9" d="M706.1,413.6c0.8,0,1.5-0.7,1.5-1.5s-0.7-1.5-1.5-1.5s-1.5,0.7-1.5,1.5S705.2,413.6,706.1,413.6z"/>
	<path class="st9" d="M563.6,347.6c0.8,0,1.5-0.7,1.5-1.5s-0.7-1.5-1.5-1.5s-1.5,0.7-1.5,1.5S562.8,347.6,563.6,347.6z"/>
	<path class="st9" d="M463.1,370.1c0.8,0,1.5-0.7,1.5-1.5s-0.7-1.5-1.5-1.5s-1.5,0.7-1.5,1.5S462.3,370.1,463.1,370.1z"/>
	<path class="st9" d="M454.1,370.1c0.8,0,1.5-0.7,1.5-1.5s-0.7-1.5-1.5-1.5l0,0c-0.8,0-1.5,0.7-1.5,1.5S453.3,370.1,454.1,370.1z"/>
	<path class="st9" d="M455.6,398.6c0.8,0,1.5-0.7,1.5-1.5s-0.7-1.5-1.5-1.5s-1.5,0.7-1.5,1.5S454.8,398.6,455.6,398.6z"/>
	<path class="st9" d="M455.6,430.1c0.8,0,1.5-0.7,1.5-1.5s-0.7-1.5-1.5-1.5s-1.5,0.7-1.5,1.5S454.8,430.1,455.6,430.1z"/>
	<path class="st9" d="M460.1,389.6c0.8,0,1.5-0.7,1.5-1.5s-0.7-1.5-1.5-1.5s-1.5,0.7-1.5,1.5S459.3,389.6,460.1,389.6z"/>
	<path class="st9" d="M446.6,383.6c0.8,0,1.5-0.7,1.5-1.5s-0.7-1.5-1.5-1.5s-1.5,0.7-1.5,1.5S445.8,383.6,446.6,383.6z"/>
	<path class="st9" d="M448.1,332.6c0.8,0,1.5-0.7,1.5-1.5s-0.7-1.5-1.5-1.5s-1.5,0.7-1.5,1.5S447.3,332.6,448.1,332.6L448.1,332.6z"
		/>
	<path class="st9" d="M457.1,337.1c0.8,0,1.5-0.7,1.5-1.5s-0.7-1.5-1.5-1.5l0,0c-0.8,0-1.5,0.7-1.5,1.5S456.3,337.1,457.1,337.1z"/>
	<path class="st9" d="M458.6,359.6c0.8,0,1.5-0.7,1.5-1.5s-0.7-1.5-1.5-1.5s-1.5,0.7-1.5,1.5S457.8,359.6,458.6,359.6z"/>
	<path class="st9" d="M458.6,362.6c0.8,0,1.5-0.7,1.5-1.5s-0.7-1.5-1.5-1.5s-1.5,0.7-1.5,1.5S457.8,362.6,458.6,362.6z"/>
	<path class="st9" d="M478.1,362.6c0.8,0,1.5-0.7,1.5-1.5s-0.7-1.5-1.5-1.5s-1.5,0.7-1.5,1.5S477.3,362.6,478.1,362.6L478.1,362.6z"
		/>
	<path class="st9" d="M485.6,362.6c0.8,0,1.5-0.7,1.5-1.5s-0.7-1.5-1.5-1.5s-1.5,0.7-1.5,1.5S484.8,362.6,485.6,362.6z"/>
	<path class="st9" d="M488.6,380.6c0.8,0,1.5-0.7,1.5-1.5s-0.7-1.5-1.5-1.5s-1.5,0.7-1.5,1.5S487.8,380.6,488.6,380.6z"/>
	<path class="st9" d="M497.6,380.6c0.8,0,1.5-0.7,1.5-1.5s-0.7-1.5-1.5-1.5s-1.5,0.7-1.5,1.5S496.8,380.6,497.6,380.6z"/>
	<path class="st9" d="M497.6,380.6c0.8,0,1.5-0.7,1.5-1.5s-0.7-1.5-1.5-1.5s-1.5,0.7-1.5,1.5S496.8,380.6,497.6,380.6z"/>
	<path class="st9" d="M497.6,380.6c0.8,0,1.5-0.7,1.5-1.5s-0.7-1.5-1.5-1.5s-1.5,0.7-1.5,1.5S496.8,380.6,497.6,380.6z"/>
	<path class="st9" d="M503.6,331.1c0.8,0,1.5-0.7,1.5-1.5s-0.7-1.5-1.5-1.5s-1.5,0.7-1.5,1.5S502.8,331.1,503.6,331.1L503.6,331.1z"
		/>
	<path class="st9" d="M503.6,331.1c0.8,0,1.5-0.7,1.5-1.5s-0.7-1.5-1.5-1.5s-1.5,0.7-1.5,1.5S502.8,331.1,503.6,331.1L503.6,331.1z"
		/>
	<path class="st9" d="M503.6,331.1c0.8,0,1.5-0.7,1.5-1.5s-0.7-1.5-1.5-1.5s-1.5,0.7-1.5,1.5S502.8,331.1,503.6,331.1L503.6,331.1z"
		/>
	<path class="st10" d="M470.6,356.6c0.8,0,1.5-0.7,1.5-1.5s-0.7-1.5-1.5-1.5l0,0c-0.8,0-1.5,0.7-1.5,1.5S469.8,356.6,470.6,356.6z"
		/>
	<path class="st10" d="M455.6,356.6c0.8,0,1.5-0.7,1.5-1.5s-0.7-1.5-1.5-1.5s-1.5,0.7-1.5,1.5S454.8,356.6,455.6,356.6z"/>
	<path class="st10" d="M460.1,388.1c0.8,0,1.5-0.7,1.5-1.5s-0.7-1.5-1.5-1.5s-1.5,0.7-1.5,1.5S459.3,388.1,460.1,388.1z"/>
	<path class="st10" d="M451.1,389.6c0.8,0,1.5-0.7,1.5-1.5s-0.7-1.5-1.5-1.5s-1.5,0.7-1.5,1.5S450.3,389.6,451.1,389.6L451.1,389.6z
		"/>
	<path class="st10" d="M451.1,400.1c0.8,0,1.5-0.7,1.5-1.5s-0.7-1.5-1.5-1.5s-1.5,0.7-1.5,1.5S450.3,400.1,451.1,400.1L451.1,400.1z
		"/>
	<path class="st10" d="M451.1,406.1c0.8,0,1.5-0.7,1.5-1.5s-0.7-1.5-1.5-1.5s-1.5,0.7-1.5,1.5S450.3,406.1,451.1,406.1L451.1,406.1z
		"/>
	<path class="st10" d="M449.6,415.1c0.8,0,1.5-0.7,1.5-1.5s-0.7-1.5-1.5-1.5s-1.5,0.7-1.5,1.5S448.8,415.1,449.6,415.1z"/>
	<path class="st10" d="M436.1,440.6c0.8,0,1.5-0.7,1.5-1.5s-0.7-1.5-1.5-1.5s-1.5,0.7-1.5,1.5S435.3,440.6,436.1,440.6z"/>
	<path class="st10" d="M412.1,440.6c0.8,0,1.5-0.7,1.5-1.5s-0.7-1.5-1.5-1.5s-1.5,0.7-1.5,1.5S411.3,440.6,412.1,440.6z"/>
	<path class="st10" d="M412.1,440.6c0.8,0,1.5-0.7,1.5-1.5s-0.7-1.5-1.5-1.5s-1.5,0.7-1.5,1.5S411.3,440.6,412.1,440.6z"/>
	<path class="st10" d="M437.6,466.1c0.8,0,1.5-0.7,1.5-1.5s-0.7-1.5-1.5-1.5s-1.5,0.7-1.5,1.5S436.8,466.1,437.6,466.1L437.6,466.1z
		"/>
	<path class="st10" d="M437.6,466.1c0.8,0,1.5-0.7,1.5-1.5s-0.7-1.5-1.5-1.5s-1.5,0.7-1.5,1.5S436.8,466.1,437.6,466.1L437.6,466.1z
		"/>
	<path class="st10" d="M422.6,505.1c0.8,0,1.5-0.7,1.5-1.5s-0.7-1.5-1.5-1.5s-1.5,0.7-1.5,1.5S421.8,505.1,422.6,505.1z"/>
	<path class="st10" d="M415.1,500.6c0.8,0,1.5-0.7,1.5-1.5s-0.7-1.5-1.5-1.5s-1.5,0.7-1.5,1.5S414.3,500.6,415.1,500.6z"/>
	<path class="st10" d="M566.6,310.1c0.8,0,1.5-0.7,1.5-1.5s-0.7-1.5-1.5-1.5s-1.5,0.7-1.5,1.5S565.8,310.1,566.6,310.1z"/>
	<path class="st10" d="M541.1,272.6c0.8,0,1.5-0.7,1.5-1.5s-0.7-1.5-1.5-1.5s-1.5,0.7-1.5,1.5S540.3,272.6,541.1,272.6z"/>
	<path class="st10" d="M532.1,229.1c0.8,0,1.5-0.7,1.5-1.5s-0.7-1.5-1.5-1.5s-1.5,0.7-1.5,1.5S531.3,229.1,532.1,229.1z"/>
	<path class="st10" d="M568.1,229.1c0.8,0,1.5-0.7,1.5-1.5s-0.7-1.5-1.5-1.5s-1.5,0.7-1.5,1.5S567.3,229.1,568.1,229.1z"/>
	<path class="st10" d="M605.6,262.1c0.8,0,1.5-0.7,1.5-1.5s-0.7-1.5-1.5-1.5s-1.5,0.7-1.5,1.5S604.8,262.1,605.6,262.1z"/>
	<path class="st10" d="M605.6,245.6c0.8,0,1.5-0.7,1.5-1.5s-0.7-1.5-1.5-1.5s-1.5,0.7-1.5,1.5S604.8,245.6,605.6,245.6z"/>
	<path class="st10" d="M605.6,244.1c0.8,0,1.5-0.7,1.5-1.5s-0.7-1.5-1.5-1.5s-1.5,0.7-1.5,1.5S604.8,244.1,605.6,244.1z"/>
	<path class="st10" d="M598.1,202.1c0.8,0,1.5-0.7,1.5-1.5s-0.7-1.5-1.5-1.5s-1.5,0.7-1.5,1.5S597.3,202.1,598.1,202.1z"/>
	<path class="st10" d="M598.1,202.1c0.8,0,1.5-0.7,1.5-1.5s-0.7-1.5-1.5-1.5s-1.5,0.7-1.5,1.5S597.3,202.1,598.1,202.1z"/>
	<path class="st10" d="M596.6,232.1c0.8,0,1.5-0.7,1.5-1.5s-0.7-1.5-1.5-1.5s-1.5,0.7-1.5,1.5S595.8,232.1,596.6,232.1z"/>
	<path class="st10" d="M598.1,176.6c0.8,0,1.5-0.7,1.5-1.5s-0.7-1.5-1.5-1.5s-1.5,0.7-1.5,1.5S597.3,176.6,598.1,176.6z"/>
	<path class="st10" d="M599.6,167.6c0.8,0,1.5-0.7,1.5-1.5s-0.7-1.5-1.5-1.5s-1.5,0.7-1.5,1.5S598.8,167.6,599.6,167.6z"/>
	<path class="st10" d="M610.1,166.1c0.8,0,1.5-0.7,1.5-1.5s-0.7-1.5-1.5-1.5s-1.5,0.7-1.5,1.5S609.3,166.1,610.1,166.1z"/>
	<path class="st10" d="M610.1,166.1c0.8,0,1.5-0.7,1.5-1.5s-0.7-1.5-1.5-1.5s-1.5,0.7-1.5,1.5S609.3,166.1,610.1,166.1z"/>
	<path class="st10" d="M610.1,166.1c0.8,0,1.5-0.7,1.5-1.5s-0.7-1.5-1.5-1.5s-1.5,0.7-1.5,1.5S609.3,166.1,610.1,166.1z"/>
	<path class="st10" d="M622.1,155.6c0.8,0,1.5-0.7,1.5-1.5s-0.7-1.5-1.5-1.5s-1.5,0.7-1.5,1.5S621.3,155.6,622.1,155.6z"/>
	<path class="st10" d="M622.1,142.1c0.8,0,1.5-0.7,1.5-1.5s-0.7-1.5-1.5-1.5s-1.5,0.7-1.5,1.5S621.3,142.1,622.1,142.1z"/>
	<path class="st10" d="M622.1,142.1c0.8,0,1.5-0.7,1.5-1.5s-0.7-1.5-1.5-1.5s-1.5,0.7-1.5,1.5S621.3,142.1,622.1,142.1z"/>
	<path class="st10" d="M622.1,142.1c0.8,0,1.5-0.7,1.5-1.5s-0.7-1.5-1.5-1.5s-1.5,0.7-1.5,1.5S621.3,142.1,622.1,142.1z"/>
	<path class="st10" d="M622.1,142.1c0.8,0,1.5-0.7,1.5-1.5s-0.7-1.5-1.5-1.5s-1.5,0.7-1.5,1.5S621.3,142.1,622.1,142.1z"/>
	<path class="st10" d="M656.6,134.6c0.8,0,1.5-0.7,1.5-1.5s-0.7-1.5-1.5-1.5s-1.5,0.7-1.5,1.5S655.8,134.6,656.6,134.6z"/>
	<path class="st10" d="M656.6,134.6c0.8,0,1.5-0.7,1.5-1.5s-0.7-1.5-1.5-1.5s-1.5,0.7-1.5,1.5S655.8,134.6,656.6,134.6z"/>
	<path class="st10" d="M656.6,134.6c0.8,0,1.5-0.7,1.5-1.5s-0.7-1.5-1.5-1.5s-1.5,0.7-1.5,1.5S655.8,134.6,656.6,134.6z"/>
	<path class="st11" d="M271.1,917.6c0.8,0,1.5-0.7,1.5-1.5s-0.7-1.5-1.5-1.5s-1.5,0.7-1.5,1.5S270.3,917.6,271.1,917.6z"/>
	<path class="st11" d="M530.6,997.1c0.8,0,1.5-0.7,1.5-1.5s-0.7-1.5-1.5-1.5s-1.5,0.7-1.5,1.5S529.8,997.1,530.6,997.1z"/>
	<path class="st11" d="M656.6,1043.6c0.8,0,1.5-0.7,1.5-1.5s-0.7-1.5-1.5-1.5s-1.5,0.7-1.5,1.5S655.8,1043.6,656.6,1043.6z"/>
	<path class="st11" d="M74.6,1144.1c0.8,0,1.5-0.7,1.5-1.5s-0.7-1.5-1.5-1.5s-1.5,0.7-1.5,1.5S73.8,1144.1,74.6,1144.1z"/>
	<path class="st11" d="M199.1,1081.1c0.8,0,1.5-0.7,1.5-1.5s-0.7-1.5-1.5-1.5s-1.5,0.7-1.5,1.5S198.3,1081.1,199.1,1081.1z"/>
</g>
</svg>
