<svg id="Layer_1" data-name="Layer 1" xmlns="http://www.w3.org/2000/svg" viewBox="0 0 372.16 164"><defs><style>.cls-1,.cls-6{fill:#08222e;}.cls-2{fill:#9fecf4;}.cls-3{fill:#20585b;}.cls-4{fill:#4a9e9e;}.cls-5{fill:#ade0de;}.cls-6,.cls-7{isolation:isolate;font-size:112.15px;stroke:#9fecf4;stroke-miterlimit:10;font-family:RubikMonoOne-Regular, Rubik Mono One;}.cls-7{fill:none;stroke-width:4px;}</style></defs><title>single-m</title><text x="-226" y="-344"></text><circle class="cls-1" cx="82" cy="82" r="82"/><path class="cls-2" d="M258.67,444.83a1.5,1.5,0,0,0,0-3,1.5,1.5,0,0,0,0,3Z" transform="translate(-226 -344)"/><path class="cls-2" d="M305.33,372.83a1.5,1.5,0,0,0,0-3,1.5,1.5,0,0,0,0,3Z" transform="translate(-226 -344)"/><path class="cls-2" d="M332.67,381.5a1.5,1.5,0,0,0,0-3,1.5,1.5,0,0,0,0,3Z" transform="translate(-226 -344)"/><path class="cls-2" d="M349.33,366.83a1.5,1.5,0,0,0,0-3,1.5,1.5,0,0,0,0,3Z" transform="translate(-226 -344)"/><path class="cls-2" d="M358,467.5a1.5,1.5,0,0,0,0-3,1.5,1.5,0,0,0,0,3Z" transform="translate(-226 -344)"/><path class="cls-3" d="M256,464.83a1.5,1.5,0,0,0,0-3,1.5,1.5,0,0,0,0,3Z" transform="translate(-226 -344)"/><path class="cls-3" d="M258,456.17a1.5,1.5,0,0,0,0-3,1.5,1.5,0,0,0,0,3Z" transform="translate(-226 -344)"/><path class="cls-3" d="M264,456.17a1.5,1.5,0,0,0,0-3,1.5,1.5,0,0,0,0,3Z" transform="translate(-226 -344)"/><path class="cls-3" d="M318.67,378.83a1.5,1.5,0,0,0,0-3,1.5,1.5,0,0,0,0,3Z" transform="translate(-226 -344)"/><path class="cls-3" d="M366.67,406.17a1.5,1.5,0,0,0,0-3,1.5,1.5,0,0,0,0,3Z" transform="translate(-226 -344)"/><path class="cls-3" d="M334,438.83a1.5,1.5,0,0,0,0-3,1.5,1.5,0,0,0,0,3Z" transform="translate(-226 -344)"/><path class="cls-3" d="M338.67,395.5a1.5,1.5,0,0,0,0-3,1.5,1.5,0,0,0,0,3Z" transform="translate(-226 -344)"/><path class="cls-3" d="M340.67,367.5a1.5,1.5,0,0,0,0-3,1.5,1.5,0,0,0,0,3Z" transform="translate(-226 -344)"/><path class="cls-4" d="M293,450a1.79,1.79,0,0,0,2.18,1.3,2.39,2.39,0,0,0,1.45-1.23,2.09,2.09,0,0,0-.27-2.39,2.55,2.55,0,0,0-2.53-.61,4.06,4.06,0,0,0-2.2,1.49,1.86,1.86,0,0,0,.66,2.47c1.22.78,3.5.1,3.27-1.64a1.54,1.54,0,0,0-1.5-1.5c-.72,0-1.61.67-1.5,1.5,0,.27.08.11.17-.49l.4-.4c.25-.1.31-.12.16-.08.26,0,.33,0,.2,0a.74.74,0,0,1,.25.05,1.14,1.14,0,0,1,.63,1.28l-.39.66c.22-.19,0,0,.19-.15a3.26,3.26,0,0,1,.4-.24l.06,0h-.12c.18,0,.19,0,0,0a.41.41,0,0,1-.29-.21,1.13,1.13,0,0,1-.31-.94c0,.11,0,.06.08-.17-.06.1-.05.1,0,0s.09-.11,0,0-.07.08,0,0a.74.74,0,0,1,.33-.17,1.26,1.26,0,0,1,1.48.8,1.53,1.53,0,0,0-1.84-1A1.5,1.5,0,0,0,293,450Z" transform="translate(-226 -344)"/><path class="cls-4" d="M356.67,385.5a1.5,1.5,0,0,0,0-3,1.5,1.5,0,0,0,0,3Z" transform="translate(-226 -344)"/><path class="cls-4" d="M317.33,393.5a1.5,1.5,0,0,0,0-3,1.5,1.5,0,0,0,0,3Z" transform="translate(-226 -344)"/><path class="cls-4" d="M302.67,416.83a1.5,1.5,0,0,0,0-3,1.5,1.5,0,0,0,0,3Z" transform="translate(-226 -344)"/><path class="cls-5" d="M256.07,374.58a2.59,2.59,0,0,0,2.67,3.81,2.14,2.14,0,0,0,1.47-2.62,2.47,2.47,0,0,0-1.79-1.92v2.89c.26-.1-.19,0-.29,0a.58.58,0,0,1-.3-.18c.1.1.11.11,0,0s-.06-.08,0,0c-.07-.18-.09-.21-.06-.11s0,.07,0-.13a.79.79,0,0,1,.25-.59,1.55,1.55,0,0,0,0,2.12,1.5,1.5,0,0,0,2.12,0,2.48,2.48,0,0,0-2.54-4,1.5,1.5,0,0,0,0,2.89c.23.06,0,0-.12-.07a.62.62,0,0,1-.23-.32c.07.18,0,0,0-.07a.77.77,0,0,1,.22-.45l.66-.39c-.17.05-.14.05.08,0a.6.6,0,0,1,.35.08c-.21-.08.06.06.14.17-.16-.23,0,.23,0,0a.59.59,0,0,1,0,.37c-.1.19-.1.21,0,.07a1.5,1.5,0,0,0-2.59-1.52Z" transform="translate(-226 -344)"/><path class="cls-5" d="M309.67,483.5a1.5,1.5,0,0,0,0-3,1.5,1.5,0,0,0,0,3Z" transform="translate(-226 -344)"/><g id="Layer_2" data-name="Layer 2"><g id="Layer_1-2" data-name="Layer 1-2"><text class="cls-6" transform="translate(35.97 122.34)">M</text><text class="cls-7" transform="translate(35.97 122.34)">M</text></g></g></svg>