<svg id="Layer_1" data-name="Layer 1" xmlns="http://www.w3.org/2000/svg" xmlns:xlink="http://www.w3.org/1999/xlink" viewBox="0 0 596 751"><defs><style>.cls-1{stroke:#08222e;stroke-miterlimit:10;fill:url(#linear-gradient);}.cls-2{fill:#1f5263;}.cls-3{fill:#438b9e;}.cls-4{fill:#80c6d6;}.cls-5{fill:#daf6f7;}</style><linearGradient id="linear-gradient" x1="291.11" y1="937.57" x2="302.62" y2="-1.46" gradientUnits="userSpaceOnUse"><stop offset="0.13" stop-color="#fff"/><stop offset="0.16" stop-color="#d6dbdd"/><stop offset="0.21" stop-color="#a6b0b4"/><stop offset="0.25" stop-color="#7c8a90"/><stop offset="0.3" stop-color="#586a72"/><stop offset="0.35" stop-color="#3b5059"/><stop offset="0.41" stop-color="#243b46"/><stop offset="0.47" stop-color="#142d38"/><stop offset="0.53" stop-color="#0b2530"/><stop offset="0.62" stop-color="#08222e"/></linearGradient></defs><title>background2</title><rect class="cls-1" x="0.5" y="0.5" width="595" height="750"/><path class="cls-2" d="M114.48,364.48a1.5,1.5,0,0,0,0-3,1.5,1.5,0,0,0,0,3Z"/><path class="cls-2" d="M210.48,391.47a1.5,1.5,0,0,0,0-3,1.5,1.5,0,0,0,0,3Z"/><path class="cls-2" d="M275,459a1.5,1.5,0,0,0,0-3,1.5,1.5,0,0,0,0,3Z"/><path class="cls-2" d="M377,397.47a1.5,1.5,0,0,0,0-3,1.5,1.5,0,0,0,0,3Z"/><path class="cls-2" d="M513.46,469.47a1.5,1.5,0,0,0,0-3,1.5,1.5,0,0,0,0,3Z"/><path class="cls-2" d="M501.46,537a1.5,1.5,0,0,0,0-3,1.5,1.5,0,0,0,0,3Z"/><path class="cls-2" d="M405.47,516a1.5,1.5,0,0,0,0-3,1.5,1.5,0,0,0,0,3Z"/><path class="cls-2" d="M332,585a1.5,1.5,0,0,0,0-3,1.5,1.5,0,0,0,0,3Z"/><path class="cls-2" d="M95,501a1.5,1.5,0,0,0,0-3,1.5,1.5,0,0,0,0,3Z"/><path class="cls-2" d="M69.48,163.49a1.5,1.5,0,0,0,0-3,1.5,1.5,0,0,0,0,3Z"/><path class="cls-2" d="M353,130.49a1.5,1.5,0,0,0,0-3,1.5,1.5,0,0,0,0,3Z"/><path class="cls-2" d="M549.46,52.49a1.5,1.5,0,0,0,0-3,1.5,1.5,0,0,0,0,3Z"/><path class="cls-2" d="M537.46,202.48a1.5,1.5,0,0,0,0-3,1.5,1.5,0,0,0,0,3Z"/><path class="cls-2" d="M408.47,220.48a1.5,1.5,0,0,0,0-3,1.5,1.5,0,0,0,0,3Z"/><path class="cls-2" d="M464,312a1.5,1.5,0,0,0,0-3,1.5,1.5,0,0,0,0,3Z"/><path class="cls-2" d="M189.48,390a1.5,1.5,0,0,0,0-3,1.5,1.5,0,0,0,0,3Z"/><path class="cls-2" d="M209,457.47a1.5,1.5,0,0,0,0-3,1.5,1.5,0,0,0,0,3Z"/><path class="cls-2" d="M240.48,526.47a1.5,1.5,0,0,0,0-3,1.5,1.5,0,0,0,0,3Z"/><path class="cls-3" d="M146,438a1.5,1.5,0,0,0,0-3,1.5,1.5,0,0,0,0,3Z"/><path class="cls-3" d="M242,267a1.5,1.5,0,0,0,0-3,1.5,1.5,0,0,0,0,3Z"/><path class="cls-3" d="M540.46,306a1.5,1.5,0,0,0,0-3,1.5,1.5,0,0,0,0,3Z"/><path class="cls-3" d="M561.46,102a1.5,1.5,0,0,0,0-3,1.5,1.5,0,0,0,0,3Z"/><path class="cls-3" d="M47,36a1.5,1.5,0,0,0,0-3,1.5,1.5,0,0,0,0,3Z"/><path class="cls-3" d="M15.49,99a1.5,1.5,0,0,0,0-3,1.5,1.5,0,0,0,0,3Z"/><path class="cls-3" d="M116,4.49a1.5,1.5,0,0,0,0-3,1.5,1.5,0,0,0,0,3Z"/><path class="cls-3" d="M230,94.49a1.5,1.5,0,0,0,0-3,1.5,1.5,0,0,0,0,3Z"/><path class="cls-3" d="M159.48,132a1.5,1.5,0,0,0,0-3,1.5,1.5,0,0,0,0,3Z"/><path class="cls-4" d="M396.47,271.48a1.5,1.5,0,0,0,0-3,1.5,1.5,0,0,0,0,3Z"/><path class="cls-4" d="M132.54,292a1.77,1.77,0,0,0-.15,2.32,2.1,2.1,0,0,0,1.75.83,2,2,0,0,0,1.81-1.49,3.5,3.5,0,0,0-.35-2.31,1.5,1.5,0,0,0-1.88-.62,1.55,1.55,0,0,0-.87,1.77,2.44,2.44,0,0,0,3,1.83,1.5,1.5,0,1,0-.8-2.9.62.62,0,0,1,.51.11c.1.08.22.44.18.17L133,292.87c-.06-.15,0,0,0,.08.06.22,0,.09,0,0s.19-.36.51-.41c.2-.34.44-.44.73-.29a.93.93,0,0,1,.7,1.31l-.39.66.06-.07a1.54,1.54,0,0,0,0-2.12,1.52,1.52,0,0,0-2.12,0Z"/><path class="cls-4" d="M329.51,49.54l1.36-.09a1.56,1.56,0,0,0,1.5-1.5A2.27,2.27,0,0,0,330,45.59a1.5,1.5,0,0,0,0,3h.13a.57.57,0,0,1-.54-.23.35.35,0,0,1-.18-.33c0-.24-.06-.27-.06-.07l1.5-1.5-1.36.09a1.5,1.5,0,0,0,0,3Z"/><path class="cls-4" d="M459.5,416a1.5,1.5,0,0,0,0-3,1.5,1.5,0,0,0,0,3Z"/><path class="cls-4" d="M361.18,193.78l1,1.31a1.49,1.49,0,0,0,1.29.74,2.56,2.56,0,0,0,2.28-1.8,2.52,2.52,0,0,0-.63-2.61,1.5,1.5,0,1,0-2.12,2.12c.12.11.11.09,0-.07a.57.57,0,0,1-.09-.36c0,.3.1-.29,0,0s.16-.24,0,0a.69.69,0,0,1,.6-.33l1.3.75-1-1.32a1.55,1.55,0,0,0-2.06-.54,1.51,1.51,0,0,0-.53,2.06Z"/><path class="cls-5" d="M521.93,69.07c2.34,2.34,6.23-1.53,3.92-3.9a1.5,1.5,0,0,0-2.13,2.12c.12.12.1.1-.05-.08s-.1-.26-.06-.11c0-.25,0-.31,0-.19s0,.06,0-.18c-.05.28.15-.31,0,0s.16-.16,0,0,.24-.16,0,0a.7.7,0,0,1-.17.09c.22-.08.25-.1.1,0l.23,0c-.17,0-.12,0,.14,0-.15,0-.11,0,.11.06s.21.17.09,0a1.53,1.53,0,0,0-2.12,0,1.51,1.51,0,0,0,0,2.12Z"/><path class="cls-5" d="M523,68.5a1.5,1.5,0,0,0,0-3,1.5,1.5,0,0,0,0,3Z"/><path class="cls-5" d="M523.5,68a1.5,1.5,0,0,0,0-3,1.5,1.5,0,0,0,0,3Z"/><path class="cls-5" d="M83,160.5a1.5,1.5,0,0,0,0-3,1.5,1.5,0,0,0,0,3Z"/><path class="cls-5" d="M65,70.5a1.5,1.5,0,0,0,0-3,1.5,1.5,0,0,0,0,3Z"/><path class="cls-5" d="M239,133.5a1.5,1.5,0,0,0,0-3,1.5,1.5,0,0,0,0,3Z"/><path class="cls-5" d="M574,192.5a1.5,1.5,0,0,0,0-3,1.5,1.5,0,0,0,0,3Z"/><path class="cls-5" d="M537,20.5a1.5,1.5,0,0,0,0-3,1.5,1.5,0,0,0,0,3Z"/></svg>