<svg id="Layer_1" data-name="Layer 1" xmlns="http://www.w3.org/2000/svg" xmlns:xlink="http://www.w3.org/1999/xlink" viewBox="0 0 751 1335"><defs><style>.cls-1{stroke:#000;stroke-miterlimit:10;fill:url(#linear-gradient);}.cls-2{fill:#1d4d5e;}.cls-3{fill:#3f7c8c;}.cls-4{fill:#6fadbc;}.cls-5{fill:#9edbe5;}.cls-6{fill:#3f97a0;}.cls-7{fill:#15494c;}.cls-8{fill:#0b3030;}.cls-9{fill:#2c6275;}.cls-10{fill:#153a44;}.cls-11{fill:#0d2930;}.cls-12{fill:#62aebf;}</style><linearGradient id="linear-gradient" x1="379.54" y1="1410.81" x2="375.46" y2="660.82" gradientUnits="userSpaceOnUse"><stop offset="0" stop-color="#fff"/><stop offset="0.05" stop-color="#e5e7e9"/><stop offset="0.15" stop-color="#b1babd"/><stop offset="0.25" stop-color="#849197"/><stop offset="0.36" stop-color="#5e6f77"/><stop offset="0.47" stop-color="#3f535c"/><stop offset="0.59" stop-color="#273d48"/><stop offset="0.71" stop-color="#152e39"/><stop offset="0.84" stop-color="#0b2531"/><stop offset="1" stop-color="#08222e"/></linearGradient></defs><title>mobile-bkgrd</title><rect class="cls-1" x="0.5" y="0.5" width="750" height="1334"/><path class="cls-2" d="M322.75,940.47a1.5,1.5,0,0,0,0-3,1.5,1.5,0,0,0,0,3Z" transform="translate(1 0)"/><path class="cls-2" d="M386.69,874.89a1.5,1.5,0,0,0,0-3,1.5,1.5,0,0,0,0,3Z" transform="translate(1 0)"/><path class="cls-2" d="M488.33,888a1.5,1.5,0,0,0,0-3,1.5,1.5,0,0,0,0,3Z" transform="translate(1 0)"/><path class="cls-2" d="M488.33,889.65a1.5,1.5,0,0,0,0-3,1.5,1.5,0,0,0,0,3Z" transform="translate(1 0)"/><path class="cls-2" d="M508,853.58a1.5,1.5,0,0,0,0-3,1.5,1.5,0,0,0,0,3Z" transform="translate(1 0)"/><path class="cls-2" d="M590,814.24a1.5,1.5,0,0,0,0-3,1.5,1.5,0,0,0,0,3Z" transform="translate(1 0)"/><path class="cls-2" d="M609.64,748.66a1.5,1.5,0,0,0,0-3,1.5,1.5,0,0,0,0,3Z" transform="translate(1 0)"/><path class="cls-2" d="M696.52,756.86a1.5,1.5,0,0,0,0-3,1.5,1.5,0,0,0,0,3Z" transform="translate(1 0)"/><path class="cls-2" d="M686.69,691.29a1.5,1.5,0,0,0,0-3,1.5,1.5,0,0,0,0,3Z" transform="translate(1 0)"/><path class="cls-2" d="M286.69,584.73a1.5,1.5,0,0,0,0-3,1.5,1.5,0,0,0,0,3Z" transform="translate(1 0)"/><path class="cls-2" d="M396.52,592.93a1.5,1.5,0,0,0,0-3,1.5,1.5,0,0,0,0,3Z" transform="translate(1 0)"/><path class="cls-2" d="M386.69,535.55a1.5,1.5,0,0,0,0-3,1.5,1.5,0,0,0,0,3Z" transform="translate(1 0)"/><path class="cls-2" d="M381.77,361.78a1.5,1.5,0,0,0,0-3,1.5,1.5,0,0,0,0,3Z" transform="translate(1 0)"/><path class="cls-2" d="M473.57,397.84a1.5,1.5,0,0,0,0-3,1.5,1.5,0,0,0,0,3Z" transform="translate(1 0)"/><path class="cls-2" d="M524.39,445.39a1.5,1.5,0,0,0,0-3,1.5,1.5,0,0,0,0,3Z" transform="translate(1 0)"/><path class="cls-2" d="M553.9,378.17a1.5,1.5,0,0,0,0-3,1.5,1.5,0,0,0,0,3Z" transform="translate(1 0)"/><path class="cls-2" d="M532.59,368.34a1.5,1.5,0,0,0,0-3,1.5,1.5,0,0,0,0,3Z" transform="translate(1 0)"/><path class="cls-2" d="M532.59,338.83a1.5,1.5,0,0,0,0-3,1.5,1.5,0,0,0,0,3Z" transform="translate(1 0)"/><path class="cls-2" d="M562.1,256.86a1.5,1.5,0,0,0,0-3,1.5,1.5,0,0,0,0,3Z" transform="translate(1 0)"/><path class="cls-2" d="M385.05,722.43a1.5,1.5,0,0,0,0-3,1.5,1.5,0,0,0,0,3Z" transform="translate(1 0)"/><path class="cls-2" d="M145.7,224.07a1.5,1.5,0,0,0,0-3,1.5,1.5,0,0,0,0,3Z" transform="translate(1 0)"/><path class="cls-2" d="M57.18,99.48a1.5,1.5,0,0,0,0-3,1.5,1.5,0,0,0,0,3Z" transform="translate(1 0)"/><path class="cls-2" d="M258.82,45.39a1.5,1.5,0,0,0,0-3,1.5,1.5,0,0,0,0,3Z" transform="translate(1 0)"/><path class="cls-2" d="M301.44,30.63a1.5,1.5,0,0,0,0-3,1.5,1.5,0,0,0,0,3Z" transform="translate(1 0)"/><path class="cls-2" d="M498.16,125.71a1.5,1.5,0,0,0,0-3,1.5,1.5,0,0,0,0,3Z" transform="translate(1 0)"/><path class="cls-2" d="M486.69,306a1.5,1.5,0,0,0,0-3,1.5,1.5,0,0,0,0,3Z" transform="translate(1 0)"/><path class="cls-2" d="M709.64,35.55a1.5,1.5,0,0,0,0-3,1.5,1.5,0,0,0,0,3Z" transform="translate(1 0)"/><path class="cls-2" d="M673.57,27.35a1.5,1.5,0,0,0,0-3,1.5,1.5,0,0,0,0,3Z" transform="translate(1 0)"/><path class="cls-2" d="M221.11,666.7a1.5,1.5,0,0,0,0-3,1.5,1.5,0,0,0,0,3Z" transform="translate(1 0)"/><path class="cls-2" d="M114.56,692.93a1.5,1.5,0,0,0,0-3,1.5,1.5,0,0,0,0,3Z" transform="translate(1 0)"/><path class="cls-2" d="M75.21,535.55a1.5,1.5,0,0,0,0-3,1.5,1.5,0,0,0,0,3Z" transform="translate(1 0)"/><path class="cls-2" d="M45.7,891.29a1.5,1.5,0,0,0,0-3,1.5,1.5,0,0,0,0,3Z" transform="translate(1 0)"/><path class="cls-2" d="M345.7,520.8a1.5,1.5,0,0,0,0-3,1.5,1.5,0,0,0,0,3Z" transform="translate(1 0)"/><path class="cls-2" d="M516.2,545.39a1.5,1.5,0,0,0,0-3,1.5,1.5,0,0,0,0,3Z" transform="translate(1 0)"/><path class="cls-2" d="M463.74,440.47a1.5,1.5,0,0,0,0-3,1.5,1.5,0,0,0,0,3Z" transform="translate(1 0)"/><path class="cls-2" d="M634.23,348.66a1.5,1.5,0,0,0,0-3,1.5,1.5,0,0,0,0,3Z" transform="translate(1 0)"/><path class="cls-2" d="M634.23,151.94a1.5,1.5,0,0,0,0-3,1.5,1.5,0,0,0,0,3Z" transform="translate(1 0)"/><path class="cls-3" d="M371.93,619.16a1.5,1.5,0,0,0,0-3,1.5,1.5,0,0,0,0,3Z" transform="translate(1 0)"/><path class="cls-3" d="M522.75,625.71a1.5,1.5,0,0,0,0-3,1.5,1.5,0,0,0,0,3Z" transform="translate(1 0)"/><path class="cls-3" d="M631,745.39a1.5,1.5,0,0,0,0-3,1.5,1.5,0,0,0,0,3Z" transform="translate(1 0)"/><path class="cls-3" d="M668.66,302.76a1.5,1.5,0,0,0,0-3,1.5,1.5,0,0,0,0,3Z" transform="translate(1 0)"/><path class="cls-3" d="M104.72,66.7a1.5,1.5,0,0,0,0-3,1.5,1.5,0,0,0,0,3Z" transform="translate(1 0)"/><path class="cls-3" d="M27.67,48.66a1.5,1.5,0,0,0,0-3,1.5,1.5,0,0,0,0,3Z" transform="translate(1 0)"/><path class="cls-3" d="M68.66,511a1.5,1.5,0,0,0,0-3,1.5,1.5,0,0,0,0,3Z" transform="translate(1 0)"/><path class="cls-3" d="M40.79,712.6a1.5,1.5,0,0,0,0-3,1.5,1.5,0,0,0,0,3Z" transform="translate(1 0)"/><path class="cls-3" d="M358.82,624.07a1.5,1.5,0,0,0,0-3,1.5,1.5,0,0,0,0,3Z" transform="translate(1 0)"/><path class="cls-3" d="M481.77,358.5a1.5,1.5,0,0,0,0-3,1.5,1.5,0,0,0,0,3Z" transform="translate(1 0)"/><path class="cls-3" d="M388.33,696.2a1.5,1.5,0,0,0,0-3,1.5,1.5,0,0,0,0,3Z" transform="translate(1 0)"/><path class="cls-3" d="M453.9,286.37a1.5,1.5,0,0,0,0-3,1.5,1.5,0,0,0,0,3Z" transform="translate(1 0)"/><path class="cls-3" d="M252.26,817.52a1.5,1.5,0,0,0,0-3,1.5,1.5,0,0,0,0,3Z" transform="translate(1 0)"/><path class="cls-3" d="M647.34,912.6a1.5,1.5,0,0,0,0-3,1.5,1.5,0,0,0,0,3Z" transform="translate(1 0)"/><path class="cls-3" d="M570.3,206a1.5,1.5,0,0,0,0-3,1.5,1.5,0,0,0,0,3Z" transform="translate(1 0)"/><path class="cls-3" d="M576.85,24.07a1.5,1.5,0,0,0,0-3,1.5,1.5,0,0,0,0,3Z" transform="translate(1 0)"/><path class="cls-4" d="M273.06,411.06l1-1a1.53,1.53,0,0,0,0-2.12,1.51,1.51,0,0,0-2.12,0l-1,1a1.53,1.53,0,0,0,0,2.12,1.51,1.51,0,0,0,2.12,0Z" transform="translate(1 0)"/><path class="cls-4" d="M271.67,410.83a1.5,1.5,0,0,0,0-3,1.5,1.5,0,0,0,0,3Z" transform="translate(1 0)"/><path class="cls-4" d="M273,410.17a1.5,1.5,0,0,0,0-3,1.5,1.5,0,0,0,0,3Z" transform="translate(1 0)"/><path class="cls-4" d="M273,410.83a1.5,1.5,0,0,0,0-3,1.5,1.5,0,0,0,0,3Z" transform="translate(1 0)"/><path class="cls-4" d="M272.33,410.5a1.5,1.5,0,0,0,0-3,1.5,1.5,0,0,0,0,3Z" transform="translate(1 0)"/><path class="cls-4" d="M272.67,411.17a1.5,1.5,0,0,0,0-3,1.5,1.5,0,0,0,0,3Z" transform="translate(1 0)"/><path class="cls-4" d="M382,508.5a1.5,1.5,0,0,0,0-3,1.5,1.5,0,0,0,0,3Z" transform="translate(1 0)"/><path class="cls-4" d="M384,506l-2-.06,1.45,1.11c-.07-.25-.08,0,0-.28,0,.21.1-.28.1-.27l-2.21.9a1.23,1.23,0,0,1,.25.14c-.17-.12,0,0,.07.1s-.08-.16,0,0-.09-.33.05.1a1.53,1.53,0,0,0,1.44,1.1,1.51,1.51,0,0,0,1.45-1.1,3.75,3.75,0,0,0-.33-2.42c-.66-1.38-2.82-.67-2.8.75l0,1.39a1.5,1.5,0,0,0,3,0l0-1.39-2.79.76c-.09-.18,0,.21,0,.06s0,.29,0,.05h2.89a3.68,3.68,0,0,0-1.75-2.17,1.53,1.53,0,0,0-2.21.89,3.55,3.55,0,0,0-.06,2.14,1.53,1.53,0,0,0,1.45,1.1l2,.06a1.51,1.51,0,0,0,1.5-1.5A1.53,1.53,0,0,0,384,506Z" transform="translate(1 0)"/><path class="cls-4" d="M384,507.83a1.5,1.5,0,0,0,0-3,1.5,1.5,0,0,0,0,3Z" transform="translate(1 0)"/><path class="cls-4" d="M383.33,507.5a1.5,1.5,0,0,0,0-3,1.5,1.5,0,0,0,0,3Z" transform="translate(1 0)"/><path class="cls-4" d="M371,370.5a1.5,1.5,0,0,0,0-3,1.5,1.5,0,0,0,0,3Z" transform="translate(1 0)"/><path class="cls-4" d="M371,371.17a1.5,1.5,0,0,0,0-3,1.5,1.5,0,0,0,0,3Z" transform="translate(1 0)"/><path class="cls-4" d="M372.41,370.75l.35-.32a1.51,1.51,0,0,0,0-2.12,1.53,1.53,0,0,0-2.12,0l-.35.32a1.5,1.5,0,0,0,2.12,2.12Z" transform="translate(1 0)"/><path class="cls-4" d="M371.33,370.5a1.5,1.5,0,0,0,0-3,1.5,1.5,0,0,0,0,3Z" transform="translate(1 0)"/><path class="cls-5" d="M371.33,370.17a1.5,1.5,0,0,0,0-3,1.5,1.5,0,0,0,0,3Z" transform="translate(1 0)"/><path class="cls-5" d="M370.67,370.83a1.5,1.5,0,0,0,0-3,1.5,1.5,0,0,0,0,3Z" transform="translate(1 0)"/><path class="cls-5" d="M371.33,371.5a1.5,1.5,0,0,0,0-3,1.5,1.5,0,0,0,0,3Z" transform="translate(1 0)"/><path class="cls-5" d="M371.67,370.83a1.5,1.5,0,0,0,0-3,1.5,1.5,0,0,0,0,3Z" transform="translate(1 0)"/><path class="cls-5" d="M372.33,371.17a1.5,1.5,0,0,0,0-3,1.5,1.5,0,0,0,0,3Z" transform="translate(1 0)"/><path class="cls-5" d="M372.67,370.17a1.5,1.5,0,0,0,0-3,1.5,1.5,0,0,0,0,3Z" transform="translate(1 0)"/><path class="cls-5" d="M564,513.5a1.5,1.5,0,0,0,0-3,1.5,1.5,0,0,0,0,3Z" transform="translate(1 0)"/><path class="cls-5" d="M673.06,151.06l1.24-1.24a1.5,1.5,0,0,0-2.12-2.12l-1.24,1.24a1.5,1.5,0,0,0,2.12,2.12l1.24-1.24a1.5,1.5,0,0,0-2.12-2.12l-1.24,1.24a1.5,1.5,0,0,0,2.12,2.12Z" transform="translate(1 0)"/><path class="cls-5" d="M102,237.5a1.5,1.5,0,0,0,0-3,1.5,1.5,0,0,0,0,3Z" transform="translate(1 0)"/><path class="cls-5" d="M104.35,236.35l.63-.69a1.55,1.55,0,0,0,0-2.13,1.52,1.52,0,0,0-2.12,0l-.63.7a1.54,1.54,0,0,0,0,2.12,1.5,1.5,0,0,0,2.12,0Z" transform="translate(1 0)"/><path class="cls-5" d="M102,235.83a1.5,1.5,0,0,0,0-3,1.5,1.5,0,0,0,0,3Z" transform="translate(1 0)"/><path class="cls-5" d="M102.67,235.83a1.5,1.5,0,0,0,0-3,1.5,1.5,0,0,0,0,3Z" transform="translate(1 0)"/><path class="cls-5" d="M101.67,236.83a1.5,1.5,0,0,0,0-3,1.5,1.5,0,0,0,0,3Z" transform="translate(1 0)"/><path class="cls-5" d="M103.33,237.5a1.5,1.5,0,0,0,0-3,1.5,1.5,0,0,0,0,3Z" transform="translate(1 0)"/><path class="cls-5" d="M103.33,235.5a1.5,1.5,0,0,0,0-3,1.5,1.5,0,0,0,0,3Z" transform="translate(1 0)"/><path class="cls-5" d="M103.67,236.83a1.5,1.5,0,0,0,0-3,1.5,1.5,0,0,0,0,3Z" transform="translate(1 0)"/><path class="cls-5" d="M297.68,146.93a1.72,1.72,0,0,0-.58,3.29,1.8,1.8,0,0,0,2.12-.63,1.94,1.94,0,0,0,.19-2.26,2.37,2.37,0,0,0-1.57-1.1,1.83,1.83,0,0,0-2.06,1,2,2,0,0,0,.33,2.47,2.27,2.27,0,0,0,2.16.35l-1.69-2.2a.89.89,0,0,1,.71-.4c-.29,0,.3.09,0,0,.21.1.24.11.1,0a.78.78,0,0,1,.28.29.89.89,0,0,1,0,.75.76.76,0,0,1-.4.45c.13-.07.09-.06-.13,0s-.3,0-.13,0l-.18,0c.32.07-.14-.09-.22-.18.11.11.08.08-.08-.11-.1-.55-.14-.69-.14-.42a1.51,1.51,0,0,0,1.5,1.5,1.53,1.53,0,0,0,1.5-1.5c0-2.46-3.87-3.17-4.56-.73s3,4,4.28,1.78c.61-1-.43-2.67-1.7-2.2-.36.13.21,0,.31.06l.74,1.3c0-.29,0,.09-.15.2l-1.06.44a.67.67,0,0,1-.54-.44v-.8a.78.78,0,0,1,.58-.53h.8l.22.1.54.54a2.52,2.52,0,0,1,.13.47l-.21.76,0-.05-.54.53.05,0-.76.21h.07a1.5,1.5,0,0,0,0-3Z" transform="translate(1 0)"/><path class="cls-5" d="M172.6,790.08a1.5,1.5,0,0,0,0-3,1.5,1.5,0,0,0,0,3Z" transform="translate(1 0)"/><path class="cls-5" d="M196.6,841.08a1.5,1.5,0,0,0,0-3,1.5,1.5,0,0,0,0,3Z" transform="translate(1 0)"/><path class="cls-5" d="M463.59,856.08a1.5,1.5,0,0,0,0-3,1.5,1.5,0,0,0,0,3Z" transform="translate(1 0)"/><path class="cls-5" d="M679.58,772.09a1.5,1.5,0,0,0,0-3,1.5,1.5,0,0,0,0,3Z" transform="translate(1 0)"/><path class="cls-5" d="M421.59,412.1a1.5,1.5,0,0,0,0-3,1.5,1.5,0,0,0,0,3Z" transform="translate(1 0)"/><path class="cls-5" d="M472.59,406.1a1.5,1.5,0,0,0,0-3,1.5,1.5,0,0,0,0,3Z" transform="translate(1 0)"/><path class="cls-5" d="M478.59,331.11a1.5,1.5,0,0,0,0-3,1.5,1.5,0,0,0,0,3Z" transform="translate(1 0)"/><path class="cls-5" d="M561.08,293.61a1.5,1.5,0,0,0,0-3,1.5,1.5,0,0,0,0,3Z" transform="translate(1 0)"/><path class="cls-5" d="M544.58,245.61a1.5,1.5,0,0,0,0-3,1.5,1.5,0,0,0,0,3Z" transform="translate(1 0)"/><path class="cls-5" d="M613.58,188.61a1.5,1.5,0,0,0,0-3,1.5,1.5,0,0,0,0,3Z" transform="translate(1 0)"/><path class="cls-5" d="M690.07,40.12a1.5,1.5,0,0,0,0-3,1.5,1.5,0,0,0,0,3Z" transform="translate(1 0)"/><path class="cls-5" d="M622.58,196.11a1.5,1.5,0,0,0,0-3,1.5,1.5,0,0,0,0,3Z" transform="translate(1 0)"/><path class="cls-6" d="M184.6,524.6a1.5,1.5,0,0,0,0-3,1.5,1.5,0,0,0,0,3Z" transform="translate(1 0)"/><path class="cls-6" d="M328.59,511.1a1.5,1.5,0,0,0,0-3,1.5,1.5,0,0,0,0,3Z" transform="translate(1 0)"/><path class="cls-6" d="M429.09,406.1a1.5,1.5,0,0,0,0-3,1.5,1.5,0,0,0,0,3Z" transform="translate(1 0)"/><path class="cls-6" d="M447.09,425.6a1.5,1.5,0,0,0,0-3,1.5,1.5,0,0,0,0,3Z" transform="translate(1 0)"/><path class="cls-6" d="M435.09,253.11a1.5,1.5,0,0,0,0-3,1.5,1.5,0,0,0,0,3Z" transform="translate(1 0)"/><path class="cls-6" d="M508.58,284.61a1.5,1.5,0,0,0,0-3,1.5,1.5,0,0,0,0,3Z" transform="translate(1 0)"/><path class="cls-6" d="M507.08,250.11a1.5,1.5,0,0,0,0-3,1.5,1.5,0,0,0,0,3Z" transform="translate(1 0)"/><path class="cls-6" d="M534.08,271.11a1.5,1.5,0,0,0,0-3,1.5,1.5,0,0,0,0,3Z" transform="translate(1 0)"/><path class="cls-6" d="M618.08,256.11a1.5,1.5,0,0,0,0-3,1.5,1.5,0,0,0,0,3Z" transform="translate(1 0)"/><path class="cls-6" d="M556.58,139.12a1.5,1.5,0,0,0,0-3,1.5,1.5,0,0,0,0,3Z" transform="translate(1 0)"/><path class="cls-6" d="M108.1,119.62a1.5,1.5,0,0,0,0-3,1.5,1.5,0,0,0,0,3Z" transform="translate(1 0)"/><path class="cls-6" d="M70.61,47.62a1.5,1.5,0,0,0,0-3,1.5,1.5,0,0,0,0,3Z" transform="translate(1 0)"/><path class="cls-6" d="M114.1,620.59a1.5,1.5,0,0,0,0-3,1.5,1.5,0,0,0,0,3Z" transform="translate(1 0)"/><path class="cls-6" d="M532.58,397.1a1.5,1.5,0,0,0,0-3,1.5,1.5,0,0,0,0,3Z" transform="translate(1 0)"/><path class="cls-7" d="M475.59,469.1a1.5,1.5,0,0,0,0-3,1.5,1.5,0,0,0,0,3Z" transform="translate(1 0)"/><path class="cls-7" d="M463.59,463.1a1.5,1.5,0,0,0,0-3,1.5,1.5,0,0,0,0,3Z" transform="translate(1 0)"/><path class="cls-7" d="M481.59,451.1a1.5,1.5,0,0,0,0-3,1.5,1.5,0,0,0,0,3Z" transform="translate(1 0)"/><path class="cls-7" d="M490.58,440.6a1.5,1.5,0,0,0,0-3,1.5,1.5,0,0,0,0,3Z" transform="translate(1 0)"/><path class="cls-7" d="M510.08,379.1a1.5,1.5,0,0,0,0-3,1.5,1.5,0,0,0,0,3Z" transform="translate(1 0)"/><path class="cls-7" d="M477.09,368.61a1.5,1.5,0,0,0,0-3,1.5,1.5,0,0,0,0,3Z" transform="translate(1 0)"/><path class="cls-7" d="M481.59,368.61a1.5,1.5,0,0,0,0-3,1.5,1.5,0,0,0,0,3Z" transform="translate(1 0)"/><path class="cls-7" d="M484.58,368.61a1.5,1.5,0,0,0,0-3,1.5,1.5,0,0,0,0,3Z" transform="translate(1 0)"/><path class="cls-7" d="M492.08,329.61a1.5,1.5,0,0,0,0-3,1.5,1.5,0,0,0,0,3Z" transform="translate(1 0)"/><path class="cls-7" d="M526.58,272.61a1.5,1.5,0,0,0,0-3,1.5,1.5,0,0,0,0,3Z" transform="translate(1 0)"/><path class="cls-7" d="M492.08,286.11a1.5,1.5,0,0,0,0-3,1.5,1.5,0,0,0,0,3Z" transform="translate(1 0)"/><path class="cls-7" d="M471.09,301.11a1.5,1.5,0,0,0,0-3,1.5,1.5,0,0,0,0,3Z" transform="translate(1 0)"/><path class="cls-7" d="M576.08,214.11a1.5,1.5,0,0,0,0-3,1.5,1.5,0,0,0,0,3Z" transform="translate(1 0)"/><path class="cls-7" d="M594.08,281.61a1.5,1.5,0,0,0,0-3,1.5,1.5,0,0,0,0,3Z" transform="translate(1 0)"/><path class="cls-7" d="M535.58,290.61a1.5,1.5,0,0,0,0-3,1.5,1.5,0,0,0,0,3Z" transform="translate(1 0)"/><path class="cls-7" d="M460.59,314.61a1.5,1.5,0,0,0,0-3,1.5,1.5,0,0,0,0,3Z" transform="translate(1 0)"/><path class="cls-7" d="M390.09,460.1a1.5,1.5,0,0,0,0-3,1.5,1.5,0,0,0,0,3Z" transform="translate(1 0)"/><path class="cls-7" d="M355.59,505.1a1.5,1.5,0,0,0,0-3,1.5,1.5,0,0,0,0,3Z" transform="translate(1 0)"/><path class="cls-7" d="M352.59,536.6a1.5,1.5,0,0,0,0-3,1.5,1.5,0,0,0,0,3Z" transform="translate(1 0)"/><path class="cls-7" d="M309.09,601.09a1.5,1.5,0,0,0,0-3,1.5,1.5,0,0,0,0,3Z" transform="translate(1 0)"/><path class="cls-7" d="M255.1,634.09a1.5,1.5,0,0,0,0-3,1.5,1.5,0,0,0,0,3Z" transform="translate(1 0)"/><path class="cls-7" d="M253.6,658.09a1.5,1.5,0,0,0,0-3,1.5,1.5,0,0,0,0,3Z" transform="translate(1 0)"/><path class="cls-7" d="M279.1,617.59a1.5,1.5,0,0,0,0-3,1.5,1.5,0,0,0,0,3Z" transform="translate(1 0)"/><path class="cls-7" d="M270.1,608.59a1.5,1.5,0,0,0,0-3,1.5,1.5,0,0,0,0,3Z" transform="translate(1 0)"/><path class="cls-7" d="M337.59,559.1a1.5,1.5,0,0,0,0-3,1.5,1.5,0,0,0,0,3Z" transform="translate(1 0)"/><path class="cls-7" d="M390.09,559.1a1.5,1.5,0,0,0,0-3,1.5,1.5,0,0,0,0,3Z" transform="translate(1 0)"/><path class="cls-7" d="M432.09,464.6a1.5,1.5,0,0,0,0-3,1.5,1.5,0,0,0,0,3Z" transform="translate(1 0)"/><path class="cls-7" d="M579.08,353.61a1.5,1.5,0,0,0,0-3,1.5,1.5,0,0,0,0,3Z" transform="translate(1 0)"/><path class="cls-7" d="M595.58,281.61a1.5,1.5,0,0,0,0-3,1.5,1.5,0,0,0,0,3Z" transform="translate(1 0)"/><path class="cls-7" d="M621.08,221.61a1.5,1.5,0,0,0,0-3,1.5,1.5,0,0,0,0,3Z" transform="translate(1 0)"/><path class="cls-7" d="M645.08,221.61a1.5,1.5,0,0,0,0-3,1.5,1.5,0,0,0,0,3Z" transform="translate(1 0)"/><path class="cls-7" d="M655.58,145.12a1.5,1.5,0,0,0,0-3,1.5,1.5,0,0,0,0,3Z" transform="translate(1 0)"/><path class="cls-7" d="M669.08,91.12a1.5,1.5,0,0,0,0-3,1.5,1.5,0,0,0,0,3Z" transform="translate(1 0)"/><path class="cls-8" d="M424.59,457.1a1.5,1.5,0,0,0,0-3,1.5,1.5,0,0,0,0,3Z" transform="translate(1 0)"/><path class="cls-8" d="M369.09,487.1a1.5,1.5,0,0,0,0-3,1.5,1.5,0,0,0,0,3Z" transform="translate(1 0)"/><path class="cls-8" d="M355.59,487.1a1.5,1.5,0,0,0,0-3,1.5,1.5,0,0,0,0,3Z" transform="translate(1 0)"/><path class="cls-8" d="M330.09,484.1a1.5,1.5,0,0,0,0-3,1.5,1.5,0,0,0,0,3Z" transform="translate(1 0)"/><path class="cls-8" d="M342.09,524.6a1.5,1.5,0,0,0,0-3,1.5,1.5,0,0,0,0,3Z" transform="translate(1 0)"/><path class="cls-8" d="M333.09,569.6a1.5,1.5,0,0,0,0-3,1.5,1.5,0,0,0,0,3Z" transform="translate(1 0)"/><path class="cls-8" d="M295.59,562.1a1.5,1.5,0,0,0,0-3,1.5,1.5,0,0,0,0,3Z" transform="translate(1 0)"/><path class="cls-8" d="M400.59,373.11a1.5,1.5,0,0,0,0-3,1.5,1.5,0,0,0,0,3Z" transform="translate(1 0)"/><path class="cls-8" d="M432.09,373.11a1.5,1.5,0,0,0,0-3,1.5,1.5,0,0,0,0,3Z" transform="translate(1 0)"/><path class="cls-8" d="M432.09,328.11a1.5,1.5,0,0,0,0-3,1.5,1.5,0,0,0,0,3Z" transform="translate(1 0)"/><path class="cls-8" d="M444.09,338.61a1.5,1.5,0,0,0,0-3,1.5,1.5,0,0,0,0,3Z" transform="translate(1 0)"/><path class="cls-8" d="M444.09,379.1a1.5,1.5,0,0,0,0-3,1.5,1.5,0,0,0,0,3Z" transform="translate(1 0)"/><path class="cls-8" d="M483.09,208.11a1.5,1.5,0,0,0,0-3,1.5,1.5,0,0,0,0,3Z" transform="translate(1 0)"/><path class="cls-8" d="M490.58,226.11a1.5,1.5,0,0,0,0-3,1.5,1.5,0,0,0,0,3Z" transform="translate(1 0)"/><path class="cls-8" d="M490.58,262.11a1.5,1.5,0,0,0,0-3,1.5,1.5,0,0,0,0,3Z" transform="translate(1 0)"/><path class="cls-8" d="M525.08,265.11a1.5,1.5,0,0,0,0-3,1.5,1.5,0,0,0,0,3Z" transform="translate(1 0)"/><path class="cls-8" d="M525.08,289.11a1.5,1.5,0,0,0,0-3,1.5,1.5,0,0,0,0,3Z" transform="translate(1 0)"/><path class="cls-8" d="M525.08,326.61a1.5,1.5,0,0,0,0-3,1.5,1.5,0,0,0,0,3Z" transform="translate(1 0)"/><path class="cls-8" d="M511.58,313.11a1.5,1.5,0,0,0,0-3,1.5,1.5,0,0,0,0,3Z" transform="translate(1 0)"/><path class="cls-8" d="M498.08,313.11a1.5,1.5,0,0,0,0-3,1.5,1.5,0,0,0,0,3Z" transform="translate(1 0)"/><path class="cls-8" d="M489.08,313.11a1.5,1.5,0,0,0,0-3,1.5,1.5,0,0,0,0,3Z" transform="translate(1 0)"/><path class="cls-8" d="M544.58,251.61a1.5,1.5,0,0,0,0-3,1.5,1.5,0,0,0,0,3Z" transform="translate(1 0)"/><path class="cls-8" d="M567.08,253.11a1.5,1.5,0,0,0,0-3,1.5,1.5,0,0,0,0,3Z" transform="translate(1 0)"/><path class="cls-8" d="M574.58,253.11a1.5,1.5,0,0,0,0-3,1.5,1.5,0,0,0,0,3Z" transform="translate(1 0)"/><path class="cls-8" d="M559.58,203.61a1.5,1.5,0,0,0,0-3,1.5,1.5,0,0,0,0,3Z" transform="translate(1 0)"/><path class="cls-8" d="M562.58,181.11a1.5,1.5,0,0,0,0-3,1.5,1.5,0,0,0,0,3Z" transform="translate(1 0)"/><path class="cls-8" d="M586.58,179.61a1.5,1.5,0,0,0,0-3,1.5,1.5,0,0,0,0,3Z" transform="translate(1 0)"/><path class="cls-8" d="M589.58,124.12a1.5,1.5,0,0,0,0-3,1.5,1.5,0,0,0,0,3Z" transform="translate(1 0)"/><path class="cls-8" d="M645.08,151.12a1.5,1.5,0,0,0,0-3,1.5,1.5,0,0,0,0,3Z" transform="translate(1 0)"/><path class="cls-8" d="M715.57,82.12a1.5,1.5,0,0,0,0-3,1.5,1.5,0,0,0,0,3Z" transform="translate(1 0)"/><path class="cls-8" d="M688.57,119.62a1.5,1.5,0,0,0,0-3,1.5,1.5,0,0,0,0,3Z" transform="translate(1 0)"/><path class="cls-8" d="M684.07,119.62a1.5,1.5,0,0,0,0-3,1.5,1.5,0,0,0,0,3Z" transform="translate(1 0)"/><path class="cls-8" d="M673.58,119.62a1.5,1.5,0,0,0,0-3,1.5,1.5,0,0,0,0,3Z" transform="translate(1 0)"/><path class="cls-8" d="M681.08,142.12a1.5,1.5,0,0,0,0-3,1.5,1.5,0,0,0,0,3Z" transform="translate(1 0)"/><path class="cls-8" d="M664.58,178.11a1.5,1.5,0,0,0,0-3,1.5,1.5,0,0,0,0,3Z" transform="translate(1 0)"/><path class="cls-8" d="M643.58,178.11a1.5,1.5,0,0,0,0-3,1.5,1.5,0,0,0,0,3Z" transform="translate(1 0)"/><path class="cls-8" d="M643.58,196.11a1.5,1.5,0,0,0,0-3,1.5,1.5,0,0,0,0,3Z" transform="translate(1 0)"/><path class="cls-8" d="M613.58,217.11a1.5,1.5,0,0,0,0-3,1.5,1.5,0,0,0,0,3Z" transform="translate(1 0)"/><path class="cls-8" d="M592.58,217.11a1.5,1.5,0,0,0,0-3,1.5,1.5,0,0,0,0,3Z" transform="translate(1 0)"/><path class="cls-8" d="M592.58,242.61a1.5,1.5,0,0,0,0-3,1.5,1.5,0,0,0,0,3Z" transform="translate(1 0)"/><path class="cls-8" d="M574.58,239.61a1.5,1.5,0,0,0,0-3,1.5,1.5,0,0,0,0,3Z" transform="translate(1 0)"/><path class="cls-8" d="M574.58,239.61a1.5,1.5,0,0,0,0-3,1.5,1.5,0,0,0,0,3Z" transform="translate(1 0)"/><path class="cls-9" d="M429.09,544.1a1.5,1.5,0,0,0,0-3,1.5,1.5,0,0,0,0,3Z" transform="translate(1 0)"/><path class="cls-9" d="M459.09,512.6a1.5,1.5,0,0,0,0-3,1.5,1.5,0,0,0,0,3Z" transform="translate(1 0)"/><path class="cls-9" d="M456.09,467.6a1.5,1.5,0,0,0,0-3,1.5,1.5,0,0,0,0,3Z" transform="translate(1 0)"/><path class="cls-9" d="M463.59,382.1a1.5,1.5,0,0,0,0-3,1.5,1.5,0,0,0,0,3Z" transform="translate(1 0)"/><path class="cls-9" d="M483.09,382.1a1.5,1.5,0,0,0,0-3,1.5,1.5,0,0,0,0,3Z" transform="translate(1 0)"/><path class="cls-9" d="M496.58,347.61a1.5,1.5,0,0,0,0-3,1.5,1.5,0,0,0,0,3Z" transform="translate(1 0)"/><path class="cls-9" d="M516.08,347.61a1.5,1.5,0,0,0,0-3,1.5,1.5,0,0,0,0,3Z" transform="translate(1 0)"/><path class="cls-9" d="M520.58,353.61a1.5,1.5,0,0,0,0-3,1.5,1.5,0,0,0,0,3Z" transform="translate(1 0)"/><path class="cls-10" d="M505.58,413.6a1.5,1.5,0,0,0,0-3,1.5,1.5,0,0,0,0,3Z" transform="translate(1 0)"/><path class="cls-10" d="M463.59,377.6a1.5,1.5,0,0,0,0-3,1.5,1.5,0,0,0,0,3Z" transform="translate(1 0)"/><path class="cls-10" d="M504.08,368.61a1.5,1.5,0,0,0,0-3,1.5,1.5,0,0,0,0,3Z" transform="translate(1 0)"/><path class="cls-10" d="M517.58,301.11a1.5,1.5,0,0,0,0-3,1.5,1.5,0,0,0,0,3Z" transform="translate(1 0)"/><path class="cls-10" d="M547.58,308.61a1.5,1.5,0,0,0,0-3,1.5,1.5,0,0,0,0,3Z" transform="translate(1 0)"/><path class="cls-10" d="M531.08,314.61a1.5,1.5,0,0,0,0-3,1.5,1.5,0,0,0,0,3Z" transform="translate(1 0)"/><path class="cls-10" d="M519.08,314.61a1.5,1.5,0,0,0,0-3,1.5,1.5,0,0,0,0,3Z" transform="translate(1 0)"/><path class="cls-10" d="M517.58,314.61a1.5,1.5,0,0,0,0-3,1.5,1.5,0,0,0,0,3Z" transform="translate(1 0)"/><path class="cls-10" d="M429.09,328.11a1.5,1.5,0,0,0,0-3,1.5,1.5,0,0,0,0,3Z" transform="translate(1 0)"/><path class="cls-10" d="M438.09,358.11a1.5,1.5,0,0,0,0-3,1.5,1.5,0,0,0,0,3Z" transform="translate(1 0)"/><path class="cls-10" d="M393.09,424.1a1.5,1.5,0,0,0,0-3,1.5,1.5,0,0,0,0,3Z" transform="translate(1 0)"/><path class="cls-10" d="M343.59,467.6a1.5,1.5,0,0,0,0-3,1.5,1.5,0,0,0,0,3Z" transform="translate(1 0)"/><path class="cls-10" d="M72.11,319.11a1.5,1.5,0,0,0,0-3,1.5,1.5,0,0,0,0,3Z" transform="translate(1 0)"/><path class="cls-10" d="M57.11,97.12a1.5,1.5,0,0,0,0-3,1.5,1.5,0,0,0,0,3Z" transform="translate(1 0)"/><path class="cls-10" d="M90.1,101.62a1.5,1.5,0,0,0,0-3,1.5,1.5,0,0,0,0,3Z" transform="translate(1 0)"/><path class="cls-10" d="M87.1,82.12a1.5,1.5,0,0,0,0-3,1.5,1.5,0,0,0,0,3Z" transform="translate(1 0)"/><path class="cls-10" d="M45.11,62.62a1.5,1.5,0,0,0,0-3,1.5,1.5,0,0,0,0,3Z" transform="translate(1 0)"/><path class="cls-10" d="M109.6,53.62a1.5,1.5,0,0,0,0-3,1.5,1.5,0,0,0,0,3Z" transform="translate(1 0)"/><path class="cls-10" d="M103.6,40.12a1.5,1.5,0,0,0,0-3,1.5,1.5,0,0,0,0,3Z" transform="translate(1 0)"/><path class="cls-10" d="M28.61,22.12a1.5,1.5,0,0,0,0-3,1.5,1.5,0,0,0,0,3Z" transform="translate(1 0)"/><path class="cls-10" d="M441.09,110.62a1.5,1.5,0,0,0,0-3,1.5,1.5,0,0,0,0,3Z" transform="translate(1 0)"/><path class="cls-10" d="M345.09,281.61a1.5,1.5,0,0,0,0-3,1.5,1.5,0,0,0,0,3Z" transform="translate(1 0)"/><path class="cls-10" d="M693.07,574.1a1.5,1.5,0,0,0,0-3,1.5,1.5,0,0,0,0,3Z" transform="translate(1 0)"/><path class="cls-10" d="M705.07,413.6a1.5,1.5,0,0,0,0-3,1.5,1.5,0,0,0,0,3Z" transform="translate(1 0)"/><path class="cls-10" d="M562.58,347.61a1.5,1.5,0,0,0,0-3,1.5,1.5,0,0,0,0,3Z" transform="translate(1 0)"/><path class="cls-10" d="M462.09,370.11a1.5,1.5,0,0,0,0-3,1.5,1.5,0,0,0,0,3Z" transform="translate(1 0)"/><path class="cls-10" d="M453.09,370.11a1.5,1.5,0,0,0,0-3,1.5,1.5,0,0,0,0,3Z" transform="translate(1 0)"/><path class="cls-10" d="M454.59,398.6a1.5,1.5,0,0,0,0-3,1.5,1.5,0,0,0,0,3Z" transform="translate(1 0)"/><path class="cls-10" d="M454.59,430.1a1.5,1.5,0,0,0,0-3,1.5,1.5,0,0,0,0,3Z" transform="translate(1 0)"/><path class="cls-10" d="M459.09,389.6a1.5,1.5,0,0,0,0-3,1.5,1.5,0,0,0,0,3Z" transform="translate(1 0)"/><path class="cls-10" d="M445.59,383.6a1.5,1.5,0,0,0,0-3,1.5,1.5,0,0,0,0,3Z" transform="translate(1 0)"/><path class="cls-10" d="M447.09,332.61a1.5,1.5,0,0,0,0-3,1.5,1.5,0,0,0,0,3Z" transform="translate(1 0)"/><path class="cls-10" d="M456.09,337.11a1.5,1.5,0,0,0,0-3,1.5,1.5,0,0,0,0,3Z" transform="translate(1 0)"/><path class="cls-10" d="M457.59,359.61a1.5,1.5,0,0,0,0-3,1.5,1.5,0,0,0,0,3Z" transform="translate(1 0)"/><path class="cls-10" d="M457.59,362.61a1.5,1.5,0,0,0,0-3,1.5,1.5,0,0,0,0,3Z" transform="translate(1 0)"/><path class="cls-10" d="M477.09,362.61a1.5,1.5,0,0,0,0-3,1.5,1.5,0,0,0,0,3Z" transform="translate(1 0)"/><path class="cls-10" d="M484.58,362.61a1.5,1.5,0,0,0,0-3,1.5,1.5,0,0,0,0,3Z" transform="translate(1 0)"/><path class="cls-10" d="M487.58,380.6a1.5,1.5,0,0,0,0-3,1.5,1.5,0,0,0,0,3Z" transform="translate(1 0)"/><path class="cls-10" d="M496.58,380.6a1.5,1.5,0,0,0,0-3,1.5,1.5,0,0,0,0,3Z" transform="translate(1 0)"/><path class="cls-10" d="M496.58,380.6a1.5,1.5,0,0,0,0-3,1.5,1.5,0,0,0,0,3Z" transform="translate(1 0)"/><path class="cls-10" d="M496.58,380.6a1.5,1.5,0,0,0,0-3,1.5,1.5,0,0,0,0,3Z" transform="translate(1 0)"/><path class="cls-10" d="M502.58,331.11a1.5,1.5,0,0,0,0-3,1.5,1.5,0,0,0,0,3Z" transform="translate(1 0)"/><path class="cls-10" d="M502.58,331.11a1.5,1.5,0,0,0,0-3,1.5,1.5,0,0,0,0,3Z" transform="translate(1 0)"/><path class="cls-10" d="M502.58,331.11a1.5,1.5,0,0,0,0-3,1.5,1.5,0,0,0,0,3Z" transform="translate(1 0)"/><path class="cls-11" d="M469.59,356.61a1.5,1.5,0,0,0,0-3,1.5,1.5,0,0,0,0,3Z" transform="translate(1 0)"/><path class="cls-11" d="M454.59,356.61a1.5,1.5,0,0,0,0-3,1.5,1.5,0,0,0,0,3Z" transform="translate(1 0)"/><path class="cls-11" d="M459.09,388.1a1.5,1.5,0,0,0,0-3,1.5,1.5,0,0,0,0,3Z" transform="translate(1 0)"/><path class="cls-11" d="M450.09,389.6a1.5,1.5,0,0,0,0-3,1.5,1.5,0,0,0,0,3Z" transform="translate(1 0)"/><path class="cls-11" d="M450.09,400.1a1.5,1.5,0,0,0,0-3,1.5,1.5,0,0,0,0,3Z" transform="translate(1 0)"/><path class="cls-11" d="M450.09,406.1a1.5,1.5,0,0,0,0-3,1.5,1.5,0,0,0,0,3Z" transform="translate(1 0)"/><path class="cls-11" d="M448.59,415.1a1.5,1.5,0,0,0,0-3,1.5,1.5,0,0,0,0,3Z" transform="translate(1 0)"/><path class="cls-11" d="M435.09,440.6a1.5,1.5,0,0,0,0-3,1.5,1.5,0,0,0,0,3Z" transform="translate(1 0)"/><path class="cls-11" d="M411.09,440.6a1.5,1.5,0,0,0,0-3,1.5,1.5,0,0,0,0,3Z" transform="translate(1 0)"/><path class="cls-11" d="M411.09,440.6a1.5,1.5,0,0,0,0-3,1.5,1.5,0,0,0,0,3Z" transform="translate(1 0)"/><path class="cls-11" d="M436.59,466.1a1.5,1.5,0,0,0,0-3,1.5,1.5,0,0,0,0,3Z" transform="translate(1 0)"/><path class="cls-11" d="M436.59,466.1a1.5,1.5,0,0,0,0-3,1.5,1.5,0,0,0,0,3Z" transform="translate(1 0)"/><path class="cls-11" d="M421.59,505.1a1.5,1.5,0,0,0,0-3,1.5,1.5,0,0,0,0,3Z" transform="translate(1 0)"/><path class="cls-11" d="M414.09,500.6a1.5,1.5,0,0,0,0-3,1.5,1.5,0,0,0,0,3Z" transform="translate(1 0)"/><path class="cls-11" d="M565.58,310.11a1.5,1.5,0,0,0,0-3,1.5,1.5,0,0,0,0,3Z" transform="translate(1 0)"/><path class="cls-11" d="M540.08,272.61a1.5,1.5,0,0,0,0-3,1.5,1.5,0,0,0,0,3Z" transform="translate(1 0)"/><path class="cls-11" d="M531.08,229.11a1.5,1.5,0,0,0,0-3,1.5,1.5,0,0,0,0,3Z" transform="translate(1 0)"/><path class="cls-11" d="M567.08,229.11a1.5,1.5,0,0,0,0-3,1.5,1.5,0,0,0,0,3Z" transform="translate(1 0)"/><path class="cls-11" d="M604.58,262.11a1.5,1.5,0,0,0,0-3,1.5,1.5,0,0,0,0,3Z" transform="translate(1 0)"/><path class="cls-11" d="M604.58,245.61a1.5,1.5,0,0,0,0-3,1.5,1.5,0,0,0,0,3Z" transform="translate(1 0)"/><path class="cls-11" d="M604.58,244.11a1.5,1.5,0,0,0,0-3,1.5,1.5,0,0,0,0,3Z" transform="translate(1 0)"/><path class="cls-11" d="M597.08,202.11a1.5,1.5,0,0,0,0-3,1.5,1.5,0,0,0,0,3Z" transform="translate(1 0)"/><path class="cls-11" d="M597.08,202.11a1.5,1.5,0,0,0,0-3,1.5,1.5,0,0,0,0,3Z" transform="translate(1 0)"/><path class="cls-11" d="M595.58,232.11a1.5,1.5,0,0,0,0-3,1.5,1.5,0,0,0,0,3Z" transform="translate(1 0)"/><path class="cls-11" d="M597.08,176.62a1.5,1.5,0,0,0,0-3,1.5,1.5,0,0,0,0,3Z" transform="translate(1 0)"/><path class="cls-11" d="M598.58,167.62a1.5,1.5,0,0,0,0-3,1.5,1.5,0,0,0,0,3Z" transform="translate(1 0)"/><path class="cls-11" d="M609.08,166.12a1.5,1.5,0,0,0,0-3,1.5,1.5,0,0,0,0,3Z" transform="translate(1 0)"/><path class="cls-11" d="M609.08,166.12a1.5,1.5,0,0,0,0-3,1.5,1.5,0,0,0,0,3Z" transform="translate(1 0)"/><path class="cls-11" d="M609.08,166.12a1.5,1.5,0,0,0,0-3,1.5,1.5,0,0,0,0,3Z" transform="translate(1 0)"/><path class="cls-11" d="M621.08,155.62a1.5,1.5,0,0,0,0-3,1.5,1.5,0,0,0,0,3Z" transform="translate(1 0)"/><path class="cls-11" d="M621.08,142.12a1.5,1.5,0,0,0,0-3,1.5,1.5,0,0,0,0,3Z" transform="translate(1 0)"/><path class="cls-11" d="M621.08,142.12a1.5,1.5,0,0,0,0-3,1.5,1.5,0,0,0,0,3Z" transform="translate(1 0)"/><path class="cls-11" d="M621.08,142.12a1.5,1.5,0,0,0,0-3,1.5,1.5,0,0,0,0,3Z" transform="translate(1 0)"/><path class="cls-11" d="M621.08,142.12a1.5,1.5,0,0,0,0-3,1.5,1.5,0,0,0,0,3Z" transform="translate(1 0)"/><path class="cls-11" d="M655.58,134.62a1.5,1.5,0,0,0,0-3,1.5,1.5,0,0,0,0,3Z" transform="translate(1 0)"/><path class="cls-11" d="M655.58,134.62a1.5,1.5,0,0,0,0-3,1.5,1.5,0,0,0,0,3Z" transform="translate(1 0)"/><path class="cls-11" d="M655.58,134.62a1.5,1.5,0,0,0,0-3,1.5,1.5,0,0,0,0,3Z" transform="translate(1 0)"/><path class="cls-12" d="M270.1,917.58a1.5,1.5,0,0,0,0-3,1.5,1.5,0,0,0,0,3Z" transform="translate(1 0)"/><path class="cls-12" d="M529.58,997.07a1.5,1.5,0,0,0,0-3,1.5,1.5,0,0,0,0,3Z" transform="translate(1 0)"/><path class="cls-12" d="M655.58,1043.57a1.5,1.5,0,0,0,0-3,1.5,1.5,0,0,0,0,3Z" transform="translate(1 0)"/><path class="cls-12" d="M73.61,1144.07a1.5,1.5,0,0,0,0-3,1.5,1.5,0,0,0,0,3Z" transform="translate(1 0)"/><path class="cls-12" d="M198.1,1081.07a1.5,1.5,0,0,0,0-3,1.5,1.5,0,0,0,0,3Z" transform="translate(1 0)"/></svg>